%TF.GenerationSoftware,KiCad,Pcbnew,9.0.2*%
%TF.CreationDate,2025-08-29T22:08:27+05:30*%
%TF.ProjectId,4 SRA,34205352-412e-46b6-9963-61645f706362,rev?*%
%TF.SameCoordinates,Original*%
%TF.FileFunction,Drillmap*%
%TF.FilePolarity,Positive*%
%FSLAX45Y45*%
G04 Gerber Fmt 4.5, Leading zero omitted, Abs format (unit mm)*
G04 Created by KiCad (PCBNEW 9.0.2) date 2025-08-29 22:08:27*
%MOMM*%
%LPD*%
G01*
G04 APERTURE LIST*
%ADD10C,0.300000*%
%ADD11C,0.220000*%
%ADD12C,0.200000*%
%ADD13C,0.100000*%
%ADD14C,0.320000*%
G04 APERTURE END LIST*
D10*
X13031000Y-10604000D02*
X13014000Y-10595500D01*
X16935500Y-11384000D02*
X16911500Y-11392000D01*
X16821500Y-10681000D02*
X16838500Y-10673000D01*
X13458000Y-11462000D02*
X13495000Y-11462000D01*
D11*
X15232325Y-7002745D02*
X14662989Y-7004461D01*
D10*
X13109000Y-10640000D02*
X13088000Y-10630000D01*
X17204500Y-11239000D02*
X17184500Y-11255000D01*
X15941500Y-11355000D02*
X15926500Y-11348000D01*
D11*
X13581465Y-13645069D02*
X14569317Y-14022763D01*
D10*
X12501000Y-10449000D02*
X12497000Y-10457000D01*
X13512000Y-11462000D02*
X13545000Y-11462000D01*
X16439500Y-10886000D02*
X16453500Y-10877000D01*
D11*
X11904610Y-6819269D02*
X11686114Y-7558332D01*
D10*
X16774500Y-10705000D02*
X16788500Y-10698000D01*
X12977000Y-10579000D02*
X12959000Y-10571000D01*
X12830000Y-10514000D02*
X12806000Y-10505000D01*
X14095000Y-11342000D02*
X14103000Y-11334000D01*
X14055000Y-11226000D02*
X14042000Y-11213000D01*
X12492000Y-10673000D02*
X12494000Y-10690000D01*
X13175000Y-10673000D02*
X13160000Y-10666000D01*
X16629500Y-11461000D02*
X16617500Y-11461000D01*
X16035500Y-11390000D02*
X16020500Y-11385000D01*
X17016500Y-10588000D02*
X17036500Y-10579000D01*
X13176000Y-11415000D02*
X13198000Y-11421000D01*
X12592000Y-10429000D02*
X12576000Y-10426000D01*
X12506000Y-10442000D02*
X12501000Y-10449000D01*
X15908500Y-11296000D02*
X15911500Y-11288000D01*
X12787000Y-11220000D02*
X12809000Y-11239000D01*
D11*
X13096348Y-13566005D02*
X13197754Y-13529267D01*
D10*
X12503000Y-10741000D02*
X12506000Y-10751000D01*
X16185500Y-11430000D02*
X16160500Y-11424000D01*
X16973500Y-11370000D02*
X16960500Y-11375000D01*
X13545000Y-11462000D02*
X13572000Y-11460000D01*
X13791000Y-11437000D02*
X13828000Y-11430000D01*
X13458000Y-10818000D02*
X13447000Y-10812000D01*
X16855500Y-11410000D02*
X16837500Y-11415000D01*
D11*
X11362559Y-10183507D02*
X11363848Y-10926652D01*
D10*
X16512500Y-10842000D02*
X16541500Y-10826000D01*
D11*
X17683262Y-5757081D02*
X17648028Y-5768897D01*
D10*
X13302000Y-10736000D02*
X13286000Y-10728000D01*
D11*
X18431780Y-7992533D02*
X18276018Y-7332747D01*
X18213712Y-13433235D02*
X18386875Y-13242883D01*
D10*
X17289500Y-11160000D02*
X17277500Y-11173000D01*
D11*
X17561446Y-6011456D02*
X17360137Y-6856222D01*
D10*
X16644500Y-10772000D02*
X16662500Y-10762000D01*
X16661500Y-11456000D02*
X16629500Y-11461000D01*
D11*
X16712813Y-13593721D02*
X16843009Y-13562138D01*
D10*
X12998000Y-11353000D02*
X13023000Y-11363000D01*
X13396000Y-11461000D02*
X13430000Y-11462000D01*
X16555500Y-10818000D02*
X16566500Y-10812000D01*
X13053000Y-11375000D02*
X13078000Y-11384000D01*
X16465500Y-10869000D02*
X16480500Y-10860000D01*
X17516500Y-10714000D02*
X17514500Y-10727000D01*
X17523500Y-10657000D02*
X17521500Y-10673000D01*
X16815500Y-11421000D02*
X16789500Y-11428000D01*
X13049000Y-10612000D02*
X13031000Y-10604000D01*
D11*
X18276018Y-7332747D02*
X18078577Y-6681985D01*
D10*
X12483000Y-10576000D02*
X12490000Y-10657000D01*
D11*
X16284630Y-7115752D02*
X15779102Y-7040127D01*
D10*
X12483000Y-10563000D02*
X12483000Y-10576000D01*
X16264500Y-11444000D02*
X16222500Y-11437000D01*
X13651000Y-10932000D02*
X13633000Y-10921000D01*
X16759500Y-11436000D02*
X16724500Y-11445000D01*
X16898500Y-11396000D02*
X16883500Y-11401000D01*
X17319500Y-11126000D02*
X17305500Y-11142000D01*
X12512000Y-10774000D02*
X12516000Y-10791000D01*
X16409500Y-11458000D02*
X16383500Y-11456000D01*
X12997000Y-10588000D02*
X12977000Y-10579000D01*
D11*
X11383614Y-11548410D02*
X11424649Y-12109796D01*
D10*
X17507500Y-10442000D02*
X17512500Y-10449000D01*
X13352000Y-11456000D02*
X13384000Y-11461000D01*
X17497500Y-10791000D02*
X17493500Y-10807000D01*
X17343500Y-10454000D02*
X17384500Y-10439000D01*
D11*
X11561719Y-13094211D02*
X11601680Y-13200128D01*
D10*
X12643000Y-11060000D02*
X12603000Y-10999000D01*
X12921000Y-10555000D02*
X12898000Y-10545000D01*
X13198000Y-11421000D02*
X13224000Y-11428000D01*
D11*
X15343614Y-14096669D02*
X16498614Y-13673857D01*
D10*
X12516000Y-10791000D02*
X12520000Y-10807000D01*
X16925500Y-10630000D02*
X16945500Y-10621000D01*
D11*
X15010391Y-14177236D02*
X15119317Y-14164560D01*
D10*
X13495000Y-11462000D02*
X13512000Y-11462000D01*
X13130000Y-11401000D02*
X13144000Y-11406000D01*
X13158000Y-11410000D02*
X13176000Y-11415000D01*
X12499000Y-10727000D02*
X12503000Y-10741000D01*
D11*
X18424903Y-13161672D02*
X18456270Y-13048880D01*
D10*
X17453500Y-10915000D02*
X17410500Y-10999000D01*
X13691000Y-11450000D02*
X13749000Y-11444000D01*
X17322500Y-10462000D02*
X17343500Y-10454000D01*
X14068000Y-11239000D02*
X14055000Y-11226000D01*
X13560000Y-10877000D02*
X13548000Y-10869000D01*
X14109000Y-11311000D02*
X14107000Y-11303000D01*
X16006500Y-11380000D02*
X15992500Y-11375000D01*
X12490000Y-10657000D02*
X12492000Y-10673000D01*
X13129000Y-10650000D02*
X13109000Y-10640000D01*
X16631500Y-10779000D02*
X16644500Y-10772000D01*
D11*
X16950000Y-7305030D02*
X16613125Y-7193741D01*
D10*
X13210000Y-10690000D02*
X13192000Y-10681000D01*
X15958500Y-11226000D02*
X15971500Y-11213000D01*
D11*
X17376895Y-14223431D02*
X17549844Y-14077552D01*
D10*
X17507500Y-10751000D02*
X17501500Y-10774000D01*
D11*
X11405313Y-9039250D02*
X11374590Y-9422102D01*
D10*
X12643000Y-11060000D02*
X12686000Y-11116000D01*
X13574000Y-10886000D02*
X13560000Y-10877000D01*
X12694000Y-11126000D02*
X12708000Y-11142000D01*
X13749000Y-11444000D02*
X13791000Y-11437000D01*
X16222500Y-11437000D02*
X16185500Y-11430000D01*
X12806000Y-10505000D02*
X12774000Y-10493000D01*
X13351000Y-10762000D02*
X13336000Y-10754000D01*
D11*
X17618594Y-5809718D02*
X17561446Y-6011456D01*
X12873555Y-13872803D02*
X12994727Y-13666767D01*
X17648028Y-5768897D02*
X17618594Y-5809718D01*
D10*
X12745000Y-10482000D02*
X12724000Y-10474000D01*
D11*
X12994727Y-13666767D02*
X13096348Y-13566005D01*
D10*
X16884500Y-10650000D02*
X16904500Y-10640000D01*
X17530500Y-10576000D02*
X17523500Y-10657000D01*
D11*
X12381348Y-5779641D02*
X12341387Y-5762239D01*
D10*
X12483000Y-10519000D02*
X12483000Y-10540000D01*
X13501000Y-10842000D02*
X13472000Y-10826000D01*
X14007000Y-11380000D02*
X14021000Y-11375000D01*
X17207500Y-10505000D02*
X17239500Y-10493000D01*
X17516500Y-10457000D02*
X17521500Y-10469000D01*
X12520000Y-10807000D02*
X12543000Y-10873000D01*
X16566500Y-10812000D02*
X16578500Y-10806000D01*
X13336000Y-10754000D02*
X13323000Y-10747000D01*
X12560000Y-10915000D02*
X12603000Y-10999000D01*
X13589000Y-10895000D02*
X13574000Y-10886000D01*
X13430000Y-11462000D02*
X13458000Y-11462000D01*
X17264500Y-11186000D02*
X17249500Y-11200000D01*
X15911500Y-11288000D02*
X15917500Y-11277000D01*
X17075500Y-10562000D02*
X17092500Y-10555000D01*
X17370500Y-11060000D02*
X17327500Y-11116000D01*
X12489000Y-10480000D02*
X12487000Y-10490000D01*
X17308500Y-10467000D02*
X17322500Y-10462000D01*
D11*
X15779102Y-7040127D02*
X15232325Y-7002745D01*
X16613125Y-7193741D02*
X16284630Y-7115752D01*
D10*
X12691000Y-10462000D02*
X12670000Y-10454000D01*
X16112500Y-11101000D02*
X16127500Y-11090000D01*
D11*
X13321934Y-13557197D02*
X13581465Y-13645069D01*
D10*
X15922500Y-11270000D02*
X15931500Y-11255000D01*
X14107000Y-11303000D02*
X14105000Y-11296000D01*
X16588500Y-10801000D02*
X16602500Y-10794000D01*
X16127500Y-11090000D02*
X16152500Y-11072000D01*
X16322500Y-11450000D02*
X16264500Y-11444000D01*
X16308500Y-10966000D02*
X16336500Y-10949000D01*
X12492000Y-10469000D02*
X12489000Y-10480000D01*
X16711500Y-10736000D02*
X16727500Y-10728000D01*
X17530500Y-10540000D02*
X17530500Y-10563000D01*
X16468500Y-11462000D02*
X16441500Y-11460000D01*
X17036500Y-10579000D02*
X17054500Y-10571000D01*
D11*
X18613108Y-9255599D02*
X18551018Y-8681536D01*
D10*
X17239500Y-10493000D02*
X17268500Y-10482000D01*
X13102000Y-11392000D02*
X13115000Y-11396000D01*
X17530500Y-10519000D02*
X17530500Y-10540000D01*
D11*
X17171505Y-7378292D02*
X16950000Y-7305030D01*
D10*
X16911500Y-11392000D02*
X16898500Y-11396000D01*
X13286000Y-10728000D02*
X13272000Y-10721000D01*
X12483000Y-10540000D02*
X12483000Y-10563000D01*
X16237500Y-11012000D02*
X16278500Y-10985000D01*
X17226500Y-11220000D02*
X17204500Y-11239000D01*
D11*
X12300782Y-5792746D02*
X12185196Y-6043039D01*
D10*
X12948000Y-11329000D02*
X12970000Y-11340000D01*
X15926500Y-11348000D02*
X15918500Y-11342000D01*
D11*
X12401973Y-5807571D02*
X12381348Y-5779641D01*
D10*
X17492500Y-10430000D02*
X17502500Y-10436000D01*
X17521500Y-10469000D02*
X17524500Y-10480000D01*
X13411000Y-10794000D02*
X13394000Y-10785000D01*
X13225000Y-10698000D02*
X13210000Y-10690000D01*
X17526500Y-10490000D02*
X17528500Y-10505000D01*
X16741500Y-10721000D02*
X16755500Y-10714000D01*
X13384000Y-11461000D02*
X13396000Y-11461000D01*
X14103000Y-11334000D02*
X14107000Y-11326000D01*
D11*
X13631739Y-7123700D02*
X13143399Y-7257548D01*
D10*
X12521000Y-10430000D02*
X12511000Y-10436000D01*
D11*
X17212539Y-7344131D02*
X17171505Y-7378292D01*
D10*
X16030500Y-11162000D02*
X16068500Y-11134000D01*
X12542000Y-10424000D02*
X12532000Y-10426000D01*
X13604000Y-11458000D02*
X13630000Y-11456000D01*
X16441500Y-11460000D02*
X16409500Y-11458000D01*
X13040000Y-11370000D02*
X13053000Y-11375000D01*
X13014000Y-10595500D02*
X12997000Y-10588000D01*
X13993000Y-11385000D02*
X14007000Y-11380000D01*
X17029500Y-11347000D02*
X17015500Y-11353000D01*
X12487000Y-10490000D02*
X12485000Y-10505000D01*
X13646000Y-11454000D02*
X13691000Y-11450000D01*
X17184500Y-11255000D02*
X17162500Y-11271000D01*
D11*
X17710765Y-5763958D02*
X17683262Y-5757081D01*
D10*
X13548000Y-10869000D02*
X13533000Y-10860000D01*
X13921000Y-11116000D02*
X13901000Y-11101000D01*
D11*
X17111563Y-13795029D02*
X17229512Y-14053486D01*
D10*
X14091000Y-11270000D02*
X14082000Y-11255000D01*
D11*
X17312657Y-14218701D02*
X17376895Y-14223431D01*
X12341387Y-5762239D02*
X12300782Y-5792746D01*
D10*
X17054500Y-10571000D02*
X17075500Y-10562000D01*
X13735000Y-10985000D02*
X13705000Y-10966000D01*
X13930000Y-11404000D02*
X13957000Y-11396000D01*
X17097500Y-11311000D02*
X17085500Y-11319000D01*
X14013000Y-11186000D02*
X13983000Y-11162000D01*
X16690500Y-10747000D02*
X16711500Y-10736000D01*
X13901000Y-11101000D02*
X13886000Y-11090000D01*
X13776000Y-11012000D02*
X13735000Y-10985000D01*
D11*
X13143399Y-7257548D02*
X12883653Y-7336610D01*
X11658399Y-13286496D02*
X12016329Y-13653449D01*
D10*
X12705000Y-10467000D02*
X12691000Y-10462000D01*
X13886000Y-11090000D02*
X13861000Y-11072000D01*
X12774000Y-10493000D02*
X12745000Y-10482000D01*
X16602500Y-10794000D02*
X16619500Y-10785000D01*
D11*
X14662989Y-7004461D02*
X14089786Y-7045711D01*
D10*
X16501500Y-11462000D02*
X16468500Y-11462000D01*
D11*
X12699532Y-7002961D02*
X12543985Y-6384855D01*
D10*
X12686000Y-11116000D02*
X12694000Y-11126000D01*
X13843000Y-11059000D02*
X13812000Y-11037000D01*
X12724000Y-11160000D02*
X12736000Y-11173000D01*
X16336500Y-10949000D02*
X16362500Y-10932000D01*
X12601000Y-10431000D02*
X12592000Y-10429000D01*
D11*
X14569317Y-14022763D02*
X15010391Y-14177236D01*
D10*
X16402500Y-10908000D02*
X16424500Y-10895000D01*
X16964500Y-10612000D02*
X16982500Y-10604000D01*
X14032000Y-11204000D02*
X14013000Y-11186000D01*
D11*
X11374590Y-9422102D02*
X11362559Y-10183507D01*
X11424649Y-12109796D02*
X11490176Y-12670753D01*
D10*
X16424500Y-10895000D02*
X16439500Y-10886000D01*
D11*
X18386875Y-13242883D02*
X18424903Y-13161672D01*
D10*
X16083500Y-11404000D02*
X16056500Y-11396000D01*
X17524500Y-10480000D02*
X17526500Y-10490000D01*
X15910500Y-11334000D02*
X15906500Y-11326000D01*
X14102000Y-11288000D02*
X14096000Y-11277000D01*
D11*
X16924864Y-13576103D02*
X16994259Y-13632607D01*
D10*
X12898000Y-10545000D02*
X12860000Y-10527000D01*
X12860000Y-10527000D02*
X12830000Y-10514000D01*
D11*
X11363848Y-10926652D02*
X11383614Y-11548410D01*
X12764414Y-14109346D02*
X12873555Y-13872803D01*
D10*
X12851000Y-11271000D02*
X12873000Y-11286000D01*
X17493500Y-10807000D02*
X17470500Y-10873000D01*
X16380500Y-10921000D02*
X16402500Y-10908000D01*
D11*
X11601680Y-13200128D02*
X11658399Y-13286496D01*
D10*
X13078000Y-11384000D02*
X13102000Y-11392000D01*
X16367500Y-11454000D02*
X16322500Y-11450000D01*
X16518500Y-11462000D02*
X16501500Y-11462000D01*
X17512500Y-10449000D02*
X17516500Y-10457000D01*
X17115500Y-10545000D02*
X17153500Y-10527000D01*
D11*
X12807168Y-7338117D02*
X12699532Y-7002961D01*
D10*
X12708000Y-11142000D02*
X12724000Y-11160000D01*
X13861000Y-11072000D02*
X13843000Y-11059000D01*
X16803500Y-10690000D02*
X16821500Y-10681000D01*
D11*
X17737620Y-5797474D02*
X17710765Y-5763958D01*
D10*
X12564000Y-10423000D02*
X12553000Y-10423000D01*
D11*
X18580020Y-12058235D02*
X18619552Y-11437552D01*
D10*
X16617500Y-11461000D02*
X16583500Y-11462000D01*
X13983000Y-11162000D02*
X13945000Y-11134000D01*
X15971500Y-11213000D02*
X15981500Y-11204000D01*
X13978000Y-11390000D02*
X13993000Y-11385000D01*
X13633000Y-10921000D02*
X13611000Y-10908000D01*
X13957000Y-11396000D02*
X13978000Y-11390000D01*
X13677000Y-10949000D02*
X13651000Y-10932000D01*
X17249500Y-11200000D02*
X17226500Y-11220000D01*
X14087000Y-11348000D02*
X14095000Y-11342000D01*
D11*
X12543985Y-6384855D02*
X12426895Y-5883839D01*
D10*
X13572000Y-11460000D02*
X13604000Y-11458000D01*
X17370500Y-11060000D02*
X17410500Y-10999000D01*
X13435000Y-10806000D02*
X13425000Y-10801000D01*
X16904500Y-10640000D02*
X16925500Y-10630000D01*
X14072000Y-11355000D02*
X14087000Y-11348000D01*
X13517000Y-10851000D02*
X13501000Y-10842000D01*
X17460500Y-10423000D02*
X17471500Y-10424000D01*
X16020500Y-11385000D02*
X16006500Y-11380000D01*
X13705000Y-10966000D02*
X13677000Y-10949000D01*
X13853000Y-11424000D02*
X13881000Y-11417000D01*
X15981500Y-11204000D02*
X16000500Y-11186000D01*
X13239000Y-10705000D02*
X13225000Y-10698000D01*
X17501500Y-10774000D02*
X17497500Y-10791000D01*
X16999500Y-10595500D02*
X17016500Y-10588000D01*
X12553000Y-10423000D02*
X12542000Y-10424000D01*
X16677500Y-10754000D02*
X16690500Y-10747000D01*
D11*
X12523789Y-14137492D02*
X12646895Y-14223430D01*
D10*
X15917500Y-11277000D02*
X15922500Y-11270000D01*
X13828000Y-11430000D02*
X13853000Y-11424000D01*
X16068500Y-11134000D02*
X16092500Y-11116000D01*
D11*
X18078577Y-6681985D02*
X17833655Y-6019408D01*
D10*
X17065500Y-11329000D02*
X17043500Y-11340000D01*
X12511000Y-10436000D02*
X12506000Y-10442000D01*
X14107000Y-11326000D02*
X14109000Y-11318000D01*
D11*
X17229512Y-14053486D02*
X17312657Y-14218701D01*
X12426895Y-5883839D02*
X12401973Y-5807571D01*
D10*
X14105000Y-11296000D02*
X14102000Y-11288000D01*
X13630000Y-11456000D02*
X13646000Y-11454000D01*
X16152500Y-11072000D02*
X16170500Y-11059000D01*
X13447000Y-10812000D02*
X13435000Y-10806000D01*
X16278500Y-10985000D02*
X16308500Y-10966000D01*
D11*
X12016329Y-13653449D02*
X12523789Y-14137492D01*
D10*
X12984000Y-11347000D02*
X12998000Y-11353000D01*
X12959000Y-10571000D02*
X12938000Y-10562000D01*
X12916000Y-11311000D02*
X12928000Y-11319000D01*
X13472000Y-10826000D02*
X13458000Y-10818000D01*
X13289000Y-11445000D02*
X13305000Y-11448000D01*
X14082000Y-11255000D02*
X14068000Y-11239000D01*
X16362500Y-10932000D02*
X16380500Y-10921000D01*
X12970000Y-11340000D02*
X12984000Y-11347000D01*
X14042000Y-11213000D02*
X14032000Y-11204000D01*
X17305500Y-11142000D02*
X17289500Y-11160000D01*
X12532000Y-10426000D02*
X12521000Y-10430000D01*
X17043500Y-11340000D02*
X17029500Y-11347000D01*
D11*
X11490176Y-12670753D02*
X11561719Y-13094211D01*
D10*
X15904500Y-11318000D02*
X15904500Y-11311000D01*
D11*
X12719297Y-14208819D02*
X12764414Y-14109346D01*
X18456270Y-13048880D02*
X18519434Y-12638743D01*
D10*
X12494000Y-10690000D02*
X12497000Y-10714000D01*
X16170500Y-11059000D02*
X16201500Y-11037000D01*
X17114500Y-11301000D02*
X17097500Y-11311000D01*
X16056500Y-11396000D02*
X16035500Y-11390000D01*
X15906500Y-11326000D02*
X15904500Y-11318000D01*
X17521500Y-10673000D02*
X17519500Y-10690000D01*
X13224000Y-11428000D02*
X13254000Y-11436000D01*
X16578500Y-10806000D02*
X16588500Y-10801000D01*
X16727500Y-10728000D02*
X16741500Y-10721000D01*
D11*
X17360137Y-6856222D02*
X17212539Y-7344131D01*
D10*
X13272000Y-10721000D02*
X13258000Y-10714000D01*
X17268500Y-10482000D02*
X17289500Y-10474000D01*
D11*
X16498614Y-13673857D02*
X16712813Y-13593721D01*
D10*
X15976500Y-11369000D02*
X15958500Y-11362000D01*
D11*
X11522188Y-8288801D02*
X11405313Y-9039250D01*
D10*
X17510500Y-10741000D02*
X17507500Y-10751000D01*
D11*
X16994259Y-13632607D02*
X17111563Y-13795029D01*
D10*
X15958500Y-11362000D02*
X15941500Y-11355000D01*
X14055000Y-11362000D02*
X14072000Y-11355000D01*
D11*
X18638243Y-10764017D02*
X18636956Y-10024740D01*
X16843009Y-13562138D02*
X16924864Y-13576103D01*
D10*
X16541500Y-10826000D02*
X16555500Y-10818000D01*
X12497000Y-10714000D02*
X12499000Y-10727000D01*
X12576000Y-10426000D02*
X12564000Y-10423000D01*
X13425000Y-10801000D02*
X13411000Y-10794000D01*
X17470500Y-10873000D02*
X17453500Y-10915000D01*
X17471500Y-10424000D02*
X17481500Y-10426000D01*
D11*
X11686114Y-7558332D02*
X11522188Y-8288801D01*
D10*
X17481500Y-10426000D02*
X17492500Y-10430000D01*
X14096000Y-11277000D02*
X14091000Y-11270000D01*
X13144000Y-11406000D02*
X13158000Y-11410000D01*
X16883500Y-11401000D02*
X16869500Y-11406000D01*
X16453500Y-10877000D02*
X16465500Y-10869000D01*
X16838500Y-10673000D02*
X16853500Y-10666000D01*
X16755500Y-10714000D02*
X16774500Y-10705000D01*
X12485000Y-10505000D02*
X12483000Y-10519000D01*
X13369000Y-10772000D02*
X13351000Y-10762000D01*
X13945000Y-11134000D02*
X13921000Y-11116000D01*
X16724500Y-11445000D02*
X16708500Y-11448000D01*
X13068000Y-10621000D02*
X13049000Y-10612000D01*
X14109000Y-11318000D02*
X14109000Y-11311000D01*
X17289500Y-10474000D02*
X17308500Y-10467000D01*
X14021000Y-11375000D02*
X14037000Y-11369000D01*
D11*
X12646895Y-14223430D02*
X12689004Y-14228369D01*
X18551018Y-8681536D02*
X18431780Y-7992533D01*
D10*
X16662500Y-10762000D02*
X16677500Y-10754000D01*
X12506000Y-10751000D02*
X12512000Y-10774000D01*
X15904500Y-11311000D02*
X15906500Y-11303000D01*
D11*
X17549844Y-14077552D02*
X17881778Y-13762806D01*
D10*
X17015500Y-11353000D02*
X16990500Y-11363000D01*
X17140500Y-11286000D02*
X17114500Y-11301000D01*
X16869500Y-11406000D02*
X16855500Y-11410000D01*
X16496500Y-10851000D02*
X16512500Y-10842000D01*
X13533000Y-10860000D02*
X13517000Y-10851000D01*
X17530500Y-10563000D02*
X17530500Y-10576000D01*
X17183500Y-10514000D02*
X17207500Y-10505000D01*
X17502500Y-10436000D02*
X17507500Y-10442000D01*
X13254000Y-11436000D02*
X13289000Y-11445000D01*
X16383500Y-11456000D02*
X16367500Y-11454000D01*
X17092500Y-10555000D02*
X17115500Y-10545000D01*
X12899000Y-11301000D02*
X12916000Y-11311000D01*
D11*
X15119317Y-14164560D02*
X15343614Y-14096669D01*
D10*
X16000500Y-11186000D02*
X16030500Y-11162000D01*
X12809000Y-11239000D02*
X12829000Y-11255000D01*
X16837500Y-11415000D02*
X16815500Y-11421000D01*
X13881000Y-11417000D02*
X13908000Y-11410000D01*
D11*
X18519434Y-12638743D02*
X18580020Y-12058235D01*
X14089786Y-7045711D02*
X13631739Y-7123700D01*
D10*
X17449500Y-10423000D02*
X17460500Y-10423000D01*
X16105500Y-11410000D02*
X16083500Y-11404000D01*
X13908000Y-11410000D02*
X13930000Y-11404000D01*
X16480500Y-10860000D02*
X16496500Y-10851000D01*
X16945500Y-10621000D02*
X16964500Y-10612000D01*
X12873000Y-11286000D02*
X12899000Y-11301000D01*
X16583500Y-11462000D02*
X16555500Y-11462000D01*
X12829000Y-11255000D02*
X12851000Y-11271000D01*
D11*
X18619552Y-11437552D02*
X18638243Y-10764017D01*
D10*
X12749000Y-11186000D02*
X12764000Y-11200000D01*
X13611000Y-10908000D02*
X13589000Y-10895000D01*
D11*
X12689004Y-14228369D02*
X12719297Y-14208819D01*
D10*
X14037000Y-11369000D02*
X14055000Y-11362000D01*
X12938000Y-10562000D02*
X12921000Y-10555000D01*
X13394000Y-10785000D02*
X13382000Y-10779000D01*
X12670000Y-10454000D02*
X12629000Y-10439000D01*
X13192000Y-10681000D02*
X13175000Y-10673000D01*
X17162500Y-11271000D02*
X17140500Y-11286000D01*
X12543000Y-10873000D02*
X12560000Y-10915000D01*
X13305000Y-11448000D02*
X13328000Y-11452000D01*
X17528500Y-10505000D02*
X17530500Y-10519000D01*
X16788500Y-10698000D02*
X16803500Y-10690000D01*
X16160500Y-11424000D02*
X16132500Y-11417000D01*
X13323000Y-10747000D02*
X13302000Y-10736000D01*
D11*
X13197754Y-13529267D02*
X13321934Y-13557197D01*
D10*
X16990500Y-11363000D02*
X16973500Y-11370000D01*
X13160000Y-10666000D02*
X13144000Y-10658000D01*
X13088000Y-10630000D02*
X13068000Y-10621000D01*
X13328000Y-11452000D02*
X13352000Y-11456000D01*
X12736000Y-11173000D02*
X12749000Y-11186000D01*
X17277500Y-11173000D02*
X17264500Y-11186000D01*
X16708500Y-11448000D02*
X16685500Y-11452000D01*
X16789500Y-11428000D02*
X16759500Y-11436000D01*
X15992500Y-11375000D02*
X15976500Y-11369000D01*
X17327500Y-11116000D02*
X17319500Y-11126000D01*
D11*
X12185196Y-6043039D02*
X11904610Y-6819269D01*
D10*
X17085500Y-11319000D02*
X17065500Y-11329000D01*
X17514500Y-10727000D02*
X17510500Y-10741000D01*
X16092500Y-11116000D02*
X16112500Y-11101000D01*
X16982500Y-10604000D02*
X16999500Y-10595500D01*
X13144000Y-10658000D02*
X13129000Y-10650000D01*
X17384500Y-10439000D02*
X17412500Y-10431000D01*
X13115000Y-11396000D02*
X13130000Y-11401000D01*
X17412500Y-10431000D02*
X17421500Y-10429000D01*
X17153500Y-10527000D02*
X17183500Y-10514000D01*
X12497000Y-10457000D02*
X12492000Y-10469000D01*
X12928000Y-11319000D02*
X12948000Y-11329000D01*
X16201500Y-11037000D02*
X16237500Y-11012000D01*
X15931500Y-11255000D02*
X15945500Y-11239000D01*
X15918500Y-11342000D02*
X15910500Y-11334000D01*
X13382000Y-10779000D02*
X13369000Y-10772000D01*
X16555500Y-11462000D02*
X16518500Y-11462000D01*
X15906500Y-11303000D02*
X15908500Y-11296000D01*
X17437500Y-10426000D02*
X17449500Y-10423000D01*
X13258000Y-10714000D02*
X13239000Y-10705000D01*
D11*
X18636956Y-10024740D02*
X18613108Y-9255599D01*
D10*
X17519500Y-10690000D02*
X17516500Y-10714000D01*
X13812000Y-11037000D02*
X13776000Y-11012000D01*
X12764000Y-11200000D02*
X12787000Y-11220000D01*
X15945500Y-11239000D02*
X15958500Y-11226000D01*
X13023000Y-11363000D02*
X13040000Y-11370000D01*
X16685500Y-11452000D02*
X16661500Y-11456000D01*
X16960500Y-11375000D02*
X16935500Y-11384000D01*
X12724000Y-10474000D02*
X12705000Y-10467000D01*
X16619500Y-10785000D02*
X16631500Y-10779000D01*
D11*
X12883653Y-7336610D02*
X12807168Y-7338117D01*
X17881778Y-13762806D02*
X18213712Y-13433235D01*
D10*
X16869500Y-10658000D02*
X16884500Y-10650000D01*
X16853500Y-10666000D02*
X16869500Y-10658000D01*
D11*
X17833655Y-6019408D02*
X17737620Y-5797474D01*
D10*
X16132500Y-11417000D02*
X16105500Y-11410000D01*
X12629000Y-10439000D02*
X12601000Y-10431000D01*
X17421500Y-10429000D02*
X17437500Y-10426000D01*
D12*
D13*
X14753500Y-13518500D02*
X14818500Y-13583500D01*
X14818500Y-13518500D02*
X14753500Y-13583500D01*
X15331500Y-13518500D02*
X15396500Y-13583500D01*
X15396500Y-13518500D02*
X15331500Y-13583500D01*
D14*
X12370000Y-7167500D02*
G75*
G02*
X12050000Y-7167500I-160000J0D01*
G01*
X12050000Y-7167500D02*
G75*
G02*
X12370000Y-7167500I160000J0D01*
G01*
X12712500Y-13440000D02*
G75*
G02*
X12392500Y-13440000I-160000J0D01*
G01*
X12392500Y-13440000D02*
G75*
G02*
X12712500Y-13440000I160000J0D01*
G01*
X17712500Y-13442500D02*
G75*
G02*
X17392500Y-13442500I-160000J0D01*
G01*
X17392500Y-13442500D02*
G75*
G02*
X17712500Y-13442500I160000J0D01*
G01*
X17975000Y-7105000D02*
G75*
G02*
X17655000Y-7105000I-160000J0D01*
G01*
X17655000Y-7105000D02*
G75*
G02*
X17975000Y-7105000I160000J0D01*
G01*
D12*
X11612336Y-14550853D02*
X11612336Y-14350853D01*
X11612336Y-14350853D02*
X11659955Y-14350853D01*
X11659955Y-14350853D02*
X11688526Y-14360376D01*
X11688526Y-14360376D02*
X11707574Y-14379424D01*
X11707574Y-14379424D02*
X11717098Y-14398472D01*
X11717098Y-14398472D02*
X11726621Y-14436567D01*
X11726621Y-14436567D02*
X11726621Y-14465138D01*
X11726621Y-14465138D02*
X11717098Y-14503234D01*
X11717098Y-14503234D02*
X11707574Y-14522281D01*
X11707574Y-14522281D02*
X11688526Y-14541329D01*
X11688526Y-14541329D02*
X11659955Y-14550853D01*
X11659955Y-14550853D02*
X11612336Y-14550853D01*
X11812336Y-14550853D02*
X11812336Y-14417519D01*
X11812336Y-14455615D02*
X11821860Y-14436567D01*
X11821860Y-14436567D02*
X11831383Y-14427043D01*
X11831383Y-14427043D02*
X11850431Y-14417519D01*
X11850431Y-14417519D02*
X11869479Y-14417519D01*
X11936145Y-14550853D02*
X11936145Y-14417519D01*
X11936145Y-14350853D02*
X11926621Y-14360376D01*
X11926621Y-14360376D02*
X11936145Y-14369900D01*
X11936145Y-14369900D02*
X11945669Y-14360376D01*
X11945669Y-14360376D02*
X11936145Y-14350853D01*
X11936145Y-14350853D02*
X11936145Y-14369900D01*
X12059955Y-14550853D02*
X12040907Y-14541329D01*
X12040907Y-14541329D02*
X12031383Y-14522281D01*
X12031383Y-14522281D02*
X12031383Y-14350853D01*
X12164717Y-14550853D02*
X12145669Y-14541329D01*
X12145669Y-14541329D02*
X12136145Y-14522281D01*
X12136145Y-14522281D02*
X12136145Y-14350853D01*
X12393288Y-14550853D02*
X12393288Y-14350853D01*
X12393288Y-14350853D02*
X12459955Y-14493710D01*
X12459955Y-14493710D02*
X12526621Y-14350853D01*
X12526621Y-14350853D02*
X12526621Y-14550853D01*
X12707574Y-14550853D02*
X12707574Y-14446091D01*
X12707574Y-14446091D02*
X12698050Y-14427043D01*
X12698050Y-14427043D02*
X12679002Y-14417519D01*
X12679002Y-14417519D02*
X12640907Y-14417519D01*
X12640907Y-14417519D02*
X12621860Y-14427043D01*
X12707574Y-14541329D02*
X12688526Y-14550853D01*
X12688526Y-14550853D02*
X12640907Y-14550853D01*
X12640907Y-14550853D02*
X12621860Y-14541329D01*
X12621860Y-14541329D02*
X12612336Y-14522281D01*
X12612336Y-14522281D02*
X12612336Y-14503234D01*
X12612336Y-14503234D02*
X12621860Y-14484186D01*
X12621860Y-14484186D02*
X12640907Y-14474662D01*
X12640907Y-14474662D02*
X12688526Y-14474662D01*
X12688526Y-14474662D02*
X12707574Y-14465138D01*
X12802812Y-14417519D02*
X12802812Y-14617519D01*
X12802812Y-14427043D02*
X12821860Y-14417519D01*
X12821860Y-14417519D02*
X12859955Y-14417519D01*
X12859955Y-14417519D02*
X12879002Y-14427043D01*
X12879002Y-14427043D02*
X12888526Y-14436567D01*
X12888526Y-14436567D02*
X12898050Y-14455615D01*
X12898050Y-14455615D02*
X12898050Y-14512757D01*
X12898050Y-14512757D02*
X12888526Y-14531805D01*
X12888526Y-14531805D02*
X12879002Y-14541329D01*
X12879002Y-14541329D02*
X12859955Y-14550853D01*
X12859955Y-14550853D02*
X12821860Y-14550853D01*
X12821860Y-14550853D02*
X12802812Y-14541329D01*
X12983764Y-14531805D02*
X12993288Y-14541329D01*
X12993288Y-14541329D02*
X12983764Y-14550853D01*
X12983764Y-14550853D02*
X12974241Y-14541329D01*
X12974241Y-14541329D02*
X12983764Y-14531805D01*
X12983764Y-14531805D02*
X12983764Y-14550853D01*
X12983764Y-14427043D02*
X12993288Y-14436567D01*
X12993288Y-14436567D02*
X12983764Y-14446091D01*
X12983764Y-14446091D02*
X12974241Y-14436567D01*
X12974241Y-14436567D02*
X12983764Y-14427043D01*
X12983764Y-14427043D02*
X12983764Y-14446091D01*
D13*
X11286559Y-14846869D02*
X11351559Y-14911869D01*
X11351559Y-14846869D02*
X11286559Y-14911869D01*
D12*
X11650431Y-14770853D02*
X11669479Y-14770853D01*
X11669479Y-14770853D02*
X11688526Y-14780376D01*
X11688526Y-14780376D02*
X11698050Y-14789900D01*
X11698050Y-14789900D02*
X11707574Y-14808948D01*
X11707574Y-14808948D02*
X11717098Y-14847043D01*
X11717098Y-14847043D02*
X11717098Y-14894662D01*
X11717098Y-14894662D02*
X11707574Y-14932757D01*
X11707574Y-14932757D02*
X11698050Y-14951805D01*
X11698050Y-14951805D02*
X11688526Y-14961329D01*
X11688526Y-14961329D02*
X11669479Y-14970853D01*
X11669479Y-14970853D02*
X11650431Y-14970853D01*
X11650431Y-14970853D02*
X11631383Y-14961329D01*
X11631383Y-14961329D02*
X11621860Y-14951805D01*
X11621860Y-14951805D02*
X11612336Y-14932757D01*
X11612336Y-14932757D02*
X11602812Y-14894662D01*
X11602812Y-14894662D02*
X11602812Y-14847043D01*
X11602812Y-14847043D02*
X11612336Y-14808948D01*
X11612336Y-14808948D02*
X11621860Y-14789900D01*
X11621860Y-14789900D02*
X11631383Y-14780376D01*
X11631383Y-14780376D02*
X11650431Y-14770853D01*
X11802812Y-14951805D02*
X11812336Y-14961329D01*
X11812336Y-14961329D02*
X11802812Y-14970853D01*
X11802812Y-14970853D02*
X11793288Y-14961329D01*
X11793288Y-14961329D02*
X11802812Y-14951805D01*
X11802812Y-14951805D02*
X11802812Y-14970853D01*
X11983764Y-14770853D02*
X11945669Y-14770853D01*
X11945669Y-14770853D02*
X11926621Y-14780376D01*
X11926621Y-14780376D02*
X11917098Y-14789900D01*
X11917098Y-14789900D02*
X11898050Y-14818472D01*
X11898050Y-14818472D02*
X11888526Y-14856567D01*
X11888526Y-14856567D02*
X11888526Y-14932757D01*
X11888526Y-14932757D02*
X11898050Y-14951805D01*
X11898050Y-14951805D02*
X11907574Y-14961329D01*
X11907574Y-14961329D02*
X11926621Y-14970853D01*
X11926621Y-14970853D02*
X11964717Y-14970853D01*
X11964717Y-14970853D02*
X11983764Y-14961329D01*
X11983764Y-14961329D02*
X11993288Y-14951805D01*
X11993288Y-14951805D02*
X12002812Y-14932757D01*
X12002812Y-14932757D02*
X12002812Y-14885138D01*
X12002812Y-14885138D02*
X11993288Y-14866091D01*
X11993288Y-14866091D02*
X11983764Y-14856567D01*
X11983764Y-14856567D02*
X11964717Y-14847043D01*
X11964717Y-14847043D02*
X11926621Y-14847043D01*
X11926621Y-14847043D02*
X11907574Y-14856567D01*
X11907574Y-14856567D02*
X11898050Y-14866091D01*
X11898050Y-14866091D02*
X11888526Y-14885138D01*
X12183764Y-14770853D02*
X12088526Y-14770853D01*
X12088526Y-14770853D02*
X12079002Y-14866091D01*
X12079002Y-14866091D02*
X12088526Y-14856567D01*
X12088526Y-14856567D02*
X12107574Y-14847043D01*
X12107574Y-14847043D02*
X12155193Y-14847043D01*
X12155193Y-14847043D02*
X12174241Y-14856567D01*
X12174241Y-14856567D02*
X12183764Y-14866091D01*
X12183764Y-14866091D02*
X12193288Y-14885138D01*
X12193288Y-14885138D02*
X12193288Y-14932757D01*
X12193288Y-14932757D02*
X12183764Y-14951805D01*
X12183764Y-14951805D02*
X12174241Y-14961329D01*
X12174241Y-14961329D02*
X12155193Y-14970853D01*
X12155193Y-14970853D02*
X12107574Y-14970853D01*
X12107574Y-14970853D02*
X12088526Y-14961329D01*
X12088526Y-14961329D02*
X12079002Y-14951805D01*
X12317098Y-14770853D02*
X12336145Y-14770853D01*
X12336145Y-14770853D02*
X12355193Y-14780376D01*
X12355193Y-14780376D02*
X12364717Y-14789900D01*
X12364717Y-14789900D02*
X12374241Y-14808948D01*
X12374241Y-14808948D02*
X12383764Y-14847043D01*
X12383764Y-14847043D02*
X12383764Y-14894662D01*
X12383764Y-14894662D02*
X12374241Y-14932757D01*
X12374241Y-14932757D02*
X12364717Y-14951805D01*
X12364717Y-14951805D02*
X12355193Y-14961329D01*
X12355193Y-14961329D02*
X12336145Y-14970853D01*
X12336145Y-14970853D02*
X12317098Y-14970853D01*
X12317098Y-14970853D02*
X12298050Y-14961329D01*
X12298050Y-14961329D02*
X12288526Y-14951805D01*
X12288526Y-14951805D02*
X12279002Y-14932757D01*
X12279002Y-14932757D02*
X12269479Y-14894662D01*
X12269479Y-14894662D02*
X12269479Y-14847043D01*
X12269479Y-14847043D02*
X12279002Y-14808948D01*
X12279002Y-14808948D02*
X12288526Y-14789900D01*
X12288526Y-14789900D02*
X12298050Y-14780376D01*
X12298050Y-14780376D02*
X12317098Y-14770853D01*
X12469479Y-14970853D02*
X12469479Y-14837519D01*
X12469479Y-14856567D02*
X12479002Y-14847043D01*
X12479002Y-14847043D02*
X12498050Y-14837519D01*
X12498050Y-14837519D02*
X12526622Y-14837519D01*
X12526622Y-14837519D02*
X12545669Y-14847043D01*
X12545669Y-14847043D02*
X12555193Y-14866091D01*
X12555193Y-14866091D02*
X12555193Y-14970853D01*
X12555193Y-14866091D02*
X12564717Y-14847043D01*
X12564717Y-14847043D02*
X12583764Y-14837519D01*
X12583764Y-14837519D02*
X12612336Y-14837519D01*
X12612336Y-14837519D02*
X12631383Y-14847043D01*
X12631383Y-14847043D02*
X12640907Y-14866091D01*
X12640907Y-14866091D02*
X12640907Y-14970853D01*
X12736145Y-14970853D02*
X12736145Y-14837519D01*
X12736145Y-14856567D02*
X12745669Y-14847043D01*
X12745669Y-14847043D02*
X12764717Y-14837519D01*
X12764717Y-14837519D02*
X12793288Y-14837519D01*
X12793288Y-14837519D02*
X12812336Y-14847043D01*
X12812336Y-14847043D02*
X12821860Y-14866091D01*
X12821860Y-14866091D02*
X12821860Y-14970853D01*
X12821860Y-14866091D02*
X12831383Y-14847043D01*
X12831383Y-14847043D02*
X12850431Y-14837519D01*
X12850431Y-14837519D02*
X12879002Y-14837519D01*
X12879002Y-14837519D02*
X12898050Y-14847043D01*
X12898050Y-14847043D02*
X12907574Y-14866091D01*
X12907574Y-14866091D02*
X12907574Y-14970853D01*
X13298050Y-14761329D02*
X13126622Y-15018472D01*
X13555193Y-14770853D02*
X13574241Y-14770853D01*
X13574241Y-14770853D02*
X13593288Y-14780376D01*
X13593288Y-14780376D02*
X13602812Y-14789900D01*
X13602812Y-14789900D02*
X13612336Y-14808948D01*
X13612336Y-14808948D02*
X13621860Y-14847043D01*
X13621860Y-14847043D02*
X13621860Y-14894662D01*
X13621860Y-14894662D02*
X13612336Y-14932757D01*
X13612336Y-14932757D02*
X13602812Y-14951805D01*
X13602812Y-14951805D02*
X13593288Y-14961329D01*
X13593288Y-14961329D02*
X13574241Y-14970853D01*
X13574241Y-14970853D02*
X13555193Y-14970853D01*
X13555193Y-14970853D02*
X13536145Y-14961329D01*
X13536145Y-14961329D02*
X13526622Y-14951805D01*
X13526622Y-14951805D02*
X13517098Y-14932757D01*
X13517098Y-14932757D02*
X13507574Y-14894662D01*
X13507574Y-14894662D02*
X13507574Y-14847043D01*
X13507574Y-14847043D02*
X13517098Y-14808948D01*
X13517098Y-14808948D02*
X13526622Y-14789900D01*
X13526622Y-14789900D02*
X13536145Y-14780376D01*
X13536145Y-14780376D02*
X13555193Y-14770853D01*
X13707574Y-14951805D02*
X13717098Y-14961329D01*
X13717098Y-14961329D02*
X13707574Y-14970853D01*
X13707574Y-14970853D02*
X13698050Y-14961329D01*
X13698050Y-14961329D02*
X13707574Y-14951805D01*
X13707574Y-14951805D02*
X13707574Y-14970853D01*
X13840907Y-14770853D02*
X13859955Y-14770853D01*
X13859955Y-14770853D02*
X13879003Y-14780376D01*
X13879003Y-14780376D02*
X13888526Y-14789900D01*
X13888526Y-14789900D02*
X13898050Y-14808948D01*
X13898050Y-14808948D02*
X13907574Y-14847043D01*
X13907574Y-14847043D02*
X13907574Y-14894662D01*
X13907574Y-14894662D02*
X13898050Y-14932757D01*
X13898050Y-14932757D02*
X13888526Y-14951805D01*
X13888526Y-14951805D02*
X13879003Y-14961329D01*
X13879003Y-14961329D02*
X13859955Y-14970853D01*
X13859955Y-14970853D02*
X13840907Y-14970853D01*
X13840907Y-14970853D02*
X13821860Y-14961329D01*
X13821860Y-14961329D02*
X13812336Y-14951805D01*
X13812336Y-14951805D02*
X13802812Y-14932757D01*
X13802812Y-14932757D02*
X13793288Y-14894662D01*
X13793288Y-14894662D02*
X13793288Y-14847043D01*
X13793288Y-14847043D02*
X13802812Y-14808948D01*
X13802812Y-14808948D02*
X13812336Y-14789900D01*
X13812336Y-14789900D02*
X13821860Y-14780376D01*
X13821860Y-14780376D02*
X13840907Y-14770853D01*
X13983765Y-14789900D02*
X13993288Y-14780376D01*
X13993288Y-14780376D02*
X14012336Y-14770853D01*
X14012336Y-14770853D02*
X14059955Y-14770853D01*
X14059955Y-14770853D02*
X14079003Y-14780376D01*
X14079003Y-14780376D02*
X14088526Y-14789900D01*
X14088526Y-14789900D02*
X14098050Y-14808948D01*
X14098050Y-14808948D02*
X14098050Y-14827995D01*
X14098050Y-14827995D02*
X14088526Y-14856567D01*
X14088526Y-14856567D02*
X13974241Y-14970853D01*
X13974241Y-14970853D02*
X14098050Y-14970853D01*
X14279003Y-14770853D02*
X14183765Y-14770853D01*
X14183765Y-14770853D02*
X14174241Y-14866091D01*
X14174241Y-14866091D02*
X14183765Y-14856567D01*
X14183765Y-14856567D02*
X14202812Y-14847043D01*
X14202812Y-14847043D02*
X14250431Y-14847043D01*
X14250431Y-14847043D02*
X14269479Y-14856567D01*
X14269479Y-14856567D02*
X14279003Y-14866091D01*
X14279003Y-14866091D02*
X14288526Y-14885138D01*
X14288526Y-14885138D02*
X14288526Y-14932757D01*
X14288526Y-14932757D02*
X14279003Y-14951805D01*
X14279003Y-14951805D02*
X14269479Y-14961329D01*
X14269479Y-14961329D02*
X14250431Y-14970853D01*
X14250431Y-14970853D02*
X14202812Y-14970853D01*
X14202812Y-14970853D02*
X14183765Y-14961329D01*
X14183765Y-14961329D02*
X14174241Y-14951805D01*
X14459955Y-14770853D02*
X14421860Y-14770853D01*
X14421860Y-14770853D02*
X14402812Y-14780376D01*
X14402812Y-14780376D02*
X14393288Y-14789900D01*
X14393288Y-14789900D02*
X14374241Y-14818472D01*
X14374241Y-14818472D02*
X14364717Y-14856567D01*
X14364717Y-14856567D02*
X14364717Y-14932757D01*
X14364717Y-14932757D02*
X14374241Y-14951805D01*
X14374241Y-14951805D02*
X14383765Y-14961329D01*
X14383765Y-14961329D02*
X14402812Y-14970853D01*
X14402812Y-14970853D02*
X14440907Y-14970853D01*
X14440907Y-14970853D02*
X14459955Y-14961329D01*
X14459955Y-14961329D02*
X14469479Y-14951805D01*
X14469479Y-14951805D02*
X14479003Y-14932757D01*
X14479003Y-14932757D02*
X14479003Y-14885138D01*
X14479003Y-14885138D02*
X14469479Y-14866091D01*
X14469479Y-14866091D02*
X14459955Y-14856567D01*
X14459955Y-14856567D02*
X14440907Y-14847043D01*
X14440907Y-14847043D02*
X14402812Y-14847043D01*
X14402812Y-14847043D02*
X14383765Y-14856567D01*
X14383765Y-14856567D02*
X14374241Y-14866091D01*
X14374241Y-14866091D02*
X14364717Y-14885138D01*
X14555193Y-14770853D02*
X14555193Y-14808948D01*
X14631384Y-14770853D02*
X14631384Y-14808948D01*
X14926622Y-15047043D02*
X14917098Y-15037519D01*
X14917098Y-15037519D02*
X14898050Y-15008948D01*
X14898050Y-15008948D02*
X14888527Y-14989900D01*
X14888527Y-14989900D02*
X14879003Y-14961329D01*
X14879003Y-14961329D02*
X14869479Y-14913710D01*
X14869479Y-14913710D02*
X14869479Y-14875615D01*
X14869479Y-14875615D02*
X14879003Y-14827995D01*
X14879003Y-14827995D02*
X14888527Y-14799424D01*
X14888527Y-14799424D02*
X14898050Y-14780376D01*
X14898050Y-14780376D02*
X14917098Y-14751805D01*
X14917098Y-14751805D02*
X14926622Y-14742281D01*
X14993288Y-14789900D02*
X15002812Y-14780376D01*
X15002812Y-14780376D02*
X15021860Y-14770853D01*
X15021860Y-14770853D02*
X15069479Y-14770853D01*
X15069479Y-14770853D02*
X15088527Y-14780376D01*
X15088527Y-14780376D02*
X15098050Y-14789900D01*
X15098050Y-14789900D02*
X15107574Y-14808948D01*
X15107574Y-14808948D02*
X15107574Y-14827995D01*
X15107574Y-14827995D02*
X15098050Y-14856567D01*
X15098050Y-14856567D02*
X14983765Y-14970853D01*
X14983765Y-14970853D02*
X15107574Y-14970853D01*
X15345669Y-14970853D02*
X15345669Y-14770853D01*
X15431384Y-14970853D02*
X15431384Y-14866091D01*
X15431384Y-14866091D02*
X15421860Y-14847043D01*
X15421860Y-14847043D02*
X15402812Y-14837519D01*
X15402812Y-14837519D02*
X15374241Y-14837519D01*
X15374241Y-14837519D02*
X15355193Y-14847043D01*
X15355193Y-14847043D02*
X15345669Y-14856567D01*
X15555193Y-14970853D02*
X15536146Y-14961329D01*
X15536146Y-14961329D02*
X15526622Y-14951805D01*
X15526622Y-14951805D02*
X15517098Y-14932757D01*
X15517098Y-14932757D02*
X15517098Y-14875615D01*
X15517098Y-14875615D02*
X15526622Y-14856567D01*
X15526622Y-14856567D02*
X15536146Y-14847043D01*
X15536146Y-14847043D02*
X15555193Y-14837519D01*
X15555193Y-14837519D02*
X15583765Y-14837519D01*
X15583765Y-14837519D02*
X15602812Y-14847043D01*
X15602812Y-14847043D02*
X15612336Y-14856567D01*
X15612336Y-14856567D02*
X15621860Y-14875615D01*
X15621860Y-14875615D02*
X15621860Y-14932757D01*
X15621860Y-14932757D02*
X15612336Y-14951805D01*
X15612336Y-14951805D02*
X15602812Y-14961329D01*
X15602812Y-14961329D02*
X15583765Y-14970853D01*
X15583765Y-14970853D02*
X15555193Y-14970853D01*
X15736146Y-14970853D02*
X15717098Y-14961329D01*
X15717098Y-14961329D02*
X15707574Y-14942281D01*
X15707574Y-14942281D02*
X15707574Y-14770853D01*
X15888527Y-14961329D02*
X15869479Y-14970853D01*
X15869479Y-14970853D02*
X15831384Y-14970853D01*
X15831384Y-14970853D02*
X15812336Y-14961329D01*
X15812336Y-14961329D02*
X15802812Y-14942281D01*
X15802812Y-14942281D02*
X15802812Y-14866091D01*
X15802812Y-14866091D02*
X15812336Y-14847043D01*
X15812336Y-14847043D02*
X15831384Y-14837519D01*
X15831384Y-14837519D02*
X15869479Y-14837519D01*
X15869479Y-14837519D02*
X15888527Y-14847043D01*
X15888527Y-14847043D02*
X15898050Y-14866091D01*
X15898050Y-14866091D02*
X15898050Y-14885138D01*
X15898050Y-14885138D02*
X15802812Y-14904186D01*
X15974241Y-14961329D02*
X15993289Y-14970853D01*
X15993289Y-14970853D02*
X16031384Y-14970853D01*
X16031384Y-14970853D02*
X16050431Y-14961329D01*
X16050431Y-14961329D02*
X16059955Y-14942281D01*
X16059955Y-14942281D02*
X16059955Y-14932757D01*
X16059955Y-14932757D02*
X16050431Y-14913710D01*
X16050431Y-14913710D02*
X16031384Y-14904186D01*
X16031384Y-14904186D02*
X16002812Y-14904186D01*
X16002812Y-14904186D02*
X15983765Y-14894662D01*
X15983765Y-14894662D02*
X15974241Y-14875615D01*
X15974241Y-14875615D02*
X15974241Y-14866091D01*
X15974241Y-14866091D02*
X15983765Y-14847043D01*
X15983765Y-14847043D02*
X16002812Y-14837519D01*
X16002812Y-14837519D02*
X16031384Y-14837519D01*
X16031384Y-14837519D02*
X16050431Y-14847043D01*
X16126622Y-15047043D02*
X16136146Y-15037519D01*
X16136146Y-15037519D02*
X16155193Y-15008948D01*
X16155193Y-15008948D02*
X16164717Y-14989900D01*
X16164717Y-14989900D02*
X16174241Y-14961329D01*
X16174241Y-14961329D02*
X16183765Y-14913710D01*
X16183765Y-14913710D02*
X16183765Y-14875615D01*
X16183765Y-14875615D02*
X16174241Y-14827995D01*
X16174241Y-14827995D02*
X16164717Y-14799424D01*
X16164717Y-14799424D02*
X16155193Y-14780376D01*
X16155193Y-14780376D02*
X16136146Y-14751805D01*
X16136146Y-14751805D02*
X16126622Y-14742281D01*
X16488527Y-15047043D02*
X16479003Y-15037519D01*
X16479003Y-15037519D02*
X16459955Y-15008948D01*
X16459955Y-15008948D02*
X16450431Y-14989900D01*
X16450431Y-14989900D02*
X16440908Y-14961329D01*
X16440908Y-14961329D02*
X16431384Y-14913710D01*
X16431384Y-14913710D02*
X16431384Y-14875615D01*
X16431384Y-14875615D02*
X16440908Y-14827995D01*
X16440908Y-14827995D02*
X16450431Y-14799424D01*
X16450431Y-14799424D02*
X16459955Y-14780376D01*
X16459955Y-14780376D02*
X16479003Y-14751805D01*
X16479003Y-14751805D02*
X16488527Y-14742281D01*
X16564717Y-14837519D02*
X16564717Y-14970853D01*
X16564717Y-14856567D02*
X16574241Y-14847043D01*
X16574241Y-14847043D02*
X16593289Y-14837519D01*
X16593289Y-14837519D02*
X16621860Y-14837519D01*
X16621860Y-14837519D02*
X16640908Y-14847043D01*
X16640908Y-14847043D02*
X16650431Y-14866091D01*
X16650431Y-14866091D02*
X16650431Y-14970853D01*
X16774241Y-14970853D02*
X16755193Y-14961329D01*
X16755193Y-14961329D02*
X16745670Y-14951805D01*
X16745670Y-14951805D02*
X16736146Y-14932757D01*
X16736146Y-14932757D02*
X16736146Y-14875615D01*
X16736146Y-14875615D02*
X16745670Y-14856567D01*
X16745670Y-14856567D02*
X16755193Y-14847043D01*
X16755193Y-14847043D02*
X16774241Y-14837519D01*
X16774241Y-14837519D02*
X16802813Y-14837519D01*
X16802813Y-14837519D02*
X16821860Y-14847043D01*
X16821860Y-14847043D02*
X16831384Y-14856567D01*
X16831384Y-14856567D02*
X16840908Y-14875615D01*
X16840908Y-14875615D02*
X16840908Y-14932757D01*
X16840908Y-14932757D02*
X16831384Y-14951805D01*
X16831384Y-14951805D02*
X16821860Y-14961329D01*
X16821860Y-14961329D02*
X16802813Y-14970853D01*
X16802813Y-14970853D02*
X16774241Y-14970853D01*
X16898051Y-14837519D02*
X16974241Y-14837519D01*
X16926622Y-14770853D02*
X16926622Y-14942281D01*
X16926622Y-14942281D02*
X16936146Y-14961329D01*
X16936146Y-14961329D02*
X16955193Y-14970853D01*
X16955193Y-14970853D02*
X16974241Y-14970853D01*
X17193289Y-14837519D02*
X17193289Y-15037519D01*
X17193289Y-14847043D02*
X17212336Y-14837519D01*
X17212336Y-14837519D02*
X17250432Y-14837519D01*
X17250432Y-14837519D02*
X17269479Y-14847043D01*
X17269479Y-14847043D02*
X17279003Y-14856567D01*
X17279003Y-14856567D02*
X17288527Y-14875615D01*
X17288527Y-14875615D02*
X17288527Y-14932757D01*
X17288527Y-14932757D02*
X17279003Y-14951805D01*
X17279003Y-14951805D02*
X17269479Y-14961329D01*
X17269479Y-14961329D02*
X17250432Y-14970853D01*
X17250432Y-14970853D02*
X17212336Y-14970853D01*
X17212336Y-14970853D02*
X17193289Y-14961329D01*
X17402813Y-14970853D02*
X17383765Y-14961329D01*
X17383765Y-14961329D02*
X17374241Y-14942281D01*
X17374241Y-14942281D02*
X17374241Y-14770853D01*
X17564717Y-14970853D02*
X17564717Y-14866091D01*
X17564717Y-14866091D02*
X17555194Y-14847043D01*
X17555194Y-14847043D02*
X17536146Y-14837519D01*
X17536146Y-14837519D02*
X17498051Y-14837519D01*
X17498051Y-14837519D02*
X17479003Y-14847043D01*
X17564717Y-14961329D02*
X17545670Y-14970853D01*
X17545670Y-14970853D02*
X17498051Y-14970853D01*
X17498051Y-14970853D02*
X17479003Y-14961329D01*
X17479003Y-14961329D02*
X17469479Y-14942281D01*
X17469479Y-14942281D02*
X17469479Y-14923234D01*
X17469479Y-14923234D02*
X17479003Y-14904186D01*
X17479003Y-14904186D02*
X17498051Y-14894662D01*
X17498051Y-14894662D02*
X17545670Y-14894662D01*
X17545670Y-14894662D02*
X17564717Y-14885138D01*
X17631384Y-14837519D02*
X17707574Y-14837519D01*
X17659955Y-14770853D02*
X17659955Y-14942281D01*
X17659955Y-14942281D02*
X17669479Y-14961329D01*
X17669479Y-14961329D02*
X17688527Y-14970853D01*
X17688527Y-14970853D02*
X17707574Y-14970853D01*
X17850432Y-14961329D02*
X17831384Y-14970853D01*
X17831384Y-14970853D02*
X17793289Y-14970853D01*
X17793289Y-14970853D02*
X17774241Y-14961329D01*
X17774241Y-14961329D02*
X17764717Y-14942281D01*
X17764717Y-14942281D02*
X17764717Y-14866091D01*
X17764717Y-14866091D02*
X17774241Y-14847043D01*
X17774241Y-14847043D02*
X17793289Y-14837519D01*
X17793289Y-14837519D02*
X17831384Y-14837519D01*
X17831384Y-14837519D02*
X17850432Y-14847043D01*
X17850432Y-14847043D02*
X17859955Y-14866091D01*
X17859955Y-14866091D02*
X17859955Y-14885138D01*
X17859955Y-14885138D02*
X17764717Y-14904186D01*
X18031384Y-14970853D02*
X18031384Y-14770853D01*
X18031384Y-14961329D02*
X18012336Y-14970853D01*
X18012336Y-14970853D02*
X17974241Y-14970853D01*
X17974241Y-14970853D02*
X17955194Y-14961329D01*
X17955194Y-14961329D02*
X17945670Y-14951805D01*
X17945670Y-14951805D02*
X17936146Y-14932757D01*
X17936146Y-14932757D02*
X17936146Y-14875615D01*
X17936146Y-14875615D02*
X17945670Y-14856567D01*
X17945670Y-14856567D02*
X17955194Y-14847043D01*
X17955194Y-14847043D02*
X17974241Y-14837519D01*
X17974241Y-14837519D02*
X18012336Y-14837519D01*
X18012336Y-14837519D02*
X18031384Y-14847043D01*
X18107575Y-15047043D02*
X18117098Y-15037519D01*
X18117098Y-15037519D02*
X18136146Y-15008948D01*
X18136146Y-15008948D02*
X18145670Y-14989900D01*
X18145670Y-14989900D02*
X18155194Y-14961329D01*
X18155194Y-14961329D02*
X18164717Y-14913710D01*
X18164717Y-14913710D02*
X18164717Y-14875615D01*
X18164717Y-14875615D02*
X18155194Y-14827995D01*
X18155194Y-14827995D02*
X18145670Y-14799424D01*
X18145670Y-14799424D02*
X18136146Y-14780376D01*
X18136146Y-14780376D02*
X18117098Y-14751805D01*
X18117098Y-14751805D02*
X18107575Y-14742281D01*
X11351559Y-15143369D02*
G75*
G02*
X11151559Y-15143369I-100000J0D01*
G01*
X11151559Y-15143369D02*
G75*
G02*
X11351559Y-15143369I100000J0D01*
G01*
X11593288Y-15034853D02*
X11717098Y-15034853D01*
X11717098Y-15034853D02*
X11650431Y-15111043D01*
X11650431Y-15111043D02*
X11679002Y-15111043D01*
X11679002Y-15111043D02*
X11698050Y-15120567D01*
X11698050Y-15120567D02*
X11707574Y-15130091D01*
X11707574Y-15130091D02*
X11717098Y-15149138D01*
X11717098Y-15149138D02*
X11717098Y-15196757D01*
X11717098Y-15196757D02*
X11707574Y-15215805D01*
X11707574Y-15215805D02*
X11698050Y-15225329D01*
X11698050Y-15225329D02*
X11679002Y-15234853D01*
X11679002Y-15234853D02*
X11621860Y-15234853D01*
X11621860Y-15234853D02*
X11602812Y-15225329D01*
X11602812Y-15225329D02*
X11593288Y-15215805D01*
X11802812Y-15215805D02*
X11812336Y-15225329D01*
X11812336Y-15225329D02*
X11802812Y-15234853D01*
X11802812Y-15234853D02*
X11793288Y-15225329D01*
X11793288Y-15225329D02*
X11802812Y-15215805D01*
X11802812Y-15215805D02*
X11802812Y-15234853D01*
X11888526Y-15053900D02*
X11898050Y-15044376D01*
X11898050Y-15044376D02*
X11917098Y-15034853D01*
X11917098Y-15034853D02*
X11964717Y-15034853D01*
X11964717Y-15034853D02*
X11983764Y-15044376D01*
X11983764Y-15044376D02*
X11993288Y-15053900D01*
X11993288Y-15053900D02*
X12002812Y-15072948D01*
X12002812Y-15072948D02*
X12002812Y-15091995D01*
X12002812Y-15091995D02*
X11993288Y-15120567D01*
X11993288Y-15120567D02*
X11879002Y-15234853D01*
X11879002Y-15234853D02*
X12002812Y-15234853D01*
X12126621Y-15034853D02*
X12145669Y-15034853D01*
X12145669Y-15034853D02*
X12164717Y-15044376D01*
X12164717Y-15044376D02*
X12174241Y-15053900D01*
X12174241Y-15053900D02*
X12183764Y-15072948D01*
X12183764Y-15072948D02*
X12193288Y-15111043D01*
X12193288Y-15111043D02*
X12193288Y-15158662D01*
X12193288Y-15158662D02*
X12183764Y-15196757D01*
X12183764Y-15196757D02*
X12174241Y-15215805D01*
X12174241Y-15215805D02*
X12164717Y-15225329D01*
X12164717Y-15225329D02*
X12145669Y-15234853D01*
X12145669Y-15234853D02*
X12126621Y-15234853D01*
X12126621Y-15234853D02*
X12107574Y-15225329D01*
X12107574Y-15225329D02*
X12098050Y-15215805D01*
X12098050Y-15215805D02*
X12088526Y-15196757D01*
X12088526Y-15196757D02*
X12079002Y-15158662D01*
X12079002Y-15158662D02*
X12079002Y-15111043D01*
X12079002Y-15111043D02*
X12088526Y-15072948D01*
X12088526Y-15072948D02*
X12098050Y-15053900D01*
X12098050Y-15053900D02*
X12107574Y-15044376D01*
X12107574Y-15044376D02*
X12126621Y-15034853D01*
X12317098Y-15034853D02*
X12336145Y-15034853D01*
X12336145Y-15034853D02*
X12355193Y-15044376D01*
X12355193Y-15044376D02*
X12364717Y-15053900D01*
X12364717Y-15053900D02*
X12374241Y-15072948D01*
X12374241Y-15072948D02*
X12383764Y-15111043D01*
X12383764Y-15111043D02*
X12383764Y-15158662D01*
X12383764Y-15158662D02*
X12374241Y-15196757D01*
X12374241Y-15196757D02*
X12364717Y-15215805D01*
X12364717Y-15215805D02*
X12355193Y-15225329D01*
X12355193Y-15225329D02*
X12336145Y-15234853D01*
X12336145Y-15234853D02*
X12317098Y-15234853D01*
X12317098Y-15234853D02*
X12298050Y-15225329D01*
X12298050Y-15225329D02*
X12288526Y-15215805D01*
X12288526Y-15215805D02*
X12279002Y-15196757D01*
X12279002Y-15196757D02*
X12269479Y-15158662D01*
X12269479Y-15158662D02*
X12269479Y-15111043D01*
X12269479Y-15111043D02*
X12279002Y-15072948D01*
X12279002Y-15072948D02*
X12288526Y-15053900D01*
X12288526Y-15053900D02*
X12298050Y-15044376D01*
X12298050Y-15044376D02*
X12317098Y-15034853D01*
X12469479Y-15234853D02*
X12469479Y-15101519D01*
X12469479Y-15120567D02*
X12479002Y-15111043D01*
X12479002Y-15111043D02*
X12498050Y-15101519D01*
X12498050Y-15101519D02*
X12526622Y-15101519D01*
X12526622Y-15101519D02*
X12545669Y-15111043D01*
X12545669Y-15111043D02*
X12555193Y-15130091D01*
X12555193Y-15130091D02*
X12555193Y-15234853D01*
X12555193Y-15130091D02*
X12564717Y-15111043D01*
X12564717Y-15111043D02*
X12583764Y-15101519D01*
X12583764Y-15101519D02*
X12612336Y-15101519D01*
X12612336Y-15101519D02*
X12631383Y-15111043D01*
X12631383Y-15111043D02*
X12640907Y-15130091D01*
X12640907Y-15130091D02*
X12640907Y-15234853D01*
X12736145Y-15234853D02*
X12736145Y-15101519D01*
X12736145Y-15120567D02*
X12745669Y-15111043D01*
X12745669Y-15111043D02*
X12764717Y-15101519D01*
X12764717Y-15101519D02*
X12793288Y-15101519D01*
X12793288Y-15101519D02*
X12812336Y-15111043D01*
X12812336Y-15111043D02*
X12821860Y-15130091D01*
X12821860Y-15130091D02*
X12821860Y-15234853D01*
X12821860Y-15130091D02*
X12831383Y-15111043D01*
X12831383Y-15111043D02*
X12850431Y-15101519D01*
X12850431Y-15101519D02*
X12879002Y-15101519D01*
X12879002Y-15101519D02*
X12898050Y-15111043D01*
X12898050Y-15111043D02*
X12907574Y-15130091D01*
X12907574Y-15130091D02*
X12907574Y-15234853D01*
X13298050Y-15025329D02*
X13126622Y-15282472D01*
X13555193Y-15034853D02*
X13574241Y-15034853D01*
X13574241Y-15034853D02*
X13593288Y-15044376D01*
X13593288Y-15044376D02*
X13602812Y-15053900D01*
X13602812Y-15053900D02*
X13612336Y-15072948D01*
X13612336Y-15072948D02*
X13621860Y-15111043D01*
X13621860Y-15111043D02*
X13621860Y-15158662D01*
X13621860Y-15158662D02*
X13612336Y-15196757D01*
X13612336Y-15196757D02*
X13602812Y-15215805D01*
X13602812Y-15215805D02*
X13593288Y-15225329D01*
X13593288Y-15225329D02*
X13574241Y-15234853D01*
X13574241Y-15234853D02*
X13555193Y-15234853D01*
X13555193Y-15234853D02*
X13536145Y-15225329D01*
X13536145Y-15225329D02*
X13526622Y-15215805D01*
X13526622Y-15215805D02*
X13517098Y-15196757D01*
X13517098Y-15196757D02*
X13507574Y-15158662D01*
X13507574Y-15158662D02*
X13507574Y-15111043D01*
X13507574Y-15111043D02*
X13517098Y-15072948D01*
X13517098Y-15072948D02*
X13526622Y-15053900D01*
X13526622Y-15053900D02*
X13536145Y-15044376D01*
X13536145Y-15044376D02*
X13555193Y-15034853D01*
X13707574Y-15215805D02*
X13717098Y-15225329D01*
X13717098Y-15225329D02*
X13707574Y-15234853D01*
X13707574Y-15234853D02*
X13698050Y-15225329D01*
X13698050Y-15225329D02*
X13707574Y-15215805D01*
X13707574Y-15215805D02*
X13707574Y-15234853D01*
X13907574Y-15234853D02*
X13793288Y-15234853D01*
X13850431Y-15234853D02*
X13850431Y-15034853D01*
X13850431Y-15034853D02*
X13831384Y-15063424D01*
X13831384Y-15063424D02*
X13812336Y-15082472D01*
X13812336Y-15082472D02*
X13793288Y-15091995D01*
X13983765Y-15053900D02*
X13993288Y-15044376D01*
X13993288Y-15044376D02*
X14012336Y-15034853D01*
X14012336Y-15034853D02*
X14059955Y-15034853D01*
X14059955Y-15034853D02*
X14079003Y-15044376D01*
X14079003Y-15044376D02*
X14088526Y-15053900D01*
X14088526Y-15053900D02*
X14098050Y-15072948D01*
X14098050Y-15072948D02*
X14098050Y-15091995D01*
X14098050Y-15091995D02*
X14088526Y-15120567D01*
X14088526Y-15120567D02*
X13974241Y-15234853D01*
X13974241Y-15234853D02*
X14098050Y-15234853D01*
X14269479Y-15034853D02*
X14231384Y-15034853D01*
X14231384Y-15034853D02*
X14212336Y-15044376D01*
X14212336Y-15044376D02*
X14202812Y-15053900D01*
X14202812Y-15053900D02*
X14183765Y-15082472D01*
X14183765Y-15082472D02*
X14174241Y-15120567D01*
X14174241Y-15120567D02*
X14174241Y-15196757D01*
X14174241Y-15196757D02*
X14183765Y-15215805D01*
X14183765Y-15215805D02*
X14193288Y-15225329D01*
X14193288Y-15225329D02*
X14212336Y-15234853D01*
X14212336Y-15234853D02*
X14250431Y-15234853D01*
X14250431Y-15234853D02*
X14269479Y-15225329D01*
X14269479Y-15225329D02*
X14279003Y-15215805D01*
X14279003Y-15215805D02*
X14288526Y-15196757D01*
X14288526Y-15196757D02*
X14288526Y-15149138D01*
X14288526Y-15149138D02*
X14279003Y-15130091D01*
X14279003Y-15130091D02*
X14269479Y-15120567D01*
X14269479Y-15120567D02*
X14250431Y-15111043D01*
X14250431Y-15111043D02*
X14212336Y-15111043D01*
X14212336Y-15111043D02*
X14193288Y-15120567D01*
X14193288Y-15120567D02*
X14183765Y-15130091D01*
X14183765Y-15130091D02*
X14174241Y-15149138D01*
X14412336Y-15034853D02*
X14431384Y-15034853D01*
X14431384Y-15034853D02*
X14450431Y-15044376D01*
X14450431Y-15044376D02*
X14459955Y-15053900D01*
X14459955Y-15053900D02*
X14469479Y-15072948D01*
X14469479Y-15072948D02*
X14479003Y-15111043D01*
X14479003Y-15111043D02*
X14479003Y-15158662D01*
X14479003Y-15158662D02*
X14469479Y-15196757D01*
X14469479Y-15196757D02*
X14459955Y-15215805D01*
X14459955Y-15215805D02*
X14450431Y-15225329D01*
X14450431Y-15225329D02*
X14431384Y-15234853D01*
X14431384Y-15234853D02*
X14412336Y-15234853D01*
X14412336Y-15234853D02*
X14393288Y-15225329D01*
X14393288Y-15225329D02*
X14383765Y-15215805D01*
X14383765Y-15215805D02*
X14374241Y-15196757D01*
X14374241Y-15196757D02*
X14364717Y-15158662D01*
X14364717Y-15158662D02*
X14364717Y-15111043D01*
X14364717Y-15111043D02*
X14374241Y-15072948D01*
X14374241Y-15072948D02*
X14383765Y-15053900D01*
X14383765Y-15053900D02*
X14393288Y-15044376D01*
X14393288Y-15044376D02*
X14412336Y-15034853D01*
X14555193Y-15034853D02*
X14555193Y-15072948D01*
X14631384Y-15034853D02*
X14631384Y-15072948D01*
X14926622Y-15311043D02*
X14917098Y-15301519D01*
X14917098Y-15301519D02*
X14898050Y-15272948D01*
X14898050Y-15272948D02*
X14888527Y-15253900D01*
X14888527Y-15253900D02*
X14879003Y-15225329D01*
X14879003Y-15225329D02*
X14869479Y-15177710D01*
X14869479Y-15177710D02*
X14869479Y-15139615D01*
X14869479Y-15139615D02*
X14879003Y-15091995D01*
X14879003Y-15091995D02*
X14888527Y-15063424D01*
X14888527Y-15063424D02*
X14898050Y-15044376D01*
X14898050Y-15044376D02*
X14917098Y-15015805D01*
X14917098Y-15015805D02*
X14926622Y-15006281D01*
X15088527Y-15101519D02*
X15088527Y-15234853D01*
X15040907Y-15025329D02*
X14993288Y-15168186D01*
X14993288Y-15168186D02*
X15117098Y-15168186D01*
X15345669Y-15234853D02*
X15345669Y-15034853D01*
X15431384Y-15234853D02*
X15431384Y-15130091D01*
X15431384Y-15130091D02*
X15421860Y-15111043D01*
X15421860Y-15111043D02*
X15402812Y-15101519D01*
X15402812Y-15101519D02*
X15374241Y-15101519D01*
X15374241Y-15101519D02*
X15355193Y-15111043D01*
X15355193Y-15111043D02*
X15345669Y-15120567D01*
X15555193Y-15234853D02*
X15536146Y-15225329D01*
X15536146Y-15225329D02*
X15526622Y-15215805D01*
X15526622Y-15215805D02*
X15517098Y-15196757D01*
X15517098Y-15196757D02*
X15517098Y-15139615D01*
X15517098Y-15139615D02*
X15526622Y-15120567D01*
X15526622Y-15120567D02*
X15536146Y-15111043D01*
X15536146Y-15111043D02*
X15555193Y-15101519D01*
X15555193Y-15101519D02*
X15583765Y-15101519D01*
X15583765Y-15101519D02*
X15602812Y-15111043D01*
X15602812Y-15111043D02*
X15612336Y-15120567D01*
X15612336Y-15120567D02*
X15621860Y-15139615D01*
X15621860Y-15139615D02*
X15621860Y-15196757D01*
X15621860Y-15196757D02*
X15612336Y-15215805D01*
X15612336Y-15215805D02*
X15602812Y-15225329D01*
X15602812Y-15225329D02*
X15583765Y-15234853D01*
X15583765Y-15234853D02*
X15555193Y-15234853D01*
X15736146Y-15234853D02*
X15717098Y-15225329D01*
X15717098Y-15225329D02*
X15707574Y-15206281D01*
X15707574Y-15206281D02*
X15707574Y-15034853D01*
X15888527Y-15225329D02*
X15869479Y-15234853D01*
X15869479Y-15234853D02*
X15831384Y-15234853D01*
X15831384Y-15234853D02*
X15812336Y-15225329D01*
X15812336Y-15225329D02*
X15802812Y-15206281D01*
X15802812Y-15206281D02*
X15802812Y-15130091D01*
X15802812Y-15130091D02*
X15812336Y-15111043D01*
X15812336Y-15111043D02*
X15831384Y-15101519D01*
X15831384Y-15101519D02*
X15869479Y-15101519D01*
X15869479Y-15101519D02*
X15888527Y-15111043D01*
X15888527Y-15111043D02*
X15898050Y-15130091D01*
X15898050Y-15130091D02*
X15898050Y-15149138D01*
X15898050Y-15149138D02*
X15802812Y-15168186D01*
X15974241Y-15225329D02*
X15993289Y-15234853D01*
X15993289Y-15234853D02*
X16031384Y-15234853D01*
X16031384Y-15234853D02*
X16050431Y-15225329D01*
X16050431Y-15225329D02*
X16059955Y-15206281D01*
X16059955Y-15206281D02*
X16059955Y-15196757D01*
X16059955Y-15196757D02*
X16050431Y-15177710D01*
X16050431Y-15177710D02*
X16031384Y-15168186D01*
X16031384Y-15168186D02*
X16002812Y-15168186D01*
X16002812Y-15168186D02*
X15983765Y-15158662D01*
X15983765Y-15158662D02*
X15974241Y-15139615D01*
X15974241Y-15139615D02*
X15974241Y-15130091D01*
X15974241Y-15130091D02*
X15983765Y-15111043D01*
X15983765Y-15111043D02*
X16002812Y-15101519D01*
X16002812Y-15101519D02*
X16031384Y-15101519D01*
X16031384Y-15101519D02*
X16050431Y-15111043D01*
X16126622Y-15311043D02*
X16136146Y-15301519D01*
X16136146Y-15301519D02*
X16155193Y-15272948D01*
X16155193Y-15272948D02*
X16164717Y-15253900D01*
X16164717Y-15253900D02*
X16174241Y-15225329D01*
X16174241Y-15225329D02*
X16183765Y-15177710D01*
X16183765Y-15177710D02*
X16183765Y-15139615D01*
X16183765Y-15139615D02*
X16174241Y-15091995D01*
X16174241Y-15091995D02*
X16164717Y-15063424D01*
X16164717Y-15063424D02*
X16155193Y-15044376D01*
X16155193Y-15044376D02*
X16136146Y-15015805D01*
X16136146Y-15015805D02*
X16126622Y-15006281D01*
X16488527Y-15311043D02*
X16479003Y-15301519D01*
X16479003Y-15301519D02*
X16459955Y-15272948D01*
X16459955Y-15272948D02*
X16450431Y-15253900D01*
X16450431Y-15253900D02*
X16440908Y-15225329D01*
X16440908Y-15225329D02*
X16431384Y-15177710D01*
X16431384Y-15177710D02*
X16431384Y-15139615D01*
X16431384Y-15139615D02*
X16440908Y-15091995D01*
X16440908Y-15091995D02*
X16450431Y-15063424D01*
X16450431Y-15063424D02*
X16459955Y-15044376D01*
X16459955Y-15044376D02*
X16479003Y-15015805D01*
X16479003Y-15015805D02*
X16488527Y-15006281D01*
X16564717Y-15101519D02*
X16564717Y-15234853D01*
X16564717Y-15120567D02*
X16574241Y-15111043D01*
X16574241Y-15111043D02*
X16593289Y-15101519D01*
X16593289Y-15101519D02*
X16621860Y-15101519D01*
X16621860Y-15101519D02*
X16640908Y-15111043D01*
X16640908Y-15111043D02*
X16650431Y-15130091D01*
X16650431Y-15130091D02*
X16650431Y-15234853D01*
X16774241Y-15234853D02*
X16755193Y-15225329D01*
X16755193Y-15225329D02*
X16745670Y-15215805D01*
X16745670Y-15215805D02*
X16736146Y-15196757D01*
X16736146Y-15196757D02*
X16736146Y-15139615D01*
X16736146Y-15139615D02*
X16745670Y-15120567D01*
X16745670Y-15120567D02*
X16755193Y-15111043D01*
X16755193Y-15111043D02*
X16774241Y-15101519D01*
X16774241Y-15101519D02*
X16802813Y-15101519D01*
X16802813Y-15101519D02*
X16821860Y-15111043D01*
X16821860Y-15111043D02*
X16831384Y-15120567D01*
X16831384Y-15120567D02*
X16840908Y-15139615D01*
X16840908Y-15139615D02*
X16840908Y-15196757D01*
X16840908Y-15196757D02*
X16831384Y-15215805D01*
X16831384Y-15215805D02*
X16821860Y-15225329D01*
X16821860Y-15225329D02*
X16802813Y-15234853D01*
X16802813Y-15234853D02*
X16774241Y-15234853D01*
X16898051Y-15101519D02*
X16974241Y-15101519D01*
X16926622Y-15034853D02*
X16926622Y-15206281D01*
X16926622Y-15206281D02*
X16936146Y-15225329D01*
X16936146Y-15225329D02*
X16955193Y-15234853D01*
X16955193Y-15234853D02*
X16974241Y-15234853D01*
X17193289Y-15101519D02*
X17193289Y-15301519D01*
X17193289Y-15111043D02*
X17212336Y-15101519D01*
X17212336Y-15101519D02*
X17250432Y-15101519D01*
X17250432Y-15101519D02*
X17269479Y-15111043D01*
X17269479Y-15111043D02*
X17279003Y-15120567D01*
X17279003Y-15120567D02*
X17288527Y-15139615D01*
X17288527Y-15139615D02*
X17288527Y-15196757D01*
X17288527Y-15196757D02*
X17279003Y-15215805D01*
X17279003Y-15215805D02*
X17269479Y-15225329D01*
X17269479Y-15225329D02*
X17250432Y-15234853D01*
X17250432Y-15234853D02*
X17212336Y-15234853D01*
X17212336Y-15234853D02*
X17193289Y-15225329D01*
X17402813Y-15234853D02*
X17383765Y-15225329D01*
X17383765Y-15225329D02*
X17374241Y-15206281D01*
X17374241Y-15206281D02*
X17374241Y-15034853D01*
X17564717Y-15234853D02*
X17564717Y-15130091D01*
X17564717Y-15130091D02*
X17555194Y-15111043D01*
X17555194Y-15111043D02*
X17536146Y-15101519D01*
X17536146Y-15101519D02*
X17498051Y-15101519D01*
X17498051Y-15101519D02*
X17479003Y-15111043D01*
X17564717Y-15225329D02*
X17545670Y-15234853D01*
X17545670Y-15234853D02*
X17498051Y-15234853D01*
X17498051Y-15234853D02*
X17479003Y-15225329D01*
X17479003Y-15225329D02*
X17469479Y-15206281D01*
X17469479Y-15206281D02*
X17469479Y-15187234D01*
X17469479Y-15187234D02*
X17479003Y-15168186D01*
X17479003Y-15168186D02*
X17498051Y-15158662D01*
X17498051Y-15158662D02*
X17545670Y-15158662D01*
X17545670Y-15158662D02*
X17564717Y-15149138D01*
X17631384Y-15101519D02*
X17707574Y-15101519D01*
X17659955Y-15034853D02*
X17659955Y-15206281D01*
X17659955Y-15206281D02*
X17669479Y-15225329D01*
X17669479Y-15225329D02*
X17688527Y-15234853D01*
X17688527Y-15234853D02*
X17707574Y-15234853D01*
X17850432Y-15225329D02*
X17831384Y-15234853D01*
X17831384Y-15234853D02*
X17793289Y-15234853D01*
X17793289Y-15234853D02*
X17774241Y-15225329D01*
X17774241Y-15225329D02*
X17764717Y-15206281D01*
X17764717Y-15206281D02*
X17764717Y-15130091D01*
X17764717Y-15130091D02*
X17774241Y-15111043D01*
X17774241Y-15111043D02*
X17793289Y-15101519D01*
X17793289Y-15101519D02*
X17831384Y-15101519D01*
X17831384Y-15101519D02*
X17850432Y-15111043D01*
X17850432Y-15111043D02*
X17859955Y-15130091D01*
X17859955Y-15130091D02*
X17859955Y-15149138D01*
X17859955Y-15149138D02*
X17764717Y-15168186D01*
X18031384Y-15234853D02*
X18031384Y-15034853D01*
X18031384Y-15225329D02*
X18012336Y-15234853D01*
X18012336Y-15234853D02*
X17974241Y-15234853D01*
X17974241Y-15234853D02*
X17955194Y-15225329D01*
X17955194Y-15225329D02*
X17945670Y-15215805D01*
X17945670Y-15215805D02*
X17936146Y-15196757D01*
X17936146Y-15196757D02*
X17936146Y-15139615D01*
X17936146Y-15139615D02*
X17945670Y-15120567D01*
X17945670Y-15120567D02*
X17955194Y-15111043D01*
X17955194Y-15111043D02*
X17974241Y-15101519D01*
X17974241Y-15101519D02*
X18012336Y-15101519D01*
X18012336Y-15101519D02*
X18031384Y-15111043D01*
X18107575Y-15311043D02*
X18117098Y-15301519D01*
X18117098Y-15301519D02*
X18136146Y-15272948D01*
X18136146Y-15272948D02*
X18145670Y-15253900D01*
X18145670Y-15253900D02*
X18155194Y-15225329D01*
X18155194Y-15225329D02*
X18164717Y-15177710D01*
X18164717Y-15177710D02*
X18164717Y-15139615D01*
X18164717Y-15139615D02*
X18155194Y-15091995D01*
X18155194Y-15091995D02*
X18145670Y-15063424D01*
X18145670Y-15063424D02*
X18136146Y-15044376D01*
X18136146Y-15044376D02*
X18117098Y-15015805D01*
X18117098Y-15015805D02*
X18107575Y-15006281D01*
M02*
