%TF.GenerationSoftware,KiCad,Pcbnew,9.0.2*%
%TF.CreationDate,2025-08-29T22:08:23+05:30*%
%TF.ProjectId,4 SRA,34205352-412e-46b6-9963-61645f706362,rev?*%
%TF.SameCoordinates,Original*%
%TF.FileFunction,Paste,Top*%
%TF.FilePolarity,Positive*%
%FSLAX46Y46*%
G04 Gerber Fmt 4.6, Leading zero omitted, Abs format (unit mm)*
G04 Created by KiCad (PCBNEW 9.0.2) date 2025-08-29 22:08:23*
%MOMM*%
%LPD*%
G01*
G04 APERTURE LIST*
G04 Aperture macros list*
%AMRoundRect*
0 Rectangle with rounded corners*
0 $1 Rounding radius*
0 $2 $3 $4 $5 $6 $7 $8 $9 X,Y pos of 4 corners*
0 Add a 4 corners polygon primitive as box body*
4,1,4,$2,$3,$4,$5,$6,$7,$8,$9,$2,$3,0*
0 Add four circle primitives for the rounded corners*
1,1,$1+$1,$2,$3*
1,1,$1+$1,$4,$5*
1,1,$1+$1,$6,$7*
1,1,$1+$1,$8,$9*
0 Add four rect primitives between the rounded corners*
20,1,$1+$1,$2,$3,$4,$5,0*
20,1,$1+$1,$4,$5,$6,$7,0*
20,1,$1+$1,$6,$7,$8,$9,0*
20,1,$1+$1,$8,$9,$2,$3,0*%
G04 Aperture macros list end*
%ADD10RoundRect,0.250000X-0.350000X-0.450000X0.350000X-0.450000X0.350000X0.450000X-0.350000X0.450000X0*%
%ADD11RoundRect,0.250000X-0.450000X0.350000X-0.450000X-0.350000X0.450000X-0.350000X0.450000X0.350000X0*%
%ADD12RoundRect,0.250000X0.337500X0.475000X-0.337500X0.475000X-0.337500X-0.475000X0.337500X-0.475000X0*%
%ADD13RoundRect,0.250000X0.325000X0.450000X-0.325000X0.450000X-0.325000X-0.450000X0.325000X-0.450000X0*%
%ADD14RoundRect,0.250000X0.475000X-0.337500X0.475000X0.337500X-0.475000X0.337500X-0.475000X-0.337500X0*%
%ADD15RoundRect,0.250000X-0.337500X-0.475000X0.337500X-0.475000X0.337500X0.475000X-0.337500X0.475000X0*%
%ADD16RoundRect,0.200000X-0.200000X-0.800000X0.200000X-0.800000X0.200000X0.800000X-0.200000X0.800000X0*%
%ADD17RoundRect,0.250000X0.350000X0.450000X-0.350000X0.450000X-0.350000X-0.450000X0.350000X-0.450000X0*%
%ADD18RoundRect,0.250000X-0.475000X0.337500X-0.475000X-0.337500X0.475000X-0.337500X0.475000X0.337500X0*%
%ADD19RoundRect,0.250000X0.450000X-0.325000X0.450000X0.325000X-0.450000X0.325000X-0.450000X-0.325000X0*%
%ADD20RoundRect,0.250000X0.450000X-0.350000X0.450000X0.350000X-0.450000X0.350000X-0.450000X-0.350000X0*%
%ADD21RoundRect,0.225000X0.225000X-0.225000X0.225000X0.225000X-0.225000X0.225000X-0.225000X-0.225000X0*%
%ADD22RoundRect,0.062500X0.062500X-0.337500X0.062500X0.337500X-0.062500X0.337500X-0.062500X-0.337500X0*%
%ADD23RoundRect,0.062500X0.337500X-0.062500X0.337500X0.062500X-0.337500X0.062500X-0.337500X-0.062500X0*%
%ADD24RoundRect,0.150000X-0.150000X0.587500X-0.150000X-0.587500X0.150000X-0.587500X0.150000X0.587500X0*%
%ADD25RoundRect,0.250000X-0.325000X-0.450000X0.325000X-0.450000X0.325000X0.450000X-0.325000X0.450000X0*%
%ADD26RoundRect,0.250000X0.450000X-0.262500X0.450000X0.262500X-0.450000X0.262500X-0.450000X-0.262500X0*%
%ADD27RoundRect,0.175000X0.325000X-0.175000X0.325000X0.175000X-0.325000X0.175000X-0.325000X-0.175000X0*%
%ADD28RoundRect,0.150000X0.150000X-0.200000X0.150000X0.200000X-0.150000X0.200000X-0.150000X-0.200000X0*%
%ADD29R,1.500000X0.900000*%
%ADD30R,0.900000X1.500000*%
%ADD31R,0.900000X0.900000*%
%ADD32RoundRect,0.200000X0.250000X0.200000X-0.250000X0.200000X-0.250000X-0.200000X0.250000X-0.200000X0*%
%ADD33R,0.600000X1.450000*%
%ADD34R,0.300000X1.450000*%
%ADD35RoundRect,0.250000X-0.350000X0.275000X-0.350000X-0.275000X0.350000X-0.275000X0.350000X0.275000X0*%
%ADD36RoundRect,0.075000X-0.415425X-0.521491X0.521491X0.415425X0.415425X0.521491X-0.521491X-0.415425X0*%
%ADD37RoundRect,0.075000X0.415425X-0.521491X0.521491X-0.415425X-0.415425X0.521491X-0.521491X0.415425X0*%
%ADD38RoundRect,0.375000X-0.625000X-0.375000X0.625000X-0.375000X0.625000X0.375000X-0.625000X0.375000X0*%
%ADD39RoundRect,0.500000X-0.500000X-1.400000X0.500000X-1.400000X0.500000X1.400000X-0.500000X1.400000X0*%
G04 APERTURE END LIST*
D10*
%TO.C,R18*%
X164001630Y-127206000D03*
X166001630Y-127206000D03*
%TD*%
D11*
%TO.C,R12*%
X178275000Y-81475000D03*
X178275000Y-83475000D03*
%TD*%
D12*
%TO.C,C7*%
X132250000Y-84250000D03*
X130175000Y-84250000D03*
%TD*%
D13*
%TO.C,D1*%
X127175000Y-81550000D03*
X125125000Y-81550000D03*
%TD*%
D14*
%TO.C,C11*%
X138857500Y-124367500D03*
X138857500Y-122292500D03*
%TD*%
D10*
%TO.C,R6*%
X147207500Y-97130000D03*
X149207500Y-97130000D03*
%TD*%
D15*
%TO.C,C1*%
X176337500Y-93175000D03*
X178412500Y-93175000D03*
%TD*%
D16*
%TO.C,SW4*%
X137757500Y-130930000D03*
X141957500Y-130930000D03*
%TD*%
D12*
%TO.C,C10*%
X140945000Y-127630000D03*
X138870000Y-127630000D03*
%TD*%
D17*
%TO.C,R1*%
X178405000Y-86055000D03*
X176405000Y-86055000D03*
%TD*%
D18*
%TO.C,C13*%
X158407500Y-122167500D03*
X158407500Y-124242500D03*
%TD*%
D15*
%TO.C,C2*%
X176337500Y-89600000D03*
X178412500Y-89600000D03*
%TD*%
D19*
%TO.C,D6*%
X173925000Y-79200000D03*
X173925000Y-77150000D03*
%TD*%
D20*
%TO.C,R5*%
X169600000Y-83475000D03*
X169600000Y-81475000D03*
%TD*%
D14*
%TO.C,C19*%
X161100000Y-129062500D03*
X161100000Y-126987500D03*
%TD*%
%TO.C,C14*%
X141682500Y-124317500D03*
X141682500Y-122242500D03*
%TD*%
D21*
%TO.C,U1*%
X170455000Y-89470000D03*
X171575000Y-89470000D03*
X172695000Y-89470000D03*
X170455000Y-88350000D03*
X171575000Y-88350000D03*
X172695000Y-88350000D03*
X170455000Y-87230000D03*
X171575000Y-87230000D03*
X172695000Y-87230000D03*
D22*
X170075000Y-90800000D03*
X170575000Y-90800000D03*
X171075000Y-90800000D03*
X171575000Y-90800000D03*
X172075000Y-90800000D03*
X172575000Y-90800000D03*
X173075000Y-90800000D03*
D23*
X174025000Y-89850000D03*
X174025000Y-89350000D03*
X174025000Y-88850000D03*
X174025000Y-88350000D03*
X174025000Y-87850000D03*
X174025000Y-87350000D03*
X174025000Y-86850000D03*
D22*
X173075000Y-85900000D03*
X172575000Y-85900000D03*
X172075000Y-85900000D03*
X171575000Y-85900000D03*
X171075000Y-85900000D03*
X170575000Y-85900000D03*
X170075000Y-85900000D03*
D23*
X169125000Y-86850000D03*
X169125000Y-87350000D03*
X169125000Y-87850000D03*
X169125000Y-88350000D03*
X169125000Y-88850000D03*
X169125000Y-89350000D03*
X169125000Y-89850000D03*
%TD*%
D12*
%TO.C,C8*%
X132250000Y-81550000D03*
X130175000Y-81550000D03*
%TD*%
D24*
%TO.C,Q1*%
X149070000Y-99967500D03*
X147170000Y-99967500D03*
X148120000Y-101842500D03*
%TD*%
D14*
%TO.C,C6*%
X125300000Y-79117500D03*
X125300000Y-77042500D03*
%TD*%
D10*
%TO.C,R10*%
X125000000Y-97125000D03*
X127000000Y-97125000D03*
%TD*%
D25*
%TO.C,D4*%
X137175000Y-134975000D03*
X139225000Y-134975000D03*
%TD*%
D10*
%TO.C,R14*%
X168599130Y-124881000D03*
X170599130Y-124881002D03*
%TD*%
D11*
%TO.C,R4*%
X169575000Y-77197500D03*
X169575000Y-79197500D03*
%TD*%
D26*
%TO.C,R17*%
X158075000Y-135825000D03*
X158075000Y-134000000D03*
%TD*%
D25*
%TO.C,D8*%
X163999131Y-129731001D03*
X166049129Y-129730999D03*
%TD*%
D10*
%TO.C,R20*%
X168599130Y-129731001D03*
X170599130Y-129731001D03*
%TD*%
D27*
%TO.C,D13*%
X141737500Y-135950000D03*
D28*
X143437500Y-135950000D03*
X143437500Y-133950000D03*
X141537500Y-133950000D03*
%TD*%
D19*
%TO.C,D7*%
X173937500Y-83477500D03*
X173937500Y-81427500D03*
%TD*%
D17*
%TO.C,R2*%
X127050000Y-94500000D03*
X125050000Y-94500000D03*
%TD*%
D26*
%TO.C,R16*%
X160800000Y-135825000D03*
X160800000Y-134000000D03*
%TD*%
D18*
%TO.C,C16*%
X161057500Y-122180000D03*
X161057500Y-124255000D03*
%TD*%
D29*
%TO.C,U4*%
X141150000Y-72820000D03*
X141150000Y-74090000D03*
X141150000Y-75360000D03*
X141150000Y-76630000D03*
X141150000Y-77900000D03*
X141150000Y-79170000D03*
X141150000Y-80440000D03*
X141150000Y-81710000D03*
X141150000Y-82980000D03*
X141150000Y-84250000D03*
X141150000Y-85520000D03*
X141150000Y-86790000D03*
X141150000Y-88060000D03*
X141150000Y-89330000D03*
D30*
X144190000Y-90580000D03*
X145460000Y-90580000D03*
X146730000Y-90580000D03*
X148000000Y-90580000D03*
X149270000Y-90580000D03*
X150540000Y-90580000D03*
X151810000Y-90580000D03*
X153080000Y-90580000D03*
X154350000Y-90580000D03*
X155620000Y-90580000D03*
D29*
X158650000Y-89330000D03*
X158650000Y-88060000D03*
X158650000Y-86790000D03*
X158650000Y-85520000D03*
X158650000Y-84250000D03*
X158650000Y-82980000D03*
X158650000Y-81710000D03*
X158650000Y-80440000D03*
X158650000Y-79170000D03*
X158650000Y-77900000D03*
X158650000Y-76630000D03*
X158650000Y-75360000D03*
X158650000Y-74090000D03*
X158650000Y-72820000D03*
D31*
X147000000Y-79140000D03*
X147000000Y-80540000D03*
X147000000Y-81940000D03*
X148400000Y-79140000D03*
X148400000Y-80540000D03*
X148400000Y-81940000D03*
X149800000Y-79140000D03*
X149800000Y-80540000D03*
X149800000Y-81940000D03*
%TD*%
D10*
%TO.C,R19*%
X164001630Y-122306000D03*
X166001630Y-122306000D03*
%TD*%
D24*
%TO.C,Q2*%
X153270000Y-99967500D03*
X151370000Y-99967500D03*
X152320000Y-101842500D03*
%TD*%
D25*
%TO.C,D10*%
X168596630Y-127206001D03*
X170646630Y-127206001D03*
%TD*%
D16*
%TO.C,SW1*%
X128275000Y-77900000D03*
X132475000Y-77900000D03*
%TD*%
D32*
%TO.C,Y1*%
X134600000Y-129442500D03*
X133200000Y-129442500D03*
X133200000Y-130542500D03*
X134600000Y-130542500D03*
%TD*%
D15*
%TO.C,C15*%
X132962500Y-132892500D03*
X135037500Y-132892500D03*
%TD*%
D19*
%TO.C,D3*%
X133132500Y-124380000D03*
X133132500Y-122330000D03*
%TD*%
D17*
%TO.C,R13*%
X151280000Y-111130000D03*
X149280000Y-111130000D03*
%TD*%
%TO.C,R3*%
X171300000Y-93150000D03*
X169300000Y-93150000D03*
%TD*%
D33*
%TO.C,J2*%
X147500000Y-134065000D03*
X148300000Y-134065000D03*
D34*
X149500000Y-134065000D03*
X150500000Y-134065000D03*
X151000000Y-134065000D03*
X152000000Y-134065000D03*
D33*
X153200000Y-134065000D03*
X154000000Y-134065000D03*
X154000000Y-134065000D03*
X153200000Y-134065000D03*
D34*
X152500000Y-134065000D03*
X151500000Y-134065000D03*
X150000000Y-134065000D03*
X149000000Y-134065000D03*
D33*
X148300000Y-134065000D03*
X147500000Y-134065000D03*
%TD*%
D16*
%TO.C,SW2*%
X148145000Y-105330000D03*
X152345000Y-105330000D03*
%TD*%
D10*
%TO.C,R8*%
X151407500Y-97143095D03*
X153407500Y-97143095D03*
%TD*%
D35*
%TO.C,FB1*%
X158375000Y-126875000D03*
X158375000Y-129175000D03*
%TD*%
D15*
%TO.C,C3*%
X125135000Y-84250000D03*
X127210000Y-84250000D03*
%TD*%
D20*
%TO.C,R7*%
X135907500Y-124305000D03*
X135907500Y-122305000D03*
%TD*%
D12*
%TO.C,C12*%
X135000000Y-127042500D03*
X132925000Y-127042500D03*
%TD*%
%TO.C,C9*%
X151282500Y-108655000D03*
X149207500Y-108655000D03*
%TD*%
D15*
%TO.C,C4*%
X130200000Y-94500000D03*
X132275000Y-94500000D03*
%TD*%
D36*
%TO.C,U7*%
X145169624Y-124203788D03*
X145523178Y-124557342D03*
X145876731Y-124910895D03*
X146230285Y-125264449D03*
X146583838Y-125618002D03*
X146937391Y-125971555D03*
X147290945Y-126325109D03*
X147644498Y-126678662D03*
X147998051Y-127032215D03*
X148351605Y-127385769D03*
X148705158Y-127739322D03*
X149058712Y-128092876D03*
D37*
X151056288Y-128092876D03*
X151409842Y-127739322D03*
X151763395Y-127385769D03*
X152116949Y-127032215D03*
X152470502Y-126678662D03*
X152824055Y-126325109D03*
X153177609Y-125971555D03*
X153531162Y-125618002D03*
X153884715Y-125264449D03*
X154238269Y-124910895D03*
X154591822Y-124557342D03*
X154945376Y-124203788D03*
D36*
X154945376Y-122206212D03*
X154591822Y-121852658D03*
X154238269Y-121499105D03*
X153884715Y-121145551D03*
X153531162Y-120791998D03*
X153177609Y-120438445D03*
X152824055Y-120084891D03*
X152470502Y-119731338D03*
X152116949Y-119377785D03*
X151763395Y-119024231D03*
X151409842Y-118670678D03*
X151056288Y-118317124D03*
D37*
X149058712Y-118317124D03*
X148705158Y-118670678D03*
X148351605Y-119024231D03*
X147998051Y-119377785D03*
X147644498Y-119731338D03*
X147290945Y-120084891D03*
X146937391Y-120438445D03*
X146583838Y-120791998D03*
X146230285Y-121145551D03*
X145876731Y-121499105D03*
X145523178Y-121852658D03*
X145169624Y-122206212D03*
%TD*%
D38*
%TO.C,U2*%
X125550000Y-86950000D03*
X125550000Y-89250000D03*
D39*
X131850000Y-89250000D03*
D38*
X125550000Y-91550000D03*
%TD*%
D15*
%TO.C,C18*%
X153162500Y-130625000D03*
X155237500Y-130625000D03*
%TD*%
D11*
%TO.C,R11*%
X178275000Y-77197500D03*
X178275000Y-79197500D03*
%TD*%
D15*
%TO.C,C5*%
X130150000Y-97125000D03*
X132225000Y-97125000D03*
%TD*%
D25*
%TO.C,D9*%
X163999131Y-124881001D03*
X166049129Y-124880999D03*
%TD*%
%TO.C,D11*%
X168596629Y-122206001D03*
X170646631Y-122206001D03*
%TD*%
D12*
%TO.C,C17*%
X148312500Y-130625000D03*
X146237500Y-130625000D03*
%TD*%
M02*
