%TF.GenerationSoftware,KiCad,Pcbnew,9.0.2*%
%TF.CreationDate,2025-08-29T22:08:23+05:30*%
%TF.ProjectId,4 SRA,34205352-412e-46b6-9963-61645f706362,rev?*%
%TF.SameCoordinates,Original*%
%TF.FileFunction,Copper,L1,Top*%
%TF.FilePolarity,Positive*%
%FSLAX46Y46*%
G04 Gerber Fmt 4.6, Leading zero omitted, Abs format (unit mm)*
G04 Created by KiCad (PCBNEW 9.0.2) date 2025-08-29 22:08:23*
%MOMM*%
%LPD*%
G01*
G04 APERTURE LIST*
G04 Aperture macros list*
%AMRoundRect*
0 Rectangle with rounded corners*
0 $1 Rounding radius*
0 $2 $3 $4 $5 $6 $7 $8 $9 X,Y pos of 4 corners*
0 Add a 4 corners polygon primitive as box body*
4,1,4,$2,$3,$4,$5,$6,$7,$8,$9,$2,$3,0*
0 Add four circle primitives for the rounded corners*
1,1,$1+$1,$2,$3*
1,1,$1+$1,$4,$5*
1,1,$1+$1,$6,$7*
1,1,$1+$1,$8,$9*
0 Add four rect primitives between the rounded corners*
20,1,$1+$1,$2,$3,$4,$5,0*
20,1,$1+$1,$4,$5,$6,$7,0*
20,1,$1+$1,$6,$7,$8,$9,0*
20,1,$1+$1,$8,$9,$2,$3,0*%
%AMRotRect*
0 Rectangle, with rotation*
0 The origin of the aperture is its center*
0 $1 length*
0 $2 width*
0 $3 Rotation angle, in degrees counterclockwise*
0 Add horizontal line*
21,1,$1,$2,0,0,$3*%
G04 Aperture macros list end*
%TA.AperFunction,SMDPad,CuDef*%
%ADD10RoundRect,0.250000X-0.350000X-0.450000X0.350000X-0.450000X0.350000X0.450000X-0.350000X0.450000X0*%
%TD*%
%TA.AperFunction,SMDPad,CuDef*%
%ADD11RoundRect,0.250000X-0.450000X0.350000X-0.450000X-0.350000X0.450000X-0.350000X0.450000X0.350000X0*%
%TD*%
%TA.AperFunction,SMDPad,CuDef*%
%ADD12RoundRect,0.250000X0.337500X0.475000X-0.337500X0.475000X-0.337500X-0.475000X0.337500X-0.475000X0*%
%TD*%
%TA.AperFunction,SMDPad,CuDef*%
%ADD13RoundRect,0.250000X0.325000X0.450000X-0.325000X0.450000X-0.325000X-0.450000X0.325000X-0.450000X0*%
%TD*%
%TA.AperFunction,SMDPad,CuDef*%
%ADD14RoundRect,0.250000X0.475000X-0.337500X0.475000X0.337500X-0.475000X0.337500X-0.475000X-0.337500X0*%
%TD*%
%TA.AperFunction,SMDPad,CuDef*%
%ADD15RoundRect,0.250000X-0.337500X-0.475000X0.337500X-0.475000X0.337500X0.475000X-0.337500X0.475000X0*%
%TD*%
%TA.AperFunction,SMDPad,CuDef*%
%ADD16RoundRect,0.200000X-0.200000X-0.800000X0.200000X-0.800000X0.200000X0.800000X-0.200000X0.800000X0*%
%TD*%
%TA.AperFunction,ComponentPad*%
%ADD17R,1.700000X1.700000*%
%TD*%
%TA.AperFunction,ComponentPad*%
%ADD18C,1.700000*%
%TD*%
%TA.AperFunction,SMDPad,CuDef*%
%ADD19RoundRect,0.250000X0.350000X0.450000X-0.350000X0.450000X-0.350000X-0.450000X0.350000X-0.450000X0*%
%TD*%
%TA.AperFunction,SMDPad,CuDef*%
%ADD20RoundRect,0.250000X-0.475000X0.337500X-0.475000X-0.337500X0.475000X-0.337500X0.475000X0.337500X0*%
%TD*%
%TA.AperFunction,SMDPad,CuDef*%
%ADD21RoundRect,0.250000X0.450000X-0.325000X0.450000X0.325000X-0.450000X0.325000X-0.450000X-0.325000X0*%
%TD*%
%TA.AperFunction,SMDPad,CuDef*%
%ADD22RoundRect,0.250000X0.450000X-0.350000X0.450000X0.350000X-0.450000X0.350000X-0.450000X-0.350000X0*%
%TD*%
%TA.AperFunction,SMDPad,CuDef*%
%ADD23RoundRect,0.062500X0.062500X-0.337500X0.062500X0.337500X-0.062500X0.337500X-0.062500X-0.337500X0*%
%TD*%
%TA.AperFunction,SMDPad,CuDef*%
%ADD24RoundRect,0.062500X0.337500X-0.062500X0.337500X0.062500X-0.337500X0.062500X-0.337500X-0.062500X0*%
%TD*%
%TA.AperFunction,HeatsinkPad*%
%ADD25R,3.350000X3.350000*%
%TD*%
%TA.AperFunction,SMDPad,CuDef*%
%ADD26RoundRect,0.150000X-0.150000X0.587500X-0.150000X-0.587500X0.150000X-0.587500X0.150000X0.587500X0*%
%TD*%
%TA.AperFunction,SMDPad,CuDef*%
%ADD27RoundRect,0.250000X-0.325000X-0.450000X0.325000X-0.450000X0.325000X0.450000X-0.325000X0.450000X0*%
%TD*%
%TA.AperFunction,SMDPad,CuDef*%
%ADD28RoundRect,0.250000X0.450000X-0.262500X0.450000X0.262500X-0.450000X0.262500X-0.450000X-0.262500X0*%
%TD*%
%TA.AperFunction,ComponentPad*%
%ADD29RotRect,1.700000X1.700000X55.000000*%
%TD*%
%TA.AperFunction,SMDPad,CuDef*%
%ADD30RoundRect,0.175000X0.325000X-0.175000X0.325000X0.175000X-0.325000X0.175000X-0.325000X-0.175000X0*%
%TD*%
%TA.AperFunction,SMDPad,CuDef*%
%ADD31RoundRect,0.150000X0.150000X-0.200000X0.150000X0.200000X-0.150000X0.200000X-0.150000X-0.200000X0*%
%TD*%
%TA.AperFunction,SMDPad,CuDef*%
%ADD32R,1.500000X0.900000*%
%TD*%
%TA.AperFunction,SMDPad,CuDef*%
%ADD33R,0.900000X1.500000*%
%TD*%
%TA.AperFunction,SMDPad,CuDef*%
%ADD34R,0.900000X0.900000*%
%TD*%
%TA.AperFunction,HeatsinkPad*%
%ADD35C,0.600000*%
%TD*%
%TA.AperFunction,HeatsinkPad*%
%ADD36R,3.800000X3.800000*%
%TD*%
%TA.AperFunction,ComponentPad*%
%ADD37RotRect,1.700000X1.700000X305.000000*%
%TD*%
%TA.AperFunction,SMDPad,CuDef*%
%ADD38RoundRect,0.200000X0.250000X0.200000X-0.250000X0.200000X-0.250000X-0.200000X0.250000X-0.200000X0*%
%TD*%
%TA.AperFunction,SMDPad,CuDef*%
%ADD39R,0.600000X1.450000*%
%TD*%
%TA.AperFunction,SMDPad,CuDef*%
%ADD40R,0.300000X1.450000*%
%TD*%
%TA.AperFunction,HeatsinkPad*%
%ADD41O,1.000000X2.100000*%
%TD*%
%TA.AperFunction,HeatsinkPad*%
%ADD42O,1.000000X1.600000*%
%TD*%
%TA.AperFunction,SMDPad,CuDef*%
%ADD43RoundRect,0.250000X-0.350000X0.275000X-0.350000X-0.275000X0.350000X-0.275000X0.350000X0.275000X0*%
%TD*%
%TA.AperFunction,SMDPad,CuDef*%
%ADD44RoundRect,0.075000X-0.415425X-0.521491X0.521491X0.415425X0.415425X0.521491X-0.521491X-0.415425X0*%
%TD*%
%TA.AperFunction,SMDPad,CuDef*%
%ADD45RoundRect,0.075000X0.415425X-0.521491X0.521491X-0.415425X-0.415425X0.521491X-0.521491X0.415425X0*%
%TD*%
%TA.AperFunction,SMDPad,CuDef*%
%ADD46RoundRect,0.375000X-0.625000X-0.375000X0.625000X-0.375000X0.625000X0.375000X-0.625000X0.375000X0*%
%TD*%
%TA.AperFunction,SMDPad,CuDef*%
%ADD47RoundRect,0.500000X-0.500000X-1.400000X0.500000X-1.400000X0.500000X1.400000X-0.500000X1.400000X0*%
%TD*%
%TA.AperFunction,ViaPad*%
%ADD48C,0.600000*%
%TD*%
%TA.AperFunction,Conductor*%
%ADD49C,0.500000*%
%TD*%
%TA.AperFunction,Conductor*%
%ADD50C,0.300000*%
%TD*%
%TA.AperFunction,Conductor*%
%ADD51C,0.280000*%
%TD*%
%TA.AperFunction,Conductor*%
%ADD52C,0.200000*%
%TD*%
G04 APERTURE END LIST*
D10*
%TO.P,R18,1*%
%TO.N,/RXD0*%
X164001630Y-127206000D03*
%TO.P,R18,2*%
%TO.N,Net-(D8-A)*%
X166001630Y-127206000D03*
%TD*%
D11*
%TO.P,R12,1*%
%TO.N,/VBUS*%
X178275000Y-81475000D03*
%TO.P,R12,2*%
%TO.N,Net-(D7-A)*%
X178275000Y-83475000D03*
%TD*%
D12*
%TO.P,C7,1*%
%TO.N,VDD33*%
X132250000Y-84250000D03*
%TO.P,C7,2*%
%TO.N,GND*%
X130175000Y-84250000D03*
%TD*%
D13*
%TO.P,D1,1,K*%
%TO.N,GND*%
X127175000Y-81550000D03*
%TO.P,D1,2,A*%
%TO.N,Net-(D1-A)*%
X125125000Y-81550000D03*
%TD*%
D14*
%TO.P,C11,1*%
%TO.N,VDD33*%
X138857500Y-124367500D03*
%TO.P,C11,2*%
%TO.N,GND*%
X138857500Y-122292500D03*
%TD*%
D10*
%TO.P,R6,1*%
%TO.N,/DTR*%
X147207500Y-97130000D03*
%TO.P,R6,2*%
%TO.N,Net-(Q1-B)*%
X149207500Y-97130000D03*
%TD*%
D15*
%TO.P,C1,1*%
%TO.N,GND*%
X176337500Y-93175000D03*
%TO.P,C1,2*%
%TO.N,VDD33*%
X178412500Y-93175000D03*
%TD*%
D16*
%TO.P,SW4,1,1*%
%TO.N,GND*%
X137757500Y-130930000D03*
%TO.P,SW4,2,2*%
%TO.N,/STM32/NRST*%
X141957500Y-130930000D03*
%TD*%
D12*
%TO.P,C10,1*%
%TO.N,/STM32/NRST*%
X140945000Y-127630000D03*
%TO.P,C10,2*%
%TO.N,GND*%
X138870000Y-127630000D03*
%TD*%
D17*
%TO.P,J9,1,Pin_1*%
%TO.N,GND*%
X135875000Y-73650000D03*
D18*
%TO.P,J9,2,Pin_2*%
%TO.N,VDD33*%
X135875000Y-76190000D03*
%TO.P,J9,3,Pin_3*%
%TO.N,/EN*%
X135875000Y-78730000D03*
%TO.P,J9,4,Pin_4*%
%TO.N,/SENSOR_VP*%
X135875000Y-81270000D03*
%TO.P,J9,5,Pin_5*%
%TO.N,/SENSOR_VN*%
X135875000Y-83810000D03*
%TO.P,J9,6,Pin_6*%
%TO.N,/IO34*%
X135875000Y-86350000D03*
%TO.P,J9,7,Pin_7*%
%TO.N,/IO35*%
X135875000Y-88890000D03*
%TO.P,J9,8,Pin_8*%
%TO.N,/IO32*%
X135875000Y-91430000D03*
%TO.P,J9,9,Pin_9*%
%TO.N,/IO33*%
X135875000Y-93970000D03*
%TD*%
D19*
%TO.P,R1,1*%
%TO.N,GND*%
X178405000Y-86055000D03*
%TO.P,R1,2*%
%TO.N,/ACTIVE*%
X176405000Y-86055000D03*
%TD*%
D20*
%TO.P,C13,1*%
%TO.N,VDD33*%
X158407500Y-122167500D03*
%TO.P,C13,2*%
%TO.N,GND*%
X158407500Y-124242500D03*
%TD*%
D15*
%TO.P,C2,1*%
%TO.N,GND*%
X176337500Y-89600000D03*
%TO.P,C2,2*%
%TO.N,VDD33*%
X178412500Y-89600000D03*
%TD*%
D21*
%TO.P,D6,1,K*%
%TO.N,Net-(D6-K)*%
X173925000Y-79200000D03*
%TO.P,D6,2,A*%
%TO.N,Net-(D6-A)*%
X173925000Y-77150000D03*
%TD*%
D22*
%TO.P,R5,1*%
%TO.N,/VBUS*%
X169600000Y-83475000D03*
%TO.P,R5,2*%
%TO.N,Net-(U1-VBUS)*%
X169600000Y-81475000D03*
%TD*%
D17*
%TO.P,J1,1,Pin_1*%
%TO.N,GND*%
X152820000Y-114255000D03*
D18*
%TO.P,J1,2,Pin_2*%
%TO.N,Net-(J1-Pin_2)*%
X150280000Y-114255000D03*
%TO.P,J1,3,Pin_3*%
%TO.N,VDD33*%
X147740000Y-114255000D03*
%TD*%
D14*
%TO.P,C19,1*%
%TO.N,VDD33*%
X161100000Y-129062500D03*
%TO.P,C19,2*%
%TO.N,GND*%
X161100000Y-126987500D03*
%TD*%
%TO.P,C14,1*%
%TO.N,VDD33*%
X141682500Y-124317500D03*
%TO.P,C14,2*%
%TO.N,GND*%
X141682500Y-122242500D03*
%TD*%
D23*
%TO.P,U1,1,~{DCD}*%
%TO.N,unconnected-(U1-~{DCD}-Pad1)*%
X170075000Y-90800000D03*
%TO.P,U1,2,~{RI}/CLK*%
%TO.N,unconnected-(U1-~{RI}{slash}CLK-Pad2)*%
X170575000Y-90800000D03*
%TO.P,U1,3,GND*%
%TO.N,GND*%
X171075000Y-90800000D03*
%TO.P,U1,4,D+*%
%TO.N,/D+*%
X171575000Y-90800000D03*
%TO.P,U1,5,D-*%
%TO.N,/D-*%
X172075000Y-90800000D03*
%TO.P,U1,6,VDD*%
%TO.N,VDD33*%
X172575000Y-90800000D03*
%TO.P,U1,7,VREGIN*%
X173075000Y-90800000D03*
D24*
%TO.P,U1,8,VBUS*%
%TO.N,Net-(U1-VBUS)*%
X174025000Y-89850000D03*
%TO.P,U1,9,~{RST}*%
%TO.N,Net-(U1-~{RST})*%
X174025000Y-89350000D03*
%TO.P,U1,10,NC*%
%TO.N,unconnected-(U1-NC-Pad10)*%
X174025000Y-88850000D03*
%TO.P,U1,11,~{SUSPEND}*%
%TO.N,/ACTIVE*%
X174025000Y-88350000D03*
%TO.P,U1,12,SUSPEND*%
%TO.N,unconnected-(U1-SUSPEND-Pad12)*%
X174025000Y-87850000D03*
%TO.P,U1,13,CHREN*%
%TO.N,unconnected-(U1-CHREN-Pad13)*%
X174025000Y-87350000D03*
%TO.P,U1,14,CHR1*%
%TO.N,unconnected-(U1-CHR1-Pad14)*%
X174025000Y-86850000D03*
D23*
%TO.P,U1,15,CHR0*%
%TO.N,unconnected-(U1-CHR0-Pad15)*%
X173075000Y-85900000D03*
%TO.P,U1,16,~{WAKEUP}/GPIO.3*%
%TO.N,unconnected-(U1-~{WAKEUP}{slash}GPIO.3-Pad16)*%
X172575000Y-85900000D03*
%TO.P,U1,17,RS485/GPIO.2*%
%TO.N,unconnected-(U1-RS485{slash}GPIO.2-Pad17)*%
X172075000Y-85900000D03*
%TO.P,U1,18,~{RXT}/GPIO.1*%
%TO.N,Net-(D7-K)*%
X171575000Y-85900000D03*
%TO.P,U1,19,~{TXT}/GPIO.0*%
%TO.N,Net-(D6-K)*%
X171075000Y-85900000D03*
%TO.P,U1,20,GPIO.6*%
%TO.N,unconnected-(U1-GPIO.6-Pad20)*%
X170575000Y-85900000D03*
%TO.P,U1,21,GPIO.5*%
%TO.N,unconnected-(U1-GPIO.5-Pad21)*%
X170075000Y-85900000D03*
D24*
%TO.P,U1,22,GPIO.4*%
%TO.N,unconnected-(U1-GPIO.4-Pad22)*%
X169125000Y-86850000D03*
%TO.P,U1,23,~{CTS}*%
%TO.N,unconnected-(U1-~{CTS}-Pad23)*%
X169125000Y-87350000D03*
%TO.P,U1,24,~{RTS}*%
%TO.N,/RTS0*%
X169125000Y-87850000D03*
%TO.P,U1,25,RXD*%
%TO.N,/RXD*%
X169125000Y-88350000D03*
%TO.P,U1,26,TXD*%
%TO.N,/TXD*%
X169125000Y-88850000D03*
%TO.P,U1,27,~{DSR}*%
%TO.N,unconnected-(U1-~{DSR}-Pad27)*%
X169125000Y-89350000D03*
%TO.P,U1,28,~{DTR}*%
%TO.N,/DTR*%
X169125000Y-89850000D03*
D25*
%TO.P,U1,29,GND*%
%TO.N,GND*%
X171575000Y-88350000D03*
%TD*%
D12*
%TO.P,C8,1*%
%TO.N,VDD33*%
X132250000Y-81550000D03*
%TO.P,C8,2*%
%TO.N,GND*%
X130175000Y-81550000D03*
%TD*%
D26*
%TO.P,Q1,1,B*%
%TO.N,Net-(Q1-B)*%
X149070000Y-99967500D03*
%TO.P,Q1,2,E*%
%TO.N,/RTS0*%
X147170000Y-99967500D03*
%TO.P,Q1,3,C*%
%TO.N,/EN*%
X148120000Y-101842500D03*
%TD*%
D14*
%TO.P,C6,1*%
%TO.N,/EN*%
X125300000Y-79117500D03*
%TO.P,C6,2*%
%TO.N,GND*%
X125300000Y-77042500D03*
%TD*%
D10*
%TO.P,R10,1*%
%TO.N,VDD33*%
X125000000Y-97125000D03*
%TO.P,R10,2*%
%TO.N,/EN*%
X127000000Y-97125000D03*
%TD*%
D27*
%TO.P,D4,1,K*%
%TO.N,/EXT_5V*%
X137175000Y-134975000D03*
%TO.P,D4,2,A*%
%TO.N,/VBUS*%
X139225000Y-134975000D03*
%TD*%
D10*
%TO.P,R14,1*%
%TO.N,/CTS*%
X168599130Y-124881000D03*
%TO.P,R14,2*%
%TO.N,Net-(D11-A)*%
X170599130Y-124881002D03*
%TD*%
D11*
%TO.P,R4,1*%
%TO.N,GND*%
X169575000Y-77197500D03*
%TO.P,R4,2*%
%TO.N,Net-(U1-VBUS)*%
X169575000Y-79197500D03*
%TD*%
D17*
%TO.P,J6,1,Pin_1*%
%TO.N,VDD33*%
X118700000Y-78290000D03*
D18*
%TO.P,J6,2,Pin_2*%
X118700000Y-80830000D03*
%TO.P,J6,3,Pin_3*%
X118700000Y-83370000D03*
%TD*%
D17*
%TO.P,J4,1,Pin_1*%
%TO.N,/STM32/PA3*%
X118700000Y-122545000D03*
D18*
%TO.P,J4,2,Pin_2*%
%TO.N,/STM32/PA2*%
X118700000Y-120005000D03*
%TO.P,J4,3,Pin_3*%
%TO.N,/STM32/PA1*%
X118700000Y-117465000D03*
%TO.P,J4,4,Pin_4*%
%TO.N,/STM32/PA0*%
X118700000Y-114925000D03*
%TO.P,J4,5,Pin_5*%
%TO.N,/STM32/PC14*%
X118700000Y-112385000D03*
%TO.P,J4,6,Pin_6*%
%TO.N,/STM32/PC13*%
X118700000Y-109845000D03*
%TO.P,J4,7,Pin_7*%
%TO.N,/STM32/PB9*%
X118700000Y-107305000D03*
%TO.P,J4,8,Pin_8*%
%TO.N,/STM32/PB8*%
X118700000Y-104765000D03*
%TO.P,J4,9,Pin_9*%
%TO.N,/STM32/PB7*%
X118700000Y-102225000D03*
%TO.P,J4,10,Pin_10*%
%TO.N,/STM32/PB6*%
X118700000Y-99685000D03*
%TO.P,J4,11,Pin_11*%
%TO.N,/STM32/PB5*%
X118700000Y-97145000D03*
%TO.P,J4,12,Pin_12*%
%TO.N,/STM32/PB4*%
X118700000Y-94605000D03*
%TO.P,J4,13,Pin_13*%
%TO.N,/STM32/PB3*%
X118700000Y-92065000D03*
%TO.P,J4,14,Pin_14*%
%TO.N,/STM32/PA15*%
X118700000Y-89525000D03*
%TO.P,J4,15,Pin_15*%
%TO.N,/STM32/SWCLK*%
X118700000Y-86985000D03*
%TD*%
D28*
%TO.P,R17,1*%
%TO.N,Net-(J2-CC2)*%
X158075000Y-135825000D03*
%TO.P,R17,2*%
%TO.N,GND*%
X158075000Y-134000000D03*
%TD*%
D17*
%TO.P,J5,1,Pin_1*%
%TO.N,/STM32/SWDIO*%
X181975000Y-86985000D03*
D18*
%TO.P,J5,2,Pin_2*%
%TO.N,/STM32/PA8*%
X181975000Y-89525000D03*
%TO.P,J5,3,Pin_3*%
%TO.N,/STM32/PB15*%
X181975000Y-92065000D03*
%TO.P,J5,4,Pin_4*%
%TO.N,/STM32/PB14*%
X181975000Y-94605000D03*
%TO.P,J5,5,Pin_5*%
%TO.N,/STM32/PB13*%
X181975000Y-97145000D03*
%TO.P,J5,6,Pin_6*%
%TO.N,/STM32/PB12*%
X181975000Y-99685000D03*
%TO.P,J5,7,Pin_7*%
%TO.N,/STM32/I2C_SDA1*%
X181975000Y-102225000D03*
%TO.P,J5,8,Pin_8*%
%TO.N,/STM32/I2C_SCL1*%
X181975000Y-104765000D03*
%TO.P,J5,9,Pin_9*%
%TO.N,/STM32/PB2*%
X181975000Y-107305000D03*
%TO.P,J5,10,Pin_10*%
%TO.N,/STM32/PB1*%
X181975000Y-109845000D03*
%TO.P,J5,11,Pin_11*%
%TO.N,/STM32/PB0*%
X181975000Y-112385000D03*
%TO.P,J5,12,Pin_12*%
%TO.N,/STM32/PA7*%
X181975000Y-114925000D03*
%TO.P,J5,13,Pin_13*%
%TO.N,/STM32/PA6*%
X181975000Y-117465000D03*
%TO.P,J5,14,Pin_14*%
%TO.N,/STM32/PA5*%
X181975000Y-120005000D03*
%TO.P,J5,15,Pin_15*%
%TO.N,/STM32/PA4*%
X181975000Y-122545000D03*
%TD*%
D27*
%TO.P,D8,1,K*%
%TO.N,GND*%
X163999131Y-129731001D03*
%TO.P,D8,2,A*%
%TO.N,Net-(D8-A)*%
X166049129Y-129730999D03*
%TD*%
D29*
%TO.P,J7,1,Pin_1*%
%TO.N,/IO25*%
X135575000Y-100775000D03*
D18*
%TO.P,J7,2,Pin_2*%
%TO.N,/IO26*%
X137655646Y-102231884D03*
%TO.P,J7,3,Pin_3*%
%TO.N,/IO27*%
X139736292Y-103688768D03*
%TO.P,J7,4,Pin_4*%
%TO.N,/IO14*%
X141816939Y-105145653D03*
%TO.P,J7,5,Pin_5*%
%TO.N,/IO12*%
X143897585Y-106602537D03*
%TD*%
D10*
%TO.P,R20,1*%
%TO.N,/RTS*%
X168599130Y-129731001D03*
%TO.P,R20,2*%
%TO.N,Net-(D10-A)*%
X170599130Y-129731001D03*
%TD*%
D30*
%TO.P,D13,1,A*%
%TO.N,GND*%
X141737500Y-135950000D03*
D31*
%TO.P,D13,2,K*%
%TO.N,/D+*%
X143437500Y-135950000D03*
%TO.P,D13,3,K*%
%TO.N,/D-*%
X143437500Y-133950000D03*
%TO.P,D13,4,K*%
%TO.N,/VBUS*%
X141537500Y-133950000D03*
%TD*%
D21*
%TO.P,D7,1,K*%
%TO.N,Net-(D7-K)*%
X173937500Y-83477500D03*
%TO.P,D7,2,A*%
%TO.N,Net-(D7-A)*%
X173937500Y-81427500D03*
%TD*%
D19*
%TO.P,R2,1*%
%TO.N,/EXT_5V*%
X127050000Y-94500000D03*
%TO.P,R2,2*%
%TO.N,Net-(D1-A)*%
X125050000Y-94500000D03*
%TD*%
D28*
%TO.P,R16,1*%
%TO.N,Net-(J2-CC1)*%
X160800000Y-135825000D03*
%TO.P,R16,2*%
%TO.N,GND*%
X160800000Y-134000000D03*
%TD*%
D20*
%TO.P,C16,1*%
%TO.N,VDD33*%
X161057500Y-122180000D03*
%TO.P,C16,2*%
%TO.N,GND*%
X161057500Y-124255000D03*
%TD*%
D32*
%TO.P,U4,1,GND*%
%TO.N,GND*%
X141150000Y-72820000D03*
%TO.P,U4,2,VDD*%
%TO.N,VDD33*%
X141150000Y-74090000D03*
%TO.P,U4,3,EN*%
%TO.N,/EN*%
X141150000Y-75360000D03*
%TO.P,U4,4,SENSOR_VP*%
%TO.N,/SENSOR_VP*%
X141150000Y-76630000D03*
%TO.P,U4,5,SENSOR_VN*%
%TO.N,/SENSOR_VN*%
X141150000Y-77900000D03*
%TO.P,U4,6,IO34*%
%TO.N,/IO34*%
X141150000Y-79170000D03*
%TO.P,U4,7,IO35*%
%TO.N,/IO35*%
X141150000Y-80440000D03*
%TO.P,U4,8,IO32*%
%TO.N,/IO32*%
X141150000Y-81710000D03*
%TO.P,U4,9,IO33*%
%TO.N,/IO33*%
X141150000Y-82980000D03*
%TO.P,U4,10,IO25*%
%TO.N,/IO25*%
X141150000Y-84250000D03*
%TO.P,U4,11,IO26*%
%TO.N,/IO26*%
X141150000Y-85520000D03*
%TO.P,U4,12,IO27*%
%TO.N,/IO27*%
X141150000Y-86790000D03*
%TO.P,U4,13,IO14*%
%TO.N,/IO14*%
X141150000Y-88060000D03*
%TO.P,U4,14,IO12*%
%TO.N,/IO12*%
X141150000Y-89330000D03*
D33*
%TO.P,U4,15,GND*%
%TO.N,GND*%
X144190000Y-90580000D03*
%TO.P,U4,16,IO13*%
%TO.N,/IO13*%
X145460000Y-90580000D03*
%TO.P,U4,17,SHD/SD2*%
%TO.N,/SD2*%
X146730000Y-90580000D03*
%TO.P,U4,18,SWP/SD3*%
%TO.N,/SD3*%
X148000000Y-90580000D03*
%TO.P,U4,19,SCS/CMD*%
%TO.N,/CMD*%
X149270000Y-90580000D03*
%TO.P,U4,20,SCK/CLK*%
%TO.N,/CLK*%
X150540000Y-90580000D03*
%TO.P,U4,21,SDO/SD0*%
%TO.N,/SD0*%
X151810000Y-90580000D03*
%TO.P,U4,22,SDI/SD1*%
%TO.N,/SD1*%
X153080000Y-90580000D03*
%TO.P,U4,23,IO15*%
%TO.N,/IO15*%
X154350000Y-90580000D03*
%TO.P,U4,24,IO2*%
%TO.N,/IO2*%
X155620000Y-90580000D03*
D32*
%TO.P,U4,25,IO0*%
%TO.N,/IO0*%
X158650000Y-89330000D03*
%TO.P,U4,26,IO4*%
%TO.N,/IO4*%
X158650000Y-88060000D03*
%TO.P,U4,27,IO16*%
%TO.N,/RXD0*%
X158650000Y-86790000D03*
%TO.P,U4,28,IO17*%
%TO.N,/TXD0*%
X158650000Y-85520000D03*
%TO.P,U4,29,IO5*%
%TO.N,/IO5*%
X158650000Y-84250000D03*
%TO.P,U4,30,IO18*%
%TO.N,/IO18*%
X158650000Y-82980000D03*
%TO.P,U4,31,IO19*%
%TO.N,/IO19*%
X158650000Y-81710000D03*
%TO.P,U4,32,NC*%
%TO.N,unconnected-(U4-NC-Pad32)*%
X158650000Y-80440000D03*
%TO.P,U4,33,IO21*%
%TO.N,/IO21*%
X158650000Y-79170000D03*
%TO.P,U4,34,RXD0/IO3*%
%TO.N,/TXD*%
X158650000Y-77900000D03*
%TO.P,U4,35,TXD0/IO1*%
%TO.N,/RXD*%
X158650000Y-76630000D03*
%TO.P,U4,36,IO22*%
%TO.N,/RTS*%
X158650000Y-75360000D03*
%TO.P,U4,37,IO23*%
%TO.N,/CTS*%
X158650000Y-74090000D03*
%TO.P,U4,38,GND*%
%TO.N,GND*%
X158650000Y-72820000D03*
D34*
%TO.P,U4,39,GND*%
X147000000Y-79140000D03*
D35*
X147000000Y-79840000D03*
D34*
X147000000Y-80540000D03*
D35*
X147000000Y-81240000D03*
D34*
X147000000Y-81940000D03*
D35*
X147700000Y-79140000D03*
X147700000Y-80540000D03*
X147700000Y-81940000D03*
X148375000Y-79840000D03*
X148375000Y-81240000D03*
D34*
X148400000Y-79140000D03*
X148400000Y-80540000D03*
D36*
X148400000Y-80540000D03*
D34*
X148400000Y-81940000D03*
D35*
X149100000Y-79140000D03*
X149100000Y-80540000D03*
X149100000Y-81940000D03*
D34*
X149800000Y-79140000D03*
D35*
X149800000Y-79840000D03*
D34*
X149800000Y-80540000D03*
D35*
X149800000Y-81240000D03*
D34*
X149800000Y-81940000D03*
%TD*%
D37*
%TO.P,J8,1,Pin_1*%
%TO.N,/TXD0*%
X165022585Y-100872463D03*
D18*
%TO.P,J8,2,Pin_2*%
%TO.N,/RXD0*%
X162941939Y-102329347D03*
%TO.P,J8,3,Pin_3*%
%TO.N,/IO4*%
X160861293Y-103786231D03*
%TO.P,J8,4,Pin_4*%
%TO.N,/IO0*%
X158780646Y-105243116D03*
%TO.P,J8,5,Pin_5*%
%TO.N,GND*%
X156700000Y-106700000D03*
%TD*%
D10*
%TO.P,R19,1*%
%TO.N,/TXD0*%
X164001630Y-122306000D03*
%TO.P,R19,2*%
%TO.N,Net-(D9-A)*%
X166001630Y-122306000D03*
%TD*%
D26*
%TO.P,Q2,1,B*%
%TO.N,Net-(Q2-B)*%
X153270000Y-99967500D03*
%TO.P,Q2,2,E*%
%TO.N,/IO0*%
X151370000Y-99967500D03*
%TO.P,Q2,3,C*%
%TO.N,/DTR*%
X152320000Y-101842500D03*
%TD*%
D27*
%TO.P,D10,1,K*%
%TO.N,GND*%
X168596630Y-127206001D03*
%TO.P,D10,2,A*%
%TO.N,Net-(D10-A)*%
X170646630Y-127206001D03*
%TD*%
D17*
%TO.P,J10,1,Pin_1*%
%TO.N,GND*%
X164250000Y-73775000D03*
D18*
%TO.P,J10,2,Pin_2*%
%TO.N,/CTS*%
X164250000Y-76315000D03*
%TO.P,J10,3,Pin_3*%
%TO.N,/RTS*%
X164250000Y-78855000D03*
%TO.P,J10,4,Pin_4*%
%TO.N,/RXD*%
X164250000Y-81395000D03*
%TO.P,J10,5,Pin_5*%
%TO.N,/TXD*%
X164250000Y-83935000D03*
%TO.P,J10,6,Pin_6*%
%TO.N,/IO21*%
X164250000Y-86475000D03*
%TO.P,J10,7,Pin_7*%
%TO.N,/IO19*%
X164250000Y-89015000D03*
%TO.P,J10,8,Pin_8*%
%TO.N,/IO18*%
X164250000Y-91555000D03*
%TO.P,J10,9,Pin_9*%
%TO.N,/IO5*%
X164250000Y-94095000D03*
%TD*%
D16*
%TO.P,SW1,1,1*%
%TO.N,GND*%
X128275000Y-77900000D03*
%TO.P,SW1,2,2*%
%TO.N,/EN*%
X132475000Y-77900000D03*
%TD*%
D38*
%TO.P,Y1,1,1*%
%TO.N,/STM32/HSE_IN*%
X134600000Y-129442500D03*
%TO.P,Y1,2,2*%
%TO.N,GND*%
X133200000Y-129442500D03*
%TO.P,Y1,3,3*%
%TO.N,/STM32/HSE_OUT*%
X133200000Y-130542500D03*
%TO.P,Y1,4,4*%
%TO.N,GND*%
X134600000Y-130542500D03*
%TD*%
D15*
%TO.P,C15,1*%
%TO.N,/STM32/HSE_OUT*%
X132962500Y-132892500D03*
%TO.P,C15,2*%
%TO.N,GND*%
X135037500Y-132892500D03*
%TD*%
D21*
%TO.P,D3,1,K*%
%TO.N,GND*%
X133132500Y-124380000D03*
%TO.P,D3,2,A*%
%TO.N,Net-(D3-A)*%
X133132500Y-122330000D03*
%TD*%
D19*
%TO.P,R13,1*%
%TO.N,Net-(J1-Pin_2)*%
X151280000Y-111130000D03*
%TO.P,R13,2*%
%TO.N,/STM32/SW_BOOT0*%
X149280000Y-111130000D03*
%TD*%
%TO.P,R3,1*%
%TO.N,Net-(U1-~{RST})*%
X171300000Y-93150000D03*
%TO.P,R3,2*%
%TO.N,VDD33*%
X169300000Y-93150000D03*
%TD*%
D39*
%TO.P,J2,A1,GND*%
%TO.N,GND*%
X147500000Y-134065000D03*
%TO.P,J2,A4,VBUS*%
%TO.N,/VBUS*%
X148300000Y-134065000D03*
D40*
%TO.P,J2,A5,CC1*%
%TO.N,Net-(J2-CC1)*%
X149500000Y-134065000D03*
%TO.P,J2,A6,D+*%
%TO.N,/D+*%
X150500000Y-134065000D03*
%TO.P,J2,A7,D-*%
%TO.N,/D-*%
X151000000Y-134065000D03*
%TO.P,J2,A8,SBU1*%
%TO.N,unconnected-(J2-SBU1-PadA8)*%
X152000000Y-134065000D03*
D39*
%TO.P,J2,A9,VBUS*%
%TO.N,/VBUS*%
X153200000Y-134065000D03*
%TO.P,J2,A12,GND*%
%TO.N,GND*%
X154000000Y-134065000D03*
%TO.P,J2,B1,GND*%
X154000000Y-134065000D03*
%TO.P,J2,B4,VBUS*%
%TO.N,/VBUS*%
X153200000Y-134065000D03*
D40*
%TO.P,J2,B5,CC2*%
%TO.N,Net-(J2-CC2)*%
X152500000Y-134065000D03*
%TO.P,J2,B6,D+*%
%TO.N,/D+*%
X151500000Y-134065000D03*
%TO.P,J2,B7,D-*%
%TO.N,/D-*%
X150000000Y-134065000D03*
%TO.P,J2,B8,SBU2*%
%TO.N,unconnected-(J2-SBU2-PadB8)*%
X149000000Y-134065000D03*
D39*
%TO.P,J2,B9,VBUS*%
%TO.N,/VBUS*%
X148300000Y-134065000D03*
%TO.P,J2,B12,GND*%
%TO.N,GND*%
X147500000Y-134065000D03*
D41*
%TO.P,J2,S1,SHIELD*%
X146430000Y-134980000D03*
D42*
X146430000Y-139160000D03*
D41*
X155070000Y-134980000D03*
D42*
X155070000Y-139160000D03*
%TD*%
D16*
%TO.P,SW2,1,1*%
%TO.N,GND*%
X148145000Y-105330000D03*
%TO.P,SW2,2,2*%
%TO.N,/IO0*%
X152345000Y-105330000D03*
%TD*%
D17*
%TO.P,J11,1,Pin_1*%
%TO.N,GND*%
X181970000Y-78270000D03*
D18*
%TO.P,J11,2,Pin_2*%
X181970000Y-80810000D03*
%TO.P,J11,3,Pin_3*%
X181970000Y-83350000D03*
%TD*%
D10*
%TO.P,R8,1*%
%TO.N,/RTS0*%
X151407500Y-97143095D03*
%TO.P,R8,2*%
%TO.N,Net-(Q2-B)*%
X153407500Y-97143095D03*
%TD*%
D43*
%TO.P,FB1,1*%
%TO.N,Net-(U7-VDDA)*%
X158375000Y-126875000D03*
%TO.P,FB1,2*%
%TO.N,VDD33*%
X158375000Y-129175000D03*
%TD*%
D15*
%TO.P,C3,1*%
%TO.N,/EXT_5V*%
X125135000Y-84250000D03*
%TO.P,C3,2*%
%TO.N,GND*%
X127210000Y-84250000D03*
%TD*%
D22*
%TO.P,R7,1*%
%TO.N,/STM32/PC13*%
X135907500Y-124305000D03*
%TO.P,R7,2*%
%TO.N,Net-(D3-A)*%
X135907500Y-122305000D03*
%TD*%
D17*
%TO.P,J3,1,Pin_1*%
%TO.N,/IO13*%
X139902500Y-94075000D03*
D18*
%TO.P,J3,2,Pin_2*%
%TO.N,/SD2*%
X142442500Y-94075000D03*
%TO.P,J3,3,Pin_3*%
%TO.N,/SD3*%
X144982500Y-94075000D03*
%TO.P,J3,4,Pin_4*%
%TO.N,/CMD*%
X147522500Y-94075000D03*
%TO.P,J3,5,Pin_5*%
%TO.N,/CLK*%
X150062500Y-94075000D03*
%TO.P,J3,6,Pin_6*%
%TO.N,/SD0*%
X152602500Y-94075000D03*
%TO.P,J3,7,Pin_7*%
%TO.N,/SD1*%
X155142500Y-94075000D03*
%TO.P,J3,8,Pin_8*%
%TO.N,/IO15*%
X157682500Y-94075000D03*
%TO.P,J3,9,Pin_9*%
%TO.N,/IO2*%
X160222500Y-94075000D03*
%TD*%
D12*
%TO.P,C12,1*%
%TO.N,/STM32/HSE_IN*%
X135000000Y-127042500D03*
%TO.P,C12,2*%
%TO.N,GND*%
X132925000Y-127042500D03*
%TD*%
%TO.P,C9,1*%
%TO.N,/IO0*%
X151282500Y-108655000D03*
%TO.P,C9,2*%
%TO.N,GND*%
X149207500Y-108655000D03*
%TD*%
D15*
%TO.P,C4,1*%
%TO.N,VDD33*%
X130200000Y-94500000D03*
%TO.P,C4,2*%
%TO.N,GND*%
X132275000Y-94500000D03*
%TD*%
D44*
%TO.P,U7,1,VDD*%
%TO.N,VDD33*%
X145169624Y-124203788D03*
%TO.P,U7,2,PC13*%
%TO.N,/STM32/PC13*%
X145523178Y-124557342D03*
%TO.P,U7,3,PC14*%
%TO.N,/STM32/PC14*%
X145876731Y-124910895D03*
%TO.P,U7,4,PC15*%
%TO.N,unconnected-(U7-PC15-Pad4)*%
X146230285Y-125264449D03*
%TO.P,U7,5,PF0*%
%TO.N,/STM32/HSE_IN*%
X146583838Y-125618002D03*
%TO.P,U7,6,PF1*%
%TO.N,/STM32/HSE_OUT*%
X146937391Y-125971555D03*
%TO.P,U7,7,NRST*%
%TO.N,/STM32/NRST*%
X147290945Y-126325109D03*
%TO.P,U7,8,VSSA*%
%TO.N,GND*%
X147644498Y-126678662D03*
%TO.P,U7,9,VDDA*%
%TO.N,Net-(U7-VDDA)*%
X147998051Y-127032215D03*
%TO.P,U7,10,PA0*%
%TO.N,/STM32/PA0*%
X148351605Y-127385769D03*
%TO.P,U7,11,PA1*%
%TO.N,/STM32/PA1*%
X148705158Y-127739322D03*
%TO.P,U7,12,PA2*%
%TO.N,/STM32/PA2*%
X149058712Y-128092876D03*
D45*
%TO.P,U7,13,PA3*%
%TO.N,/STM32/PA3*%
X151056288Y-128092876D03*
%TO.P,U7,14,PA4*%
%TO.N,/STM32/PA4*%
X151409842Y-127739322D03*
%TO.P,U7,15,PA5*%
%TO.N,/STM32/PA5*%
X151763395Y-127385769D03*
%TO.P,U7,16,PA6*%
%TO.N,/STM32/PA6*%
X152116949Y-127032215D03*
%TO.P,U7,17,PA7*%
%TO.N,/STM32/PA7*%
X152470502Y-126678662D03*
%TO.P,U7,18,PB0*%
%TO.N,/STM32/PB0*%
X152824055Y-126325109D03*
%TO.P,U7,19,PB1*%
%TO.N,/STM32/PB1*%
X153177609Y-125971555D03*
%TO.P,U7,20,PB2*%
%TO.N,/STM32/PB2*%
X153531162Y-125618002D03*
%TO.P,U7,21,PB10*%
%TO.N,/STM32/I2C_SCL1*%
X153884715Y-125264449D03*
%TO.P,U7,22,PB11*%
%TO.N,/STM32/I2C_SDA1*%
X154238269Y-124910895D03*
%TO.P,U7,23,VSS*%
%TO.N,GND*%
X154591822Y-124557342D03*
%TO.P,U7,24,VDD*%
%TO.N,VDD33*%
X154945376Y-124203788D03*
D44*
%TO.P,U7,25,PB12*%
%TO.N,/STM32/PB12*%
X154945376Y-122206212D03*
%TO.P,U7,26,PB13*%
%TO.N,/STM32/PB13*%
X154591822Y-121852658D03*
%TO.P,U7,27,PB14*%
%TO.N,/STM32/PB14*%
X154238269Y-121499105D03*
%TO.P,U7,28,PB15*%
%TO.N,/STM32/PB15*%
X153884715Y-121145551D03*
%TO.P,U7,29,PA8*%
%TO.N,/STM32/PA8*%
X153531162Y-120791998D03*
%TO.P,U7,30,PA9*%
%TO.N,/RXD0*%
X153177609Y-120438445D03*
%TO.P,U7,31,PA10*%
%TO.N,/TXD0*%
X152824055Y-120084891D03*
%TO.P,U7,32,PA11*%
%TO.N,/RTS*%
X152470502Y-119731338D03*
%TO.P,U7,33,PA12*%
%TO.N,/CTS*%
X152116949Y-119377785D03*
%TO.P,U7,34,PA13*%
%TO.N,/STM32/SWDIO*%
X151763395Y-119024231D03*
%TO.P,U7,35,PF6*%
%TO.N,unconnected-(U7-PF6-Pad35)*%
X151409842Y-118670678D03*
%TO.P,U7,36,PF7*%
%TO.N,unconnected-(U7-PF7-Pad36)*%
X151056288Y-118317124D03*
D45*
%TO.P,U7,37,PA14*%
%TO.N,/STM32/SWCLK*%
X149058712Y-118317124D03*
%TO.P,U7,38,PA15*%
%TO.N,/STM32/PA15*%
X148705158Y-118670678D03*
%TO.P,U7,39,PB3*%
%TO.N,/STM32/PB3*%
X148351605Y-119024231D03*
%TO.P,U7,40,PB4*%
%TO.N,/STM32/PB4*%
X147998051Y-119377785D03*
%TO.P,U7,41,PB5*%
%TO.N,/STM32/PB5*%
X147644498Y-119731338D03*
%TO.P,U7,42,PB6*%
%TO.N,/STM32/PB6*%
X147290945Y-120084891D03*
%TO.P,U7,43,PB7*%
%TO.N,/STM32/PB7*%
X146937391Y-120438445D03*
%TO.P,U7,44,BOOT0*%
%TO.N,/STM32/SW_BOOT0*%
X146583838Y-120791998D03*
%TO.P,U7,45,PB8*%
%TO.N,/STM32/PB8*%
X146230285Y-121145551D03*
%TO.P,U7,46,PB9*%
%TO.N,/STM32/PB9*%
X145876731Y-121499105D03*
%TO.P,U7,47,VSS*%
%TO.N,GND*%
X145523178Y-121852658D03*
%TO.P,U7,48,VDD*%
%TO.N,VDD33*%
X145169624Y-122206212D03*
%TD*%
D46*
%TO.P,U2,1,GND*%
%TO.N,GND*%
X125550000Y-86950000D03*
%TO.P,U2,2,VO*%
%TO.N,VDD33*%
X125550000Y-89250000D03*
D47*
X131850000Y-89250000D03*
D46*
%TO.P,U2,3,VI*%
%TO.N,/EXT_5V*%
X125550000Y-91550000D03*
%TD*%
D15*
%TO.P,C18,1*%
%TO.N,Net-(U7-VDDA)*%
X153162500Y-130625000D03*
%TO.P,C18,2*%
%TO.N,GND*%
X155237500Y-130625000D03*
%TD*%
D11*
%TO.P,R11,1*%
%TO.N,Net-(D6-A)*%
X178275000Y-77197500D03*
%TO.P,R11,2*%
%TO.N,/VBUS*%
X178275000Y-79197500D03*
%TD*%
D15*
%TO.P,C5,1*%
%TO.N,/EN*%
X130150000Y-97125000D03*
%TO.P,C5,2*%
%TO.N,GND*%
X132225000Y-97125000D03*
%TD*%
D27*
%TO.P,D9,1,K*%
%TO.N,GND*%
X163999131Y-124881001D03*
%TO.P,D9,2,A*%
%TO.N,Net-(D9-A)*%
X166049129Y-124880999D03*
%TD*%
%TO.P,D11,1,K*%
%TO.N,GND*%
X168596629Y-122206001D03*
%TO.P,D11,2,A*%
%TO.N,Net-(D11-A)*%
X170646631Y-122206001D03*
%TD*%
D12*
%TO.P,C17,1*%
%TO.N,Net-(U7-VDDA)*%
X148312500Y-130625000D03*
%TO.P,C17,2*%
%TO.N,GND*%
X146237500Y-130625000D03*
%TD*%
D48*
%TO.N,VDD33*%
X175702708Y-94351000D03*
X142907500Y-121280000D03*
X153925000Y-102550000D03*
X159700000Y-125550000D03*
X159725000Y-123325000D03*
X142832500Y-122992500D03*
X174425000Y-95625000D03*
X147087500Y-102476838D03*
%TO.N,GND*%
X154000000Y-134065000D03*
X128600000Y-81550000D03*
X176867500Y-87592500D03*
X133580000Y-94450000D03*
X149275000Y-122846000D03*
X128800000Y-84250000D03*
X159430000Y-134000000D03*
X134975000Y-131731000D03*
X149275000Y-125050000D03*
X169380000Y-91575000D03*
X168699130Y-123481000D03*
X165399130Y-123556000D03*
X162520000Y-130132001D03*
%TO.N,/EXT_5V*%
X128582669Y-99043331D03*
X128200000Y-94800000D03*
%TO.N,/IO0*%
X160675000Y-89475000D03*
X154175000Y-104675000D03*
X150625000Y-104775000D03*
X159020000Y-100420000D03*
%TO.N,/STM32/PA5*%
X150525000Y-126200000D03*
%TO.N,/STM32/SWDIO*%
X153626000Y-117125000D03*
X154973758Y-115876517D03*
X176475000Y-95300000D03*
X174325000Y-96600000D03*
%TO.N,/STM32/PA2*%
X130000000Y-130610000D03*
X150025000Y-129850000D03*
%TO.N,/STM32/SWCLK*%
X149525000Y-116700000D03*
X145675000Y-103300000D03*
%TO.N,/STM32/PA6*%
X153750000Y-128650000D03*
%TO.N,/STM32/PA15*%
X149392500Y-119800000D03*
X146050000Y-108550000D03*
%TO.N,/STM32/PA8*%
X176702271Y-96067041D03*
X155665380Y-116584620D03*
X174271785Y-97398231D03*
X152050000Y-122175000D03*
%TO.N,/STM32/PA0*%
X149625000Y-126150000D03*
X129575000Y-129150000D03*
%TO.N,/STM32/PA1*%
X149950000Y-126900000D03*
X130293067Y-129865611D03*
%TO.N,/STM32/PC13*%
X130975000Y-127832229D03*
X134525000Y-125625000D03*
%TO.N,/STM32/PB6*%
X138400000Y-119200000D03*
X149100000Y-121550000D03*
%TO.N,/STM32/PA3*%
X150764106Y-129543853D03*
X130975000Y-131250000D03*
%TO.N,/STM32/PA7*%
X151131647Y-125243353D03*
%TO.N,/STM32/PA4*%
X152175000Y-129075000D03*
%TO.N,/STM32/PB7*%
X139012207Y-119813446D03*
X145893040Y-119181960D03*
%TO.N,/STM32/PB14*%
X167500000Y-73725000D03*
X179737511Y-74821025D03*
X153778574Y-122789463D03*
%TO.N,/STM32/I2C_SDA1*%
X156147076Y-125772076D03*
%TO.N,/STM32/PB5*%
X146350000Y-117414182D03*
X144810000Y-110647744D03*
X132525000Y-102177000D03*
%TO.N,/STM32/PB4*%
X149392500Y-120775000D03*
X145178847Y-109863653D03*
%TO.N,/STM32/PB9*%
X130925000Y-126925000D03*
X147250000Y-122240000D03*
%TO.N,/STM32/PB13*%
X158075000Y-120375000D03*
X176600000Y-98900000D03*
X163040000Y-118583924D03*
X178337471Y-97170827D03*
%TO.N,/STM32/PB2*%
X154724951Y-127025049D03*
%TO.N,/STM32/PB15*%
X174300000Y-98400000D03*
X153012861Y-122557765D03*
X162400000Y-118075000D03*
X176875000Y-97000000D03*
%TO.N,/STM32/PB3*%
X147725000Y-117075000D03*
X145792169Y-109350000D03*
%TO.N,/STM32/PB0*%
X156233292Y-128306049D03*
%TO.N,/STM32/PB12*%
X177775000Y-98975000D03*
X179000000Y-97825000D03*
X163656167Y-119094162D03*
X158471912Y-121069597D03*
%TO.N,/STM32/I2C_SCL1*%
X164815140Y-120104000D03*
X152568076Y-124456924D03*
X178720000Y-108290000D03*
%TO.N,/STM32/PC14*%
X147325000Y-123550000D03*
X130550000Y-128510000D03*
%TO.N,/STM32/PB8*%
X139481987Y-120460987D03*
X144150000Y-119075000D03*
%TO.N,/STM32/PB1*%
X151550000Y-124325000D03*
%TO.N,/IO27*%
X138625000Y-99925000D03*
X139175000Y-87175000D03*
%TO.N,/IO26*%
X139109900Y-86159900D03*
X137877821Y-99412415D03*
%TO.N,/IO12*%
X142825000Y-89400000D03*
X143630529Y-100900000D03*
%TO.N,/IO25*%
X137225000Y-98950000D03*
X139550280Y-84375000D03*
%TO.N,/IO14*%
X139675000Y-88450000D03*
X141250000Y-100950000D03*
%TO.N,/TXD0*%
X160335254Y-118991641D03*
X160575880Y-85924120D03*
X155287500Y-85637500D03*
X163962500Y-98787500D03*
%TO.N,/RXD0*%
X160154130Y-119770870D03*
X162560000Y-99215171D03*
X156450000Y-88250000D03*
X160525000Y-86800000D03*
%TO.N,/IO4*%
X161910000Y-100010000D03*
X160600000Y-88100000D03*
%TO.N,/RTS0*%
X168000493Y-87574508D03*
X154057500Y-98450000D03*
X166927880Y-89097120D03*
X151700000Y-98450000D03*
%TO.N,Net-(U1-~{RST})*%
X174599750Y-92005571D03*
X171425000Y-94875000D03*
%TO.N,Net-(U1-VBUS)*%
X170975000Y-81875000D03*
X174775000Y-91225000D03*
%TO.N,/CTS*%
X153250000Y-110950000D03*
X166300000Y-96725000D03*
X153269669Y-109069669D03*
X166275000Y-75850000D03*
%TO.N,/RTS*%
X155087500Y-75787500D03*
X160572474Y-118227619D03*
%TO.N,/VBUS*%
X169843419Y-75868419D03*
X154400000Y-137909000D03*
X153200000Y-134065000D03*
X167800000Y-81400000D03*
%TO.N,Net-(J2-CC1)*%
X154341247Y-137032690D03*
X151884234Y-137654185D03*
%TO.N,/D+*%
X151534620Y-136934620D03*
X150550000Y-136080760D03*
%TD*%
D49*
%TO.N,GND*%
X146430000Y-139160000D02*
X155070000Y-139160000D01*
%TO.N,/VBUS*%
X170288838Y-75423000D02*
X169843419Y-75868419D01*
X179290156Y-75423000D02*
X170288838Y-75423000D01*
X180127000Y-76259844D02*
X179290156Y-75423000D01*
X180127000Y-83347000D02*
X180127000Y-76259844D01*
X182464000Y-85684000D02*
X180127000Y-83347000D01*
X183324000Y-85684000D02*
X182464000Y-85684000D01*
X184000000Y-86360000D02*
X183324000Y-85684000D01*
X184000000Y-93437925D02*
X184000000Y-86360000D01*
X183999000Y-93438925D02*
X184000000Y-93437925D01*
X183999000Y-94061075D02*
X183999000Y-93438925D01*
X184000000Y-125400000D02*
X184000000Y-94062075D01*
X180525000Y-128875000D02*
X184000000Y-125400000D01*
X174475000Y-128875000D02*
X180525000Y-128875000D01*
X166602811Y-131732981D02*
X171617019Y-131732981D01*
X184000000Y-94062075D02*
X183999000Y-94061075D01*
X160660000Y-136840000D02*
X161495792Y-136840000D01*
X159820000Y-137680000D02*
X160660000Y-136840000D01*
X171617019Y-131732981D02*
X174475000Y-128875000D01*
X154756012Y-137680000D02*
X159820000Y-137680000D01*
X161495792Y-136840000D02*
X166602811Y-131732981D01*
X154525310Y-137783690D02*
X154652322Y-137783690D01*
X154400000Y-137909000D02*
X154525310Y-137783690D01*
X154652322Y-137783690D02*
X154756012Y-137680000D01*
%TO.N,VDD33*%
X156523942Y-96801000D02*
X164800934Y-96801000D01*
X154375000Y-102100000D02*
X154375000Y-101162620D01*
X126151000Y-98276000D02*
X125000000Y-97125000D01*
X164800934Y-96801000D02*
X164886925Y-96801000D01*
X141645000Y-124355000D02*
X141682500Y-124317500D01*
X166062925Y-95625000D02*
X174425000Y-95625000D01*
D50*
X152773445Y-123480934D02*
X152758379Y-123496000D01*
D49*
X175702708Y-94351000D02*
X173075000Y-91723292D01*
D50*
X154945376Y-124203788D02*
X154945376Y-124195376D01*
D49*
X155526000Y-98873942D02*
X155526000Y-97798942D01*
X177236500Y-94351000D02*
X175702708Y-94351000D01*
X141682500Y-124105000D02*
X141682500Y-124317500D01*
X122390000Y-76870000D02*
X124720000Y-74540000D01*
X159700000Y-127850000D02*
X159700000Y-125550000D01*
X125000000Y-97125000D02*
X126474000Y-95651000D01*
X171113925Y-95626000D02*
X169300000Y-93812075D01*
X132250000Y-84625000D02*
X131850000Y-85025000D01*
X133773000Y-98802000D02*
X129402000Y-98802000D01*
X155526000Y-97798942D02*
X156523942Y-96801000D01*
X147740000Y-114255000D02*
X146710000Y-115285000D01*
X144432500Y-122955000D02*
X142832500Y-122955000D01*
X173075000Y-91723292D02*
X172651000Y-91299292D01*
X146710000Y-115285000D02*
X142907500Y-119087500D01*
X135875000Y-76190000D02*
X137220000Y-74845000D01*
X123050000Y-91849942D02*
X123050000Y-92397942D01*
X147087500Y-102476838D02*
X147051838Y-102476838D01*
X130200000Y-94275000D02*
X131850000Y-92625000D01*
X147087500Y-102476838D02*
X147294000Y-102683338D01*
X125550000Y-89250000D02*
X131850000Y-89250000D01*
X154851000Y-99548942D02*
X155526000Y-98873942D01*
X147294000Y-102683338D02*
X147294000Y-106405196D01*
X172849000Y-95626000D02*
X171113925Y-95626000D01*
D50*
X144545000Y-124805000D02*
X143855000Y-124805000D01*
D49*
X131850000Y-85025000D02*
X131850000Y-89250000D01*
X154851000Y-100686620D02*
X154851000Y-99548942D01*
X131850000Y-92625000D02*
X131850000Y-89250000D01*
X174425000Y-95625000D02*
X172850000Y-95625000D01*
X137220000Y-74845000D02*
X137975000Y-74090000D01*
X160720000Y-122180000D02*
X161057500Y-122180000D01*
X136624000Y-95951000D02*
X133773000Y-98802000D01*
X118700000Y-80830000D02*
X118700000Y-78290000D01*
X122180000Y-90979942D02*
X123050000Y-91849942D01*
X118700000Y-83370000D02*
X118700000Y-80830000D01*
D50*
X145169624Y-124203788D02*
X145146212Y-124203788D01*
D49*
X154375000Y-101162620D02*
X154851000Y-100686620D01*
X118700000Y-83360000D02*
X120128116Y-84788116D01*
D50*
X147586654Y-122891000D02*
X145854412Y-122891000D01*
D49*
X137220000Y-74845000D02*
X136575000Y-75490000D01*
X122180000Y-86850000D02*
X122180000Y-90979942D01*
X147294000Y-106405196D02*
X148075000Y-107186196D01*
X145562529Y-97587471D02*
X143926058Y-95951000D01*
D50*
X154230934Y-123480934D02*
X152773445Y-123480934D01*
D49*
X146710000Y-113715000D02*
X146710000Y-115285000D01*
X173075000Y-91723292D02*
X173075000Y-90800000D01*
X118700000Y-83370000D02*
X122180000Y-86850000D01*
X118700000Y-83370000D02*
X122390000Y-79680000D01*
X159725000Y-123325000D02*
X159725000Y-123175000D01*
X148075000Y-107186196D02*
X148075000Y-112350000D01*
X123050000Y-92397942D02*
X123050000Y-95175000D01*
X141682500Y-124317500D02*
X141970000Y-124317500D01*
X132250000Y-84250000D02*
X132250000Y-84625000D01*
X169300000Y-93812075D02*
X169300000Y-93150000D01*
D50*
X154945376Y-124195376D02*
X154230934Y-123480934D01*
D49*
X124720000Y-74540000D02*
X132440000Y-74540000D01*
X161100000Y-129062500D02*
X158487500Y-129062500D01*
X148075000Y-112350000D02*
X146710000Y-113715000D01*
D50*
X152758379Y-123496000D02*
X148191654Y-123496000D01*
D51*
X144432500Y-122943336D02*
X145169624Y-122206212D01*
D49*
X122390000Y-79680000D02*
X122390000Y-76870000D01*
X126474000Y-95651000D02*
X129049000Y-95651000D01*
X178412500Y-89600000D02*
X178412500Y-93175000D01*
D50*
X145146212Y-124203788D02*
X144545000Y-124805000D01*
D49*
X138857500Y-124367500D02*
X139357500Y-124367500D01*
D50*
X157682500Y-122167500D02*
X158407500Y-122167500D01*
D49*
X139370000Y-124355000D02*
X141645000Y-124355000D01*
X129402000Y-98802000D02*
X128876000Y-98276000D01*
X135845000Y-76160000D02*
X135875000Y-76190000D01*
X164886925Y-96801000D02*
X166062925Y-95625000D01*
X172850000Y-95625000D02*
X172849000Y-95626000D01*
D50*
X148191654Y-123496000D02*
X147586654Y-122891000D01*
D49*
X139357500Y-124367500D02*
X139370000Y-124355000D01*
X130200000Y-94500000D02*
X130200000Y-94275000D01*
X147051838Y-102476838D02*
X145562529Y-100987529D01*
D50*
X145854412Y-122891000D02*
X145169624Y-122206212D01*
D49*
X142832500Y-122955000D02*
X141682500Y-124105000D01*
X137975000Y-74090000D02*
X141150000Y-74090000D01*
X132440000Y-74540000D02*
X134060000Y-76160000D01*
X161057500Y-122180000D02*
X158420000Y-122180000D01*
X153925000Y-102550000D02*
X154375000Y-102100000D01*
X132250000Y-81550000D02*
X132250000Y-84250000D01*
D50*
X154945376Y-124195376D02*
X155300000Y-124550000D01*
D49*
X158487500Y-129062500D02*
X158375000Y-129175000D01*
X142907500Y-119087500D02*
X142907500Y-121280000D01*
D50*
X155300000Y-124550000D02*
X157682500Y-122167500D01*
D49*
X158420000Y-122180000D02*
X158407500Y-122167500D01*
X145562529Y-100987529D02*
X145562529Y-97587471D01*
X123050000Y-95175000D02*
X125000000Y-97125000D01*
D52*
X157795000Y-122167500D02*
X158407500Y-122167500D01*
D49*
X129049000Y-95651000D02*
X130200000Y-94500000D01*
D51*
X144432500Y-122955000D02*
X144432500Y-122943336D01*
D50*
X142832500Y-123782500D02*
X142832500Y-122992500D01*
D49*
X158375000Y-129175000D02*
X159700000Y-127850000D01*
X172651000Y-91299292D02*
X172651000Y-90800000D01*
X128876000Y-98276000D02*
X126151000Y-98276000D01*
D50*
X143855000Y-124805000D02*
X142832500Y-123782500D01*
D49*
X178412500Y-93175000D02*
X177236500Y-94351000D01*
X143926058Y-95951000D02*
X136624000Y-95951000D01*
X159725000Y-123175000D02*
X160720000Y-122180000D01*
X134060000Y-76160000D02*
X135845000Y-76160000D01*
%TO.N,GND*%
X155853924Y-125021076D02*
X155836001Y-125021076D01*
X133132500Y-126855000D02*
X132945000Y-127042500D01*
X142808500Y-129379000D02*
X144331500Y-127856000D01*
X153421000Y-109979000D02*
X151927292Y-109979000D01*
X162075000Y-72820000D02*
X163295000Y-72820000D01*
X143475000Y-122012500D02*
X143475000Y-122000000D01*
D51*
X149282500Y-122880000D02*
X149282500Y-122853500D01*
D49*
X130175000Y-81550000D02*
X130175000Y-84250000D01*
D51*
X150032500Y-122130000D02*
X150032500Y-118490968D01*
D49*
X144659000Y-136751000D02*
X146430000Y-134980000D01*
X133132500Y-124380000D02*
X133132500Y-126855000D01*
D51*
X154579096Y-124557342D02*
X154591822Y-124557342D01*
X150032500Y-122130000D02*
X150907500Y-123005000D01*
D49*
X157210740Y-131350000D02*
X158379739Y-130181001D01*
D50*
X135109208Y-123305000D02*
X136705792Y-123305000D01*
D49*
X163999131Y-129001793D02*
X162950630Y-127953292D01*
X137757500Y-130930000D02*
X139282500Y-132455000D01*
X152331000Y-110828500D02*
X152357500Y-110855000D01*
X143658500Y-121241500D02*
X143995000Y-120905000D01*
D50*
X168699130Y-122308502D02*
X168596629Y-122206001D01*
D49*
X136705000Y-72820000D02*
X141150000Y-72820000D01*
X158379739Y-130181001D02*
X162520000Y-130181001D01*
D50*
X165050630Y-128679502D02*
X163999131Y-129731001D01*
D49*
X176337500Y-89600000D02*
X176337500Y-88122500D01*
X143995000Y-120905000D02*
X144575520Y-120905000D01*
D50*
X171075000Y-88850000D02*
X171075000Y-90800000D01*
D49*
X157757500Y-124242500D02*
X157025000Y-124975000D01*
D50*
X163999131Y-124881001D02*
X164074129Y-124881001D01*
D49*
X130175000Y-79800000D02*
X128275000Y-77900000D01*
X132275000Y-94500000D02*
X132275000Y-97075000D01*
X155237500Y-130437500D02*
X156150000Y-131350000D01*
X133530000Y-94500000D02*
X133580000Y-94450000D01*
D51*
X149282500Y-125042500D02*
X149275000Y-125050000D01*
D49*
X137757500Y-129180000D02*
X138870000Y-128067500D01*
D50*
X169648130Y-126154501D02*
X169648130Y-123257502D01*
D49*
X162950630Y-127953292D02*
X162065792Y-127953292D01*
X147000000Y-79140000D02*
X147000000Y-77420000D01*
D50*
X133365226Y-129442500D02*
X134465226Y-130542500D01*
X171075000Y-91286510D02*
X171075000Y-90800000D01*
X169648130Y-123257502D02*
X168596629Y-122206001D01*
D49*
X138870000Y-128067500D02*
X138870000Y-127630000D01*
D50*
X165050630Y-125932500D02*
X165050630Y-128679502D01*
D49*
X149207500Y-108655000D02*
X149207500Y-106392500D01*
D50*
X169380000Y-91575000D02*
X170786510Y-91575000D01*
D49*
X141682500Y-122242500D02*
X142138020Y-122242500D01*
X135037500Y-132892500D02*
X135037500Y-132467500D01*
X135037500Y-132467500D02*
X134975000Y-132405000D01*
X133225000Y-129417500D02*
X133200000Y-129442500D01*
X134975000Y-132405000D02*
X134975000Y-131600000D01*
D51*
X147644498Y-126678662D02*
X146609996Y-127713164D01*
D49*
X134034208Y-124380000D02*
X135109208Y-123305000D01*
X157025000Y-124975000D02*
X155900000Y-124975000D01*
X163999131Y-129731001D02*
X163999131Y-129001793D01*
X162075000Y-72820000D02*
X162594892Y-72820000D01*
X138857500Y-122292500D02*
X139357500Y-122292500D01*
X127175000Y-81550000D02*
X128600000Y-81550000D01*
X146525000Y-130337500D02*
X146525000Y-128206000D01*
X127210000Y-81585000D02*
X127175000Y-81550000D01*
X132275000Y-94500000D02*
X133530000Y-94500000D01*
X134975000Y-131600000D02*
X134975000Y-131731000D01*
D51*
X154591822Y-124557342D02*
X155287230Y-125252750D01*
D49*
X137718292Y-122292500D02*
X136705792Y-123305000D01*
X152331000Y-110382708D02*
X152331000Y-110828500D01*
X147000000Y-77420000D02*
X142400000Y-72820000D01*
D50*
X170786510Y-91575000D02*
X171075000Y-91286510D01*
D49*
X142808500Y-132005196D02*
X142808500Y-129379000D01*
X152357500Y-113792500D02*
X152820000Y-114255000D01*
X142400000Y-72820000D02*
X141150000Y-72820000D01*
D50*
X168699130Y-123481000D02*
X168699130Y-122308502D01*
D49*
X128600000Y-81550000D02*
X130175000Y-81550000D01*
X139282500Y-132455000D02*
X142358696Y-132455000D01*
X135875000Y-73650000D02*
X136705000Y-72820000D01*
D51*
X144575520Y-120905000D02*
X144557500Y-120905000D01*
D49*
X134725000Y-130667500D02*
X134600000Y-130542500D01*
X156150000Y-131350000D02*
X157210740Y-131350000D01*
X155836001Y-125021076D02*
X155582077Y-125275000D01*
X146237500Y-130625000D02*
X146525000Y-130337500D01*
X133132500Y-124380000D02*
X134034208Y-124380000D01*
X144331500Y-127856000D02*
X146175000Y-127856000D01*
X137757500Y-130930000D02*
X137757500Y-129180000D01*
X146525000Y-128206000D02*
X146175000Y-127856000D01*
D50*
X133200000Y-129442500D02*
X133365226Y-129442500D01*
D51*
X146609996Y-127713164D02*
X146609996Y-127856000D01*
D49*
X142358696Y-132455000D02*
X142808500Y-132005196D01*
X143658500Y-121816500D02*
X143658500Y-121241500D01*
X152357500Y-110855000D02*
X152357500Y-113792500D01*
X125550000Y-86950000D02*
X125550000Y-85910000D01*
D50*
X133390226Y-129317500D02*
X133390226Y-129377274D01*
D49*
X138857500Y-122292500D02*
X137718292Y-122292500D01*
D51*
X149282500Y-122880000D02*
X150032500Y-122130000D01*
D49*
X158650000Y-72820000D02*
X162075000Y-72820000D01*
X141645000Y-122280000D02*
X141682500Y-122242500D01*
X163549131Y-130181001D02*
X163999131Y-129731001D01*
X158407500Y-124242500D02*
X157757500Y-124242500D01*
X162520000Y-130181001D02*
X162520000Y-130132001D01*
D50*
X133390226Y-129377274D02*
X133325000Y-129442500D01*
D49*
X132925000Y-128617500D02*
X133225000Y-128917500D01*
X127210000Y-84250000D02*
X130175000Y-84250000D01*
X169572500Y-77197500D02*
X166150000Y-73775000D01*
X149800000Y-79140000D02*
X156120000Y-72820000D01*
X144190000Y-84750000D02*
X144190000Y-90580000D01*
X181970000Y-80810000D02*
X181970000Y-83350000D01*
X128350000Y-77975000D02*
X128275000Y-77900000D01*
X158407500Y-124242500D02*
X160470000Y-124242500D01*
X156700000Y-106700000D02*
X153421000Y-109979000D01*
X142538500Y-136751000D02*
X144659000Y-136751000D01*
D50*
X164074129Y-124881001D02*
X165399130Y-123556000D01*
D49*
X146175000Y-127856000D02*
X146609996Y-127856000D01*
D51*
X150032500Y-118490968D02*
X152820000Y-115703468D01*
X153993688Y-123971934D02*
X154579096Y-124557342D01*
D50*
X168596630Y-127206001D02*
X169648130Y-126154501D01*
D49*
X158075000Y-134000000D02*
X159430000Y-134000000D01*
X156120000Y-72820000D02*
X158650000Y-72820000D01*
X139357500Y-122292500D02*
X139370000Y-122280000D01*
X151927292Y-109979000D02*
X152331000Y-110382708D01*
X162520000Y-130181001D02*
X163549131Y-130181001D01*
D50*
X163999131Y-124881001D02*
X165050630Y-125932500D01*
D49*
X149207500Y-106392500D02*
X148145000Y-105330000D01*
X159430000Y-134000000D02*
X160800000Y-134000000D01*
X134975000Y-130767500D02*
X134875000Y-130667500D01*
X163295000Y-72820000D02*
X164250000Y-73775000D01*
D50*
X134465226Y-130542500D02*
X134600000Y-130542500D01*
D49*
X155900000Y-124975000D02*
X155853924Y-125021076D01*
X134975000Y-131600000D02*
X134975000Y-130767500D01*
X132925000Y-127042500D02*
X132925000Y-128617500D01*
X141682500Y-122242500D02*
X143245000Y-122242500D01*
X143245000Y-122242500D02*
X143475000Y-122012500D01*
D51*
X152820000Y-115703468D02*
X152820000Y-114255000D01*
D49*
X176337500Y-93175000D02*
X176337500Y-89600000D01*
D51*
X145523178Y-121852658D02*
X144575520Y-120905000D01*
D49*
X127417500Y-77042500D02*
X128275000Y-77900000D01*
X149457500Y-108655000D02*
X150781500Y-109979000D01*
D51*
X149282500Y-122853500D02*
X149275000Y-122846000D01*
D49*
X133225000Y-128917500D02*
X133225000Y-129417500D01*
X155237500Y-130625000D02*
X155237500Y-130437500D01*
X132275000Y-97075000D02*
X132225000Y-97125000D01*
X141737500Y-135950000D02*
X142538500Y-136751000D01*
X147000000Y-81940000D02*
X144190000Y-84750000D01*
D51*
X149282500Y-125040660D02*
X149282500Y-125042500D01*
D49*
X176337500Y-88122500D02*
X178405000Y-86055000D01*
X134875000Y-130667500D02*
X134725000Y-130667500D01*
D50*
X171575000Y-88350000D02*
X171075000Y-88850000D01*
D49*
X166150000Y-73775000D02*
X164250000Y-73775000D01*
X161057500Y-126945000D02*
X161057500Y-124255000D01*
X146585000Y-134980000D02*
X147500000Y-134065000D01*
X150781500Y-109979000D02*
X151927292Y-109979000D01*
X155582077Y-125275000D02*
X155450000Y-125275000D01*
D51*
X147644498Y-126678662D02*
X149282500Y-125040660D01*
D49*
X125300000Y-77042500D02*
X127417500Y-77042500D01*
D50*
X133325000Y-129442500D02*
X133200000Y-129442500D01*
D49*
X125550000Y-85910000D02*
X127210000Y-84250000D01*
X146430000Y-134980000D02*
X146585000Y-134980000D01*
X149207500Y-108655000D02*
X149457500Y-108655000D01*
X130175000Y-81550000D02*
X130175000Y-79800000D01*
X162065792Y-127953292D02*
X161057500Y-126945000D01*
X139370000Y-122280000D02*
X141645000Y-122280000D01*
X169575000Y-77197500D02*
X169572500Y-77197500D01*
X155070000Y-134980000D02*
X154915000Y-134980000D01*
X147000000Y-79840000D02*
X147000000Y-81240000D01*
X127210000Y-84250000D02*
X127210000Y-81585000D01*
X143475000Y-122000000D02*
X143658500Y-121816500D01*
%TO.N,/EXT_5V*%
X128200000Y-94800000D02*
X127900000Y-94500000D01*
X137175000Y-134975000D02*
X136800000Y-134600000D01*
X139633792Y-121250000D02*
X139753636Y-121250000D01*
X123690000Y-85695000D02*
X123690000Y-90260000D01*
X135160208Y-121254000D02*
X139629792Y-121254000D01*
X139629792Y-121254000D02*
X139633792Y-121250000D01*
X128615181Y-99140181D02*
X128582669Y-99107669D01*
X139753636Y-121250000D02*
X146009000Y-114994636D01*
X123690000Y-90260000D02*
X124980000Y-91550000D01*
X132271000Y-121304000D02*
X133879792Y-121304000D01*
X143635694Y-96652000D02*
X136914364Y-96652000D01*
X136800000Y-134600000D02*
X132725000Y-134600000D01*
X131725000Y-133600000D02*
X131725000Y-121850000D01*
X144950000Y-101366364D02*
X144861529Y-101277893D01*
X124980000Y-91550000D02*
X125550000Y-91550000D01*
X146009000Y-113424636D02*
X147374000Y-112059636D01*
X144861529Y-97877835D02*
X143635694Y-96652000D01*
X132725000Y-134600000D02*
X131725000Y-133600000D01*
X127050000Y-94500000D02*
X127050000Y-93050000D01*
X135139208Y-121275000D02*
X135160208Y-121254000D01*
X127900000Y-94500000D02*
X127050000Y-94500000D01*
X129111636Y-99503000D02*
X128748817Y-99140181D01*
X133908792Y-121275000D02*
X135139208Y-121275000D01*
X144950000Y-101400000D02*
X144950000Y-101366364D01*
X147374000Y-112059636D02*
X147374000Y-107799000D01*
X136914364Y-96652000D02*
X134063364Y-99503000D01*
X131725000Y-121850000D02*
X132271000Y-121304000D01*
X146575000Y-107000000D02*
X146575000Y-103025000D01*
X128582669Y-99107669D02*
X128582669Y-99043331D01*
X128748817Y-99140181D02*
X128615181Y-99140181D01*
X146575000Y-103025000D02*
X144950000Y-101400000D01*
X144861529Y-101277893D02*
X144861529Y-97877835D01*
X125135000Y-84250000D02*
X123690000Y-85695000D01*
X127050000Y-93050000D02*
X125550000Y-91550000D01*
X133879792Y-121304000D02*
X133908792Y-121275000D01*
X134063364Y-99503000D02*
X129111636Y-99503000D01*
X147374000Y-107799000D02*
X146575000Y-107000000D01*
X146009000Y-114994636D02*
X146009000Y-113424636D01*
D50*
%TO.N,/EN*%
X135669370Y-95350000D02*
X135556529Y-95350000D01*
X147594822Y-101842500D02*
X148120000Y-101842500D01*
X132475000Y-77900000D02*
X133305000Y-78730000D01*
X132818370Y-98201000D02*
X131226000Y-98201000D01*
X124897500Y-79117500D02*
X123830000Y-78050000D01*
X135669370Y-95350000D02*
X135424685Y-95594685D01*
X135313265Y-95106735D02*
X134674000Y-94467471D01*
X135424685Y-95594685D02*
X135424685Y-95218155D01*
X123830000Y-78050000D02*
X123830000Y-76330000D01*
X144175000Y-95350000D02*
X146200000Y-97375000D01*
X138465000Y-75360000D02*
X141150000Y-75360000D01*
X135424685Y-95218155D02*
X135313265Y-95106735D01*
X146200000Y-97375000D02*
X146200000Y-100447678D01*
X131226000Y-98201000D02*
X130150000Y-97125000D01*
X127000000Y-97125000D02*
X130150000Y-97125000D01*
X125300000Y-79117500D02*
X124897500Y-79117500D01*
X133305000Y-78730000D02*
X135875000Y-78730000D01*
X124670000Y-75490000D02*
X130065000Y-75490000D01*
X135424685Y-95594685D02*
X132818370Y-98201000D01*
X134674000Y-79931000D02*
X135875000Y-78730000D01*
X135556529Y-95350000D02*
X135313265Y-95106735D01*
X134674000Y-94467471D02*
X134674000Y-79931000D01*
X123830000Y-76330000D02*
X124670000Y-75490000D01*
X146200000Y-100447678D02*
X147594822Y-101842500D01*
X144175000Y-95350000D02*
X135669370Y-95350000D01*
X130065000Y-75490000D02*
X132475000Y-77900000D01*
X135875000Y-77950000D02*
X138465000Y-75360000D01*
%TO.N,/IO0*%
X160675000Y-89475000D02*
X158795000Y-89475000D01*
X158780646Y-103227837D02*
X156782483Y-105226000D01*
X154726000Y-105226000D02*
X154175000Y-104675000D01*
X158441741Y-104904211D02*
X158441741Y-103566742D01*
X159020000Y-102988483D02*
X158780646Y-103227837D01*
X151370000Y-104355000D02*
X151370000Y-99967500D01*
X151282500Y-108655000D02*
X151282500Y-106392500D01*
X156782483Y-105226000D02*
X154726000Y-105226000D01*
X159020000Y-100420000D02*
X159020000Y-102988483D01*
X151790000Y-104775000D02*
X152345000Y-105330000D01*
X158780646Y-105243116D02*
X158441741Y-104904211D01*
X158795000Y-89475000D02*
X158650000Y-89330000D01*
X151282500Y-106392500D02*
X152345000Y-105330000D01*
X150625000Y-104775000D02*
X151790000Y-104775000D01*
X158441741Y-103566742D02*
X158780646Y-103227837D01*
X152345000Y-105330000D02*
X151370000Y-104355000D01*
%TO.N,/STM32/NRST*%
X142057500Y-130830000D02*
X142057500Y-129080000D01*
X141707500Y-126855000D02*
X141732500Y-126880000D01*
X141732500Y-126880000D02*
X144757500Y-126880000D01*
X142057500Y-129080000D02*
X140945000Y-127967500D01*
X144757500Y-126880000D02*
X145132500Y-127255000D01*
X140945000Y-127967500D02*
X140945000Y-127630000D01*
X146361054Y-127255000D02*
X147290945Y-126325109D01*
X141707500Y-126867500D02*
X141707500Y-126855000D01*
X140945000Y-127630000D02*
X141707500Y-126867500D01*
X145132500Y-127255000D02*
X146361054Y-127255000D01*
%TO.N,/STM32/HSE_IN*%
X136484500Y-125807000D02*
X145209500Y-125807000D01*
X145615910Y-126213410D02*
X145988430Y-126213410D01*
X145209500Y-125807000D02*
X145615910Y-126213410D01*
X134625000Y-129067500D02*
X134625000Y-129417500D01*
X135000000Y-128692500D02*
X134625000Y-129067500D01*
X135020000Y-127042500D02*
X135070000Y-127042500D01*
X136305500Y-125807000D02*
X136484500Y-125807000D01*
X135000000Y-127042500D02*
X135000000Y-128692500D01*
X134625000Y-129417500D02*
X134600000Y-129442500D01*
X135070000Y-127042500D02*
X136305500Y-125807000D01*
X145988430Y-126213410D02*
X146583838Y-125618002D01*
%TO.N,/STM32/HSE_OUT*%
X135650870Y-133968500D02*
X136532500Y-133086870D01*
X145023980Y-126330000D02*
X145408390Y-126714410D01*
X132900000Y-130967500D02*
X133200000Y-130667500D01*
X138460500Y-126330000D02*
X145023980Y-126330000D01*
X134058500Y-133968500D02*
X135650870Y-133968500D01*
X133200000Y-130667500D02*
X133200000Y-130542500D01*
X132962500Y-132467500D02*
X132900000Y-132405000D01*
X132900000Y-132405000D02*
X132900000Y-130967500D01*
X136532500Y-133086870D02*
X136532500Y-128258000D01*
X136532500Y-128258000D02*
X138460500Y-126330000D01*
X146194536Y-126714410D02*
X146937391Y-125971555D01*
X145408390Y-126714410D02*
X146194536Y-126714410D01*
X132982500Y-132892500D02*
X134058500Y-133968500D01*
X132962500Y-132892500D02*
X132962500Y-132467500D01*
%TO.N,Net-(D1-A)*%
X124560000Y-94500000D02*
X125050000Y-94500000D01*
X123740000Y-93680000D02*
X124560000Y-94500000D01*
X124175000Y-84360058D02*
X123070000Y-85465058D01*
X123070000Y-91020000D02*
X123740000Y-91690000D01*
X123740000Y-91690000D02*
X123740000Y-93680000D01*
X123070000Y-85465058D02*
X123070000Y-91020000D01*
X125125000Y-81550000D02*
X124175000Y-82500000D01*
X124175000Y-82500000D02*
X124175000Y-84360058D01*
%TO.N,Net-(J1-Pin_2)*%
X150280000Y-113935000D02*
X150280000Y-114255000D01*
X150330000Y-112080000D02*
X151280000Y-111130000D01*
X150280000Y-112080000D02*
X150330000Y-112080000D01*
X150150000Y-113675000D02*
X150410000Y-113935000D01*
X150280000Y-112080000D02*
X150280000Y-113675000D01*
%TO.N,Net-(D6-K)*%
X171075000Y-85900000D02*
X171075000Y-84925000D01*
X172875000Y-83125000D02*
X172875000Y-80850000D01*
X173925000Y-79800000D02*
X173925000Y-79200000D01*
X171075000Y-84925000D02*
X172875000Y-83125000D01*
X172875000Y-80850000D02*
X173925000Y-79800000D01*
%TO.N,Net-(D6-A)*%
X178227500Y-77150000D02*
X178275000Y-77197500D01*
X173925000Y-77150000D02*
X178227500Y-77150000D01*
%TO.N,Net-(D7-A)*%
X178275000Y-83475000D02*
X175550000Y-83475000D01*
X174988500Y-82896630D02*
X173937500Y-81845630D01*
X175550000Y-83475000D02*
X174988500Y-82913500D01*
X174988500Y-82913500D02*
X174988500Y-82896630D01*
X173937500Y-81845630D02*
X173937500Y-81427500D01*
%TO.N,Net-(D7-K)*%
X173237500Y-83477500D02*
X171575000Y-85140000D01*
X173937500Y-83477500D02*
X173237500Y-83477500D01*
X171575000Y-85140000D02*
X171575000Y-85900000D01*
%TO.N,Net-(D8-A)*%
X166001630Y-127206000D02*
X166001630Y-129683500D01*
X166001630Y-129683500D02*
X166049129Y-129730999D01*
%TO.N,Net-(D9-A)*%
X166049129Y-122353499D02*
X166001630Y-122306000D01*
X166049129Y-124880999D02*
X166049129Y-122353499D01*
%TO.N,Net-(D10-A)*%
X170599130Y-127253501D02*
X170646630Y-127206001D01*
X170599130Y-129731001D02*
X170599130Y-127253501D01*
%TO.N,Net-(D11-A)*%
X170599130Y-122253502D02*
X170646631Y-122206001D01*
X170599130Y-124881002D02*
X170599130Y-122253502D01*
D51*
%TO.N,/STM32/PA5*%
X151763395Y-127385769D02*
X150575000Y-126197374D01*
X150527626Y-126197374D02*
X150525000Y-126200000D01*
X150575000Y-126197374D02*
X150527626Y-126197374D01*
%TO.N,/STM32/SWDIO*%
X153626000Y-117149000D02*
X153625000Y-117150000D01*
X179350000Y-93892728D02*
X179350000Y-88000000D01*
X153626000Y-117125000D02*
X153626000Y-117149000D01*
X153625000Y-117162626D02*
X151763395Y-119024231D01*
X154973758Y-115876517D02*
X154970000Y-115872759D01*
X180365000Y-86985000D02*
X181975000Y-86985000D01*
X154970000Y-115872759D02*
X154970000Y-112849764D01*
X153625000Y-117150000D02*
X153625000Y-117162626D01*
X177942728Y-95300000D02*
X179350000Y-93892728D01*
X154970000Y-112849764D02*
X171219764Y-96600000D01*
X179350000Y-88000000D02*
X180365000Y-86985000D01*
X171219764Y-96600000D02*
X174325000Y-96600000D01*
X176475000Y-95300000D02*
X177942728Y-95300000D01*
%TO.N,/STM32/PA2*%
X119891000Y-121196000D02*
X118700000Y-120005000D01*
X129110000Y-130610000D02*
X119891000Y-121391000D01*
X149058712Y-128883712D02*
X150025000Y-129850000D01*
X119891000Y-121391000D02*
X119891000Y-121196000D01*
X149058712Y-128092876D02*
X149058712Y-128883712D01*
X130000000Y-130610000D02*
X129110000Y-130610000D01*
%TO.N,/STM32/SWCLK*%
X144270529Y-101895529D02*
X144270529Y-98122635D01*
X122430000Y-96288864D02*
X122430000Y-92065741D01*
X143390894Y-97243000D02*
X137159164Y-97243000D01*
X144270529Y-98122635D02*
X143390894Y-97243000D01*
X149525000Y-116700000D02*
X149525000Y-117817424D01*
X137159164Y-97243000D02*
X134308164Y-100094000D01*
X120921000Y-89206000D02*
X118700000Y-86985000D01*
X120921000Y-90556741D02*
X120921000Y-89206000D01*
X149058712Y-118283712D02*
X149058712Y-118317124D01*
X126235136Y-100094000D02*
X122430000Y-96288864D01*
X149525000Y-117817424D02*
X149058712Y-118283712D01*
X134308164Y-100094000D02*
X126235136Y-100094000D01*
X145675000Y-103300000D02*
X144270529Y-101895529D01*
X122430000Y-92065741D02*
X120921000Y-90556741D01*
%TO.N,/STM32/PA6*%
X152116949Y-127032215D02*
X153734734Y-128650000D01*
X153734734Y-128650000D02*
X153750000Y-128650000D01*
%TO.N,/STM32/PA15*%
X119667011Y-89982989D02*
X119532893Y-89848871D01*
X149392500Y-119358020D02*
X149392500Y-119800000D01*
D50*
X119209022Y-89525000D02*
X119667011Y-89982989D01*
D51*
X121640000Y-91955978D02*
X121640000Y-96179100D01*
X133200000Y-100575000D02*
X141200000Y-108575000D01*
X119667011Y-89982989D02*
X121640000Y-91955978D01*
X148705158Y-118670678D02*
X149392500Y-119358020D01*
X126035900Y-100575000D02*
X133200000Y-100575000D01*
D50*
X118700000Y-89525000D02*
X119209022Y-89525000D01*
D51*
X146025000Y-108575000D02*
X146050000Y-108550000D01*
X121640000Y-96179100D02*
X126035900Y-100575000D01*
X141200000Y-108575000D02*
X146025000Y-108575000D01*
%TO.N,/STM32/PA8*%
X179900000Y-90175000D02*
X179925000Y-90175000D01*
X179900000Y-94022964D02*
X179900000Y-90175000D01*
X174270016Y-97400000D02*
X174271785Y-97398231D01*
X171100000Y-97400000D02*
X174270016Y-97400000D01*
X176702271Y-96067041D02*
X177855923Y-96067041D01*
X155665380Y-116584620D02*
X155665380Y-112834620D01*
X155665380Y-112834620D02*
X171100000Y-97400000D01*
X152148160Y-122175000D02*
X152050000Y-122175000D01*
X180575000Y-89525000D02*
X181975000Y-89525000D01*
X177855923Y-96067041D02*
X179900000Y-94022964D01*
X179925000Y-90175000D02*
X180575000Y-89525000D01*
X153531162Y-120791998D02*
X152148160Y-122175000D01*
%TO.N,/STM32/PA0*%
X129575000Y-128950000D02*
X120853000Y-120228000D01*
X129575000Y-129150000D02*
X129575000Y-128950000D01*
X120853000Y-120228000D02*
X120853000Y-117703000D01*
X149587374Y-126150000D02*
X149625000Y-126150000D01*
X120853000Y-117703000D02*
X118700000Y-115550000D01*
X118700000Y-115550000D02*
X118700000Y-114925000D01*
X148351605Y-127385769D02*
X149587374Y-126150000D01*
%TO.N,/STM32/PA1*%
X118700000Y-118225000D02*
X118700000Y-117465000D01*
X120372000Y-121122000D02*
X120372000Y-119897000D01*
X129115611Y-129865611D02*
X120372000Y-121122000D01*
X149544480Y-126900000D02*
X149950000Y-126900000D01*
X130293067Y-129865611D02*
X129115611Y-129865611D01*
X120372000Y-119897000D02*
X118700000Y-118225000D01*
X148705158Y-127739322D02*
X149544480Y-126900000D01*
D50*
%TO.N,/STM32/PC13*%
X119900000Y-111886529D02*
X119900000Y-111700000D01*
X135907500Y-124305000D02*
X135845000Y-124305000D01*
X130911575Y-127832229D02*
X130975000Y-127832229D01*
X129502811Y-126423465D02*
X121891000Y-118811654D01*
X119900000Y-113580622D02*
X119900000Y-112883471D01*
X136908500Y-125306000D02*
X144774520Y-125306000D01*
X119901000Y-111887529D02*
X119900000Y-111886529D01*
X129502811Y-126423465D02*
X130911575Y-127832229D01*
X118700000Y-110500000D02*
X118700000Y-109845000D01*
X119901000Y-112882471D02*
X119901000Y-111887529D01*
X119900000Y-111700000D02*
X118700000Y-110500000D01*
X135845000Y-124305000D02*
X134525000Y-125625000D01*
X144774520Y-125306000D02*
X145523178Y-124557342D01*
X119900000Y-112883471D02*
X119901000Y-112882471D01*
X121891000Y-115571622D02*
X119900000Y-113580622D01*
X121891000Y-118811654D02*
X121891000Y-115571622D01*
X135907500Y-124305000D02*
X136908500Y-125306000D01*
D51*
%TO.N,/STM32/PB6*%
X121881000Y-107470527D02*
X120853000Y-106442528D01*
X138400000Y-119200000D02*
X125875000Y-119200000D01*
X123825000Y-114770534D02*
X121881000Y-112826536D01*
X125850000Y-119225000D02*
X123825000Y-117200000D01*
X148756054Y-121550000D02*
X147290945Y-120084891D01*
X123825000Y-117200000D02*
X123825000Y-114770534D01*
X149100000Y-121550000D02*
X148756054Y-121550000D01*
X121881000Y-112826536D02*
X121881000Y-107470527D01*
X120853000Y-106442528D02*
X120853000Y-106413197D01*
X120525000Y-106085198D02*
X120525000Y-101510000D01*
X125875000Y-119200000D02*
X125850000Y-119225000D01*
X120853000Y-106413197D02*
X120525000Y-106085198D01*
X120525000Y-101510000D02*
X118700000Y-99685000D01*
%TO.N,/STM32/PA3*%
X150616954Y-128532210D02*
X151056288Y-128092876D01*
X150616954Y-129396701D02*
X150616954Y-128532210D01*
X130975000Y-131250000D02*
X128875000Y-131250000D01*
X150764106Y-129543853D02*
X150616954Y-129396701D01*
X120170000Y-122545000D02*
X118700000Y-122545000D01*
X128875000Y-131250000D02*
X120170000Y-122545000D01*
%TO.N,/STM32/PA7*%
X151131647Y-125243353D02*
X151131647Y-125331647D01*
X151131647Y-125331647D02*
X152470502Y-126670502D01*
X152470502Y-126670502D02*
X152470502Y-126678662D01*
%TO.N,/STM32/PA4*%
X152175000Y-128504480D02*
X152175000Y-129075000D01*
X151409842Y-127739322D02*
X152175000Y-128504480D01*
%TO.N,/STM32/PB7*%
X120025000Y-106265435D02*
X120025000Y-103550000D01*
X120372000Y-106612434D02*
X120025000Y-106265435D01*
X138725653Y-120100000D02*
X125825000Y-120100000D01*
X121400000Y-113025772D02*
X121400000Y-107669764D01*
X145893040Y-119394094D02*
X146937391Y-120438445D01*
X121400000Y-107669764D02*
X120372000Y-106641764D01*
X139012207Y-119813446D02*
X138725653Y-120100000D01*
X123344000Y-114969771D02*
X121400000Y-113025772D01*
X120372000Y-106641764D02*
X120372000Y-106612434D01*
X123344000Y-117619000D02*
X123344000Y-114969771D01*
X125825000Y-120100000D02*
X123344000Y-117619000D01*
X145893040Y-119181960D02*
X145893040Y-119394094D01*
X120025000Y-103550000D02*
X118700000Y-102225000D01*
%TO.N,/STM32/PB14*%
X179737511Y-74821025D02*
X179733536Y-74825000D01*
X168600000Y-74825000D02*
X167500000Y-73725000D01*
X153652861Y-122084513D02*
X154238269Y-121499105D01*
X179737511Y-74821025D02*
X179737511Y-74840467D01*
X179733536Y-74825000D02*
X168600000Y-74825000D01*
X153652861Y-122663750D02*
X153652861Y-122084513D01*
X153778574Y-122789463D02*
X153652861Y-122663750D01*
%TO.N,/STM32/I2C_SDA1*%
X154238269Y-124910895D02*
X154250995Y-124910895D01*
X155204981Y-125877607D02*
X154238269Y-124910895D01*
X156041546Y-125877607D02*
X155204981Y-125877607D01*
X154250995Y-124910895D02*
X154696230Y-125356130D01*
X154696230Y-125356130D02*
X154696230Y-125381584D01*
X156147076Y-125772076D02*
X156041546Y-125877607D01*
%TO.N,/STM32/PB5*%
X140900591Y-110375591D02*
X132543000Y-102018000D01*
X132543000Y-102018000D02*
X132525000Y-102036000D01*
X132525000Y-102036000D02*
X132525000Y-102177000D01*
X144537847Y-110375591D02*
X140900591Y-110375591D01*
X146875000Y-118950000D02*
X147644498Y-119719498D01*
X146350000Y-118400000D02*
X146875000Y-118925000D01*
X146350000Y-117414182D02*
X146350000Y-118400000D01*
X144810000Y-110647744D02*
X144537847Y-110375591D01*
%TO.N,/STM32/PB4*%
X145178847Y-109863653D02*
X145167500Y-109875000D01*
X132259489Y-101536000D02*
X132258489Y-101537000D01*
X132258489Y-101537000D02*
X125637428Y-101537000D01*
X132790511Y-101536000D02*
X132259489Y-101536000D01*
X133166000Y-101960764D02*
X133166000Y-101911489D01*
X141080236Y-109875000D02*
X133166000Y-101960764D01*
X119750000Y-95650000D02*
X119745000Y-95650000D01*
X145167500Y-109875000D02*
X141080236Y-109875000D01*
X125637428Y-101537000D02*
X121525000Y-97424572D01*
X121525000Y-97424572D02*
X121524572Y-97424572D01*
X149392500Y-120775000D02*
X149150000Y-120532500D01*
X119745000Y-95650000D02*
X118700000Y-94605000D01*
X149150000Y-120529734D02*
X147998051Y-119377785D01*
X133166000Y-101911489D02*
X132790511Y-101536000D01*
X149150000Y-120532500D02*
X149150000Y-120529734D01*
X121524572Y-97424572D02*
X119750000Y-95650000D01*
%TO.N,/STM32/PB9*%
X146617626Y-122240000D02*
X147250000Y-122240000D01*
X145876731Y-121499105D02*
X146617626Y-122240000D01*
X122382000Y-118432000D02*
X122382000Y-115368243D01*
X122382000Y-115368243D02*
X120425000Y-113411244D01*
X120425000Y-113411244D02*
X120425000Y-109875000D01*
X118700000Y-108150000D02*
X118700000Y-107305000D01*
X120425000Y-109875000D02*
X118700000Y-108150000D01*
X130900000Y-126950000D02*
X122382000Y-118432000D01*
%TO.N,/STM32/PB13*%
X176592378Y-108817622D02*
X176600000Y-108817622D01*
X158075000Y-120375000D02*
X156075000Y-120375000D01*
X176600000Y-98900000D02*
X176580000Y-98920000D01*
X154597342Y-121852658D02*
X154591822Y-121852658D01*
X179483298Y-96025000D02*
X180855000Y-96025000D01*
X169221000Y-116189000D02*
X176592378Y-108817622D01*
X156075000Y-120375000D02*
X154597342Y-121852658D01*
X165434924Y-116189000D02*
X169221000Y-116189000D01*
X178337471Y-97170827D02*
X179483298Y-96025000D01*
X176600000Y-108817622D02*
X176600000Y-98900000D01*
X163040000Y-118583924D02*
X165434924Y-116189000D01*
X180855000Y-96025000D02*
X181975000Y-97145000D01*
%TO.N,/STM32/PB2*%
X154724951Y-127025049D02*
X154724951Y-126811791D01*
X154724951Y-126811791D02*
X153531162Y-125618002D01*
%TO.N,/STM32/PB15*%
X156146380Y-113033857D02*
X156146380Y-115426380D01*
X177603200Y-97000000D02*
X181975000Y-92628200D01*
X161259000Y-116934000D02*
X162400000Y-118075000D01*
X181975000Y-92628200D02*
X181975000Y-92065000D01*
X170755237Y-98425000D02*
X156146380Y-113033857D01*
X174050000Y-98400000D02*
X174025000Y-98425000D01*
X153884715Y-121145551D02*
X153012861Y-122017405D01*
X174025000Y-98425000D02*
X170755237Y-98425000D01*
X176875000Y-97000000D02*
X177603200Y-97000000D01*
X174300000Y-98400000D02*
X174050000Y-98400000D01*
X153012861Y-122017405D02*
X153012861Y-122557765D01*
X157654000Y-116934000D02*
X161259000Y-116934000D01*
X156146380Y-115426380D02*
X157654000Y-116934000D01*
%TO.N,/STM32/PB3*%
X143475000Y-109175000D02*
X143480000Y-109170000D01*
X141119764Y-109175000D02*
X143475000Y-109175000D01*
X118700000Y-92065000D02*
X120820000Y-94185000D01*
X125836664Y-101056000D02*
X133000764Y-101056000D01*
X145675000Y-109175000D02*
X145792169Y-109292169D01*
X120820000Y-94185000D02*
X120820000Y-96039336D01*
X120820000Y-96039336D02*
X125836664Y-101056000D01*
X143494764Y-109175000D02*
X145675000Y-109175000D01*
X147725000Y-117075000D02*
X147725000Y-118397626D01*
X147725000Y-118397626D02*
X148351605Y-119024231D01*
X133000764Y-101056000D02*
X141119764Y-109175000D01*
X145792169Y-109292169D02*
X145792169Y-109350000D01*
%TO.N,/STM32/PB0*%
X156233292Y-128306049D02*
X154915834Y-128306049D01*
X154804995Y-128306049D02*
X152824055Y-126325109D01*
X154915834Y-128306049D02*
X154804995Y-128306049D01*
D50*
%TO.N,/STM32/PB12*%
X158471912Y-121083088D02*
X158463824Y-121075000D01*
X158463824Y-121075000D02*
X157830630Y-121075000D01*
X156380630Y-122525000D02*
X155264164Y-122525000D01*
X180140000Y-97850000D02*
X181975000Y-99685000D01*
X179000000Y-97825000D02*
X179025000Y-97850000D01*
X166030000Y-116680000D02*
X169510000Y-116680000D01*
X177709000Y-108481000D02*
X177709000Y-99041000D01*
X163656167Y-119053833D02*
X166030000Y-116680000D01*
X177709000Y-99041000D02*
X177775000Y-98975000D01*
X158471912Y-121069597D02*
X158471912Y-121083088D01*
X157830630Y-121075000D02*
X156380630Y-122525000D01*
X155264164Y-122525000D02*
X154945376Y-122206212D01*
X163656167Y-119094162D02*
X163656167Y-119053833D01*
X169510000Y-116680000D02*
X177709000Y-108481000D01*
X179025000Y-97850000D02*
X180140000Y-97850000D01*
D51*
%TO.N,/STM32/I2C_SCL1*%
X164815140Y-119989860D02*
X164815140Y-120104000D01*
X178700000Y-108290000D02*
X169630000Y-117360000D01*
X169630000Y-117360000D02*
X167445000Y-117360000D01*
X152568076Y-124456924D02*
X153077190Y-124456924D01*
X153077190Y-124456924D02*
X153884715Y-125264449D01*
X167445000Y-117360000D02*
X164815140Y-119989860D01*
%TO.N,/STM32/PC14*%
X147237626Y-123550000D02*
X147325000Y-123550000D01*
X121400000Y-115775000D02*
X118700000Y-113075000D01*
X130550000Y-128510000D02*
X130550000Y-128500000D01*
X118700000Y-113075000D02*
X118700000Y-112385000D01*
X130550000Y-128500000D02*
X121400000Y-119350000D01*
X145876731Y-124910895D02*
X147237626Y-123550000D01*
X121400000Y-119350000D02*
X121400000Y-115775000D01*
%TO.N,/STM32/PB8*%
X146230285Y-121145551D02*
X146220551Y-121145551D01*
X146220551Y-121145551D02*
X144150000Y-119075000D01*
X120906000Y-107856000D02*
X119891000Y-106841000D01*
X119193329Y-106114000D02*
X119164000Y-106114000D01*
X125650000Y-120650000D02*
X122863000Y-117863000D01*
X120906000Y-113212008D02*
X120906000Y-107856000D01*
X139292974Y-120650000D02*
X125650000Y-120650000D01*
X122863000Y-117863000D02*
X122863000Y-115169007D01*
X118700000Y-105650000D02*
X118700000Y-104765000D01*
X139481987Y-120460987D02*
X139292974Y-120650000D01*
X119891000Y-106841000D02*
X119891000Y-106811671D01*
X119164000Y-106114000D02*
X118700000Y-105650000D01*
X122863000Y-115169007D02*
X120906000Y-113212008D01*
X119891000Y-106811671D02*
X119193329Y-106114000D01*
%TO.N,/STM32/PB1*%
X153177609Y-125971555D02*
X151550000Y-124343946D01*
X151550000Y-124343946D02*
X151550000Y-124325000D01*
D50*
%TO.N,/IO27*%
X139175000Y-87175000D02*
X139560000Y-86790000D01*
X139560000Y-86790000D02*
X141150000Y-86790000D01*
X139240000Y-100540000D02*
X138625000Y-99925000D01*
X139736292Y-103688768D02*
X139240000Y-103192476D01*
X139240000Y-103192476D02*
X139240000Y-100540000D01*
%TO.N,/IO33*%
X137094260Y-92750740D02*
X137094260Y-90919260D01*
X137094260Y-90919260D02*
X137691020Y-90322500D01*
X137691020Y-88491020D02*
X138109520Y-88072520D01*
X135875000Y-93970000D02*
X137094260Y-92750740D01*
X140695000Y-82525000D02*
X141150000Y-82980000D01*
X137691020Y-90322500D02*
X137691020Y-88491020D01*
X139375000Y-82525000D02*
X140695000Y-82525000D01*
X138900280Y-85450280D02*
X138900280Y-82999720D01*
X138109520Y-88072520D02*
X138109520Y-86241040D01*
X138900280Y-82999720D02*
X139375000Y-82525000D01*
X138109520Y-86241040D02*
X138900280Y-85450280D01*
%TO.N,/SD3*%
X145831041Y-92676000D02*
X146392521Y-92676000D01*
X144982500Y-93367500D02*
X145667000Y-92683000D01*
X146392521Y-92676000D02*
X148000000Y-91068520D01*
X148000000Y-91068520D02*
X148000000Y-90580000D01*
X145667000Y-92683000D02*
X145824041Y-92683000D01*
X144982500Y-94075000D02*
X144982500Y-93367500D01*
X145824041Y-92683000D02*
X145831041Y-92676000D01*
%TO.N,/IO26*%
X139749800Y-85520000D02*
X141150000Y-85520000D01*
X137655646Y-102231884D02*
X137655646Y-99634590D01*
X139109900Y-86159900D02*
X139749800Y-85520000D01*
X137655646Y-99634590D02*
X137877821Y-99412415D01*
%TO.N,/SENSOR_VP*%
X137076000Y-79227471D02*
X137076000Y-77924000D01*
X138370000Y-76630000D02*
X141150000Y-76630000D01*
X135875000Y-81270000D02*
X135875000Y-80428471D01*
X137076000Y-77924000D02*
X138370000Y-76630000D01*
X135875000Y-80428471D02*
X137076000Y-79227471D01*
%TO.N,/IO34*%
X137175000Y-82425000D02*
X140430000Y-79170000D01*
X140430000Y-79170000D02*
X141150000Y-79170000D01*
X135875000Y-86350000D02*
X137175000Y-85050000D01*
X137175000Y-85050000D02*
X137175000Y-82425000D01*
%TO.N,/CMD*%
X147522500Y-92959500D02*
X149270000Y-91212000D01*
X147522500Y-94075000D02*
X147522500Y-92959500D01*
X149270000Y-91212000D02*
X149270000Y-90580000D01*
%TO.N,/IO13*%
X143019000Y-91681000D02*
X145409000Y-91681000D01*
X140625000Y-94075000D02*
X143019000Y-91681000D01*
X145409000Y-91681000D02*
X145460000Y-91630000D01*
X145460000Y-91630000D02*
X145460000Y-90580000D01*
X139902500Y-94075000D02*
X140625000Y-94075000D01*
%TO.N,/IO12*%
X143630529Y-100900000D02*
X143630529Y-106335481D01*
X143630529Y-106335481D02*
X143897585Y-106602537D01*
X141220000Y-89400000D02*
X141150000Y-89330000D01*
X142825000Y-89400000D02*
X141220000Y-89400000D01*
%TO.N,/SENSOR_VN*%
X137076000Y-81749000D02*
X137725000Y-81100000D01*
X136372471Y-82471000D02*
X137076000Y-81767471D01*
X136354000Y-82471000D02*
X136372471Y-82471000D01*
X135875000Y-82950000D02*
X136354000Y-82471000D01*
X137076000Y-81767471D02*
X137076000Y-81749000D01*
X138433520Y-77275000D02*
X139475000Y-77275000D01*
X139475000Y-77275000D02*
X140100000Y-77900000D01*
X140100000Y-77900000D02*
X141150000Y-77900000D01*
X137725000Y-77983520D02*
X138433520Y-77275000D01*
X135875000Y-83810000D02*
X135875000Y-82950000D01*
X137725000Y-81100000D02*
X137725000Y-77983520D01*
%TO.N,/IO25*%
X135575000Y-100600000D02*
X137225000Y-98950000D01*
X141075000Y-84325000D02*
X141150000Y-84250000D01*
X139550280Y-84375000D02*
X139600280Y-84325000D01*
X139600280Y-84325000D02*
X141075000Y-84325000D01*
%TO.N,/IO35*%
X139868520Y-80440000D02*
X141150000Y-80440000D01*
X135875000Y-88890000D02*
X137079260Y-87685740D01*
X137791760Y-85141760D02*
X137791760Y-82516760D01*
X137079260Y-87685740D02*
X137079260Y-85854260D01*
X137079260Y-85854260D02*
X137791760Y-85141760D01*
X137791760Y-82516760D02*
X139868520Y-80440000D01*
%TO.N,/IO32*%
X138346020Y-82671020D02*
X139307040Y-81710000D01*
X139307040Y-81710000D02*
X141150000Y-81710000D01*
X137111760Y-90193240D02*
X137111760Y-88361760D01*
X137608520Y-87865000D02*
X137608520Y-86033520D01*
X137111760Y-88361760D02*
X137608520Y-87865000D01*
X137608520Y-86033520D02*
X138346020Y-85296020D01*
X135875000Y-91430000D02*
X137111760Y-90193240D01*
X138346020Y-85296020D02*
X138346020Y-82671020D01*
%TO.N,/SD2*%
X142442500Y-94075000D02*
X142442500Y-93007500D01*
X145616520Y-92182000D02*
X145623521Y-92175000D01*
X146185000Y-92175000D02*
X146730000Y-91630000D01*
X143268000Y-92182000D02*
X145616520Y-92182000D01*
X146730000Y-91630000D02*
X146730000Y-90580000D01*
X145623521Y-92175000D02*
X146185000Y-92175000D01*
X142442500Y-93007500D02*
X143268000Y-92182000D01*
%TO.N,/IO14*%
X141176734Y-102275000D02*
X141175000Y-102275000D01*
X141816939Y-102916939D02*
X141816939Y-105145653D01*
X140040380Y-88084620D02*
X141125380Y-88084620D01*
X141176734Y-101023266D02*
X141176734Y-102275000D01*
X139675000Y-88450000D02*
X140040380Y-88084620D01*
X141250000Y-100950000D02*
X141176734Y-101023266D01*
X141175000Y-102275000D02*
X141816939Y-102916939D01*
X141125380Y-88084620D02*
X141150000Y-88060000D01*
%TO.N,/IO19*%
X159700000Y-81710000D02*
X162548000Y-84558000D01*
X162548000Y-84558000D02*
X162548000Y-87313000D01*
X158650000Y-81710000D02*
X159700000Y-81710000D01*
X162548000Y-87313000D02*
X164250000Y-89015000D01*
%TO.N,/IO2*%
X159021500Y-92874000D02*
X157914000Y-92874000D01*
X157914000Y-92874000D02*
X155620000Y-90580000D01*
X160222500Y-94075000D02*
X159021500Y-92874000D01*
%TO.N,/IO21*%
X159570000Y-79170000D02*
X163049000Y-82649000D01*
X163049000Y-82649000D02*
X163049000Y-85274000D01*
X158650000Y-79170000D02*
X159570000Y-79170000D01*
X163049000Y-85274000D02*
X164250000Y-86475000D01*
%TO.N,/IO18*%
X158650000Y-82980000D02*
X159700000Y-82980000D01*
X162047000Y-88572000D02*
X164250000Y-90775000D01*
X162020000Y-85300000D02*
X162047000Y-85300000D01*
X162047000Y-85300000D02*
X162047000Y-88572000D01*
X159700000Y-82980000D02*
X162020000Y-85300000D01*
X164250000Y-90775000D02*
X164250000Y-91555000D01*
%TO.N,/TXD0*%
X163962500Y-98787500D02*
X165022585Y-99847585D01*
X163608500Y-122306000D02*
X160327500Y-119025000D01*
X164001630Y-122306000D02*
X163608500Y-122306000D01*
X160327500Y-118999395D02*
X160335254Y-118991641D01*
X153883946Y-119025000D02*
X152824055Y-120084891D01*
X160327500Y-119025000D02*
X153883946Y-119025000D01*
X155287500Y-85637500D02*
X155405000Y-85520000D01*
X160327500Y-119025000D02*
X160327500Y-118999395D01*
X165022585Y-99847585D02*
X165022585Y-100872463D01*
X160575880Y-85924120D02*
X159054120Y-85924120D01*
X155405000Y-85520000D02*
X158650000Y-85520000D01*
X159054120Y-85924120D02*
X158650000Y-85520000D01*
%TO.N,/RXD0*%
X162375130Y-121828260D02*
X160750000Y-120203130D01*
X160250000Y-119675000D02*
X160154130Y-119770870D01*
X162375130Y-125579500D02*
X162375130Y-121828260D01*
X153941054Y-119675000D02*
X153177609Y-120438445D01*
X156450000Y-88250000D02*
X157910000Y-86790000D01*
X164001630Y-127206000D02*
X162375130Y-125579500D01*
X162560000Y-101947408D02*
X162941939Y-102329347D01*
X157910000Y-86790000D02*
X158650000Y-86790000D01*
X160525000Y-86800000D02*
X158660000Y-86800000D01*
X160750000Y-120175000D02*
X160250000Y-119675000D01*
X160250000Y-119675000D02*
X153941054Y-119675000D01*
X158660000Y-86800000D02*
X158650000Y-86790000D01*
X162560000Y-99215171D02*
X162560000Y-101947408D01*
X160750000Y-120203130D02*
X160750000Y-120175000D01*
%TO.N,/SD0*%
X152602500Y-94075000D02*
X151810000Y-93282500D01*
X151810000Y-93282500D02*
X151810000Y-90580000D01*
%TO.N,/IO4*%
X161930000Y-101420000D02*
X160861293Y-102488707D01*
X160600000Y-88100000D02*
X158690000Y-88100000D01*
X161930000Y-100030000D02*
X161930000Y-101420000D01*
X158690000Y-88100000D02*
X158650000Y-88060000D01*
X160861293Y-102488707D02*
X160861293Y-103786231D01*
X161910000Y-100010000D02*
X161930000Y-100030000D01*
%TO.N,/SD1*%
X155142500Y-94075000D02*
X153080000Y-92012500D01*
X153080000Y-92012500D02*
X153080000Y-90580000D01*
%TO.N,/IO15*%
X157213000Y-94075000D02*
X154350000Y-91212000D01*
X154350000Y-91212000D02*
X154350000Y-90580000D01*
X157682500Y-94075000D02*
X157213000Y-94075000D01*
%TO.N,/IO5*%
X159821000Y-84250000D02*
X161546000Y-85975000D01*
X158650000Y-84250000D02*
X159821000Y-84250000D01*
X164250000Y-93225000D02*
X164250000Y-94095000D01*
X163781000Y-92756000D02*
X164250000Y-93225000D01*
X163049000Y-92024000D02*
X163049000Y-92052471D01*
X161546000Y-85975000D02*
X161546000Y-90521000D01*
X161546000Y-90521000D02*
X163049000Y-92024000D01*
X163752529Y-92756000D02*
X163781000Y-92756000D01*
X163049000Y-92052471D02*
X163752529Y-92756000D01*
%TO.N,/CLK*%
X150062500Y-94075000D02*
X150540000Y-93597500D01*
X150540000Y-93597500D02*
X150540000Y-90580000D01*
%TO.N,Net-(Q1-B)*%
X149070000Y-97267500D02*
X149207500Y-97130000D01*
X149070000Y-99967500D02*
X149070000Y-97267500D01*
%TO.N,/RTS0*%
X154424000Y-97342480D02*
X154424000Y-97426000D01*
X156067480Y-95699000D02*
X154424000Y-97342480D01*
D52*
X147690532Y-99967500D02*
X148778032Y-101055000D01*
D50*
X150794000Y-98450000D02*
X150769000Y-98425000D01*
X164368471Y-95675000D02*
X156175000Y-95675000D01*
X154400000Y-98175000D02*
X154125000Y-98450000D01*
X154400000Y-97450000D02*
X154400000Y-98175000D01*
D52*
X147170000Y-99967500D02*
X147690532Y-99967500D01*
X148778032Y-101055000D02*
X149361968Y-101055000D01*
X150769000Y-97781595D02*
X151407500Y-97143095D01*
D50*
X154424000Y-97426000D02*
X154400000Y-97450000D01*
X165525000Y-90500000D02*
X165525000Y-94518469D01*
X165525000Y-94518469D02*
X164368471Y-95675000D01*
X156175000Y-95675000D02*
X156151000Y-95699000D01*
D52*
X150769000Y-98425000D02*
X150769000Y-97781595D01*
D50*
X168199508Y-87574508D02*
X168475000Y-87850000D01*
X166927880Y-89097120D02*
X165525000Y-90500000D01*
X154125000Y-98450000D02*
X154057500Y-98450000D01*
D52*
X149361968Y-101055000D02*
X150769000Y-99647968D01*
D50*
X168475000Y-87850000D02*
X169125000Y-87850000D01*
X168000493Y-87574508D02*
X168199508Y-87574508D01*
D52*
X150769000Y-99647968D02*
X150769000Y-98425000D01*
D50*
X156151000Y-95699000D02*
X156067480Y-95699000D01*
X151700000Y-98450000D02*
X150794000Y-98450000D01*
%TO.N,Net-(Q2-B)*%
X153407500Y-97143095D02*
X153407500Y-99830000D01*
X153407500Y-99830000D02*
X153270000Y-99967500D01*
%TO.N,/DTR*%
X153631678Y-101056000D02*
X152908322Y-101056000D01*
X152358500Y-96437225D02*
X152000275Y-96079000D01*
X154250000Y-100437678D02*
X153631678Y-101056000D01*
X152320000Y-101842500D02*
X152358500Y-101804000D01*
X152358500Y-100125000D02*
X152358500Y-96437225D01*
X154925000Y-97550000D02*
X154925000Y-98625000D01*
X152908322Y-101056000D02*
X152358500Y-100506178D01*
X166026000Y-94725991D02*
X164551992Y-96200000D01*
X154925000Y-98625000D02*
X154250000Y-99300000D01*
X152358500Y-101804000D02*
X152358500Y-100125000D01*
X164551992Y-96200000D02*
X156275000Y-96200000D01*
X154250000Y-99300000D02*
X154250000Y-100437678D01*
X166026000Y-90707520D02*
X166026000Y-94725991D01*
X156275000Y-96200000D02*
X154925000Y-97550000D01*
X169125000Y-89850000D02*
X166883520Y-89850000D01*
X152000275Y-96079000D02*
X148258500Y-96079000D01*
X166883520Y-89850000D02*
X166026000Y-90707520D01*
X148258500Y-96079000D02*
X147207500Y-97130000D01*
X152358500Y-100506178D02*
X152358500Y-100125000D01*
%TO.N,/ACTIVE*%
X174025000Y-88350000D02*
X174511510Y-88350000D01*
X176405000Y-86456510D02*
X176405000Y-86055000D01*
X174511510Y-88350000D02*
X176405000Y-86456510D01*
%TO.N,Net-(U1-~{RST})*%
X175375000Y-90875000D02*
X175375000Y-90175000D01*
X175675000Y-91175000D02*
X175375000Y-90875000D01*
X174550000Y-89350000D02*
X174025000Y-89350000D01*
X171425000Y-93275000D02*
X171300000Y-93150000D01*
X175375000Y-90175000D02*
X174550000Y-89350000D01*
X175675000Y-91750000D02*
X175675000Y-91175000D01*
X175420541Y-92004459D02*
X175675000Y-91750000D01*
X174599750Y-92005571D02*
X174600862Y-92004459D01*
X174600862Y-92004459D02*
X175420541Y-92004459D01*
X171425000Y-94875000D02*
X171425000Y-93275000D01*
%TO.N,Net-(U1-VBUS)*%
X174025000Y-89850000D02*
X174225000Y-89850000D01*
X170525000Y-81425000D02*
X169650000Y-81425000D01*
X169600000Y-81475000D02*
X169600000Y-79222500D01*
X169650000Y-81425000D02*
X169600000Y-81475000D01*
X174775000Y-90400000D02*
X174775000Y-90625000D01*
X174225000Y-89850000D02*
X174775000Y-90400000D01*
X174775000Y-90625000D02*
X174775000Y-91225000D01*
X170975000Y-81875000D02*
X170525000Y-81425000D01*
X169600000Y-79222500D02*
X169575000Y-79197500D01*
%TO.N,/STM32/SW_BOOT0*%
X147388942Y-115456000D02*
X144800000Y-118044942D01*
X148941000Y-114752471D02*
X148237471Y-115456000D01*
X148237471Y-115456000D02*
X147388942Y-115456000D01*
X144800000Y-118044942D02*
X144800000Y-119008160D01*
X148941000Y-113784000D02*
X148941000Y-114752471D01*
X144800000Y-119008160D02*
X146583838Y-120791998D01*
X149079000Y-111331000D02*
X149079000Y-113646000D01*
X149280000Y-111130000D02*
X149079000Y-111331000D01*
X149079000Y-113646000D02*
X148941000Y-113784000D01*
D49*
%TO.N,Net-(U7-VDDA)*%
X152737500Y-131050000D02*
X148825000Y-131050000D01*
X156151000Y-129449000D02*
X154602708Y-129449000D01*
X157650000Y-127950000D02*
X156151000Y-129449000D01*
D51*
X147200996Y-128100800D02*
X147200000Y-128101796D01*
X148105228Y-130417728D02*
X148312500Y-130625000D01*
D49*
X148400000Y-130625000D02*
X148312500Y-130625000D01*
X154602708Y-129449000D02*
X154199000Y-129852708D01*
X148825000Y-131050000D02*
X148400000Y-130625000D01*
X153850000Y-130625000D02*
X153162500Y-130625000D01*
D51*
X147200000Y-129394772D02*
X148105228Y-130300000D01*
D49*
X157650000Y-127925000D02*
X157650000Y-127950000D01*
X158375000Y-127200000D02*
X157650000Y-127925000D01*
X153162500Y-130625000D02*
X152737500Y-131050000D01*
D51*
X148105228Y-130300000D02*
X148105228Y-130417728D01*
X147200996Y-127829270D02*
X147200996Y-128100800D01*
D49*
X154199000Y-129852708D02*
X154199000Y-130276000D01*
D51*
X147998051Y-127032215D02*
X147200996Y-127829270D01*
D49*
X154199000Y-130276000D02*
X153850000Y-130625000D01*
X158375000Y-126875000D02*
X158375000Y-127200000D01*
D51*
X147200000Y-128101796D02*
X147200000Y-129394772D01*
D50*
%TO.N,/CTS*%
X167476129Y-121415109D02*
X166815021Y-120754000D01*
X156127000Y-98047884D02*
X156772884Y-97402000D01*
X152116949Y-119377785D02*
X153718734Y-117776000D01*
X154276000Y-116855346D02*
X154050000Y-116629346D01*
X153300000Y-104250000D02*
X154976000Y-102574000D01*
X154276000Y-117394654D02*
X154276000Y-116855346D01*
X166300000Y-96800000D02*
X166300000Y-96725000D01*
X154976000Y-101411562D02*
X155452000Y-100935562D01*
X163042500Y-75107500D02*
X162025000Y-74090000D01*
X153300000Y-109039338D02*
X153300000Y-104250000D01*
X156772884Y-97402000D02*
X165698000Y-97402000D01*
X164250000Y-76315000D02*
X163042500Y-75107500D01*
X153250000Y-111825000D02*
X153250000Y-110950000D01*
X166275000Y-75850000D02*
X166275000Y-75775000D01*
X162025000Y-74090000D02*
X158650000Y-74090000D01*
X166275000Y-75775000D02*
X165607500Y-75107500D01*
X166815021Y-120754000D02*
X164097130Y-120754000D01*
X164097130Y-120754000D02*
X160768130Y-117425000D01*
X156127000Y-99122884D02*
X156127000Y-98047884D01*
X154050000Y-112625000D02*
X153250000Y-111825000D01*
X168599130Y-124881000D02*
X168599130Y-124578498D01*
X167476129Y-123455497D02*
X167476129Y-121415109D01*
X165698000Y-97402000D02*
X166300000Y-96800000D01*
X154245654Y-117425000D02*
X153894654Y-117776000D01*
X154050000Y-116629346D02*
X154050000Y-112625000D01*
X153800000Y-117776000D02*
X153894654Y-117776000D01*
X155452000Y-100935562D02*
X155452000Y-99797884D01*
X160768130Y-117425000D02*
X154245654Y-117425000D01*
X155452000Y-99797884D02*
X156127000Y-99122884D01*
X153894654Y-117776000D02*
X154276000Y-117394654D01*
X154976000Y-102574000D02*
X154976000Y-101411562D01*
X168599130Y-124578498D02*
X167476129Y-123455497D01*
X153718734Y-117776000D02*
X153894654Y-117776000D01*
X165607500Y-75107500D02*
X163042500Y-75107500D01*
X153269669Y-109069669D02*
X153300000Y-109039338D01*
%TO.N,/RTS*%
X168850128Y-129731001D02*
X167574131Y-129731001D01*
X155515000Y-75360000D02*
X158650000Y-75360000D01*
X163050000Y-76850000D02*
X163050000Y-76800000D01*
X163050000Y-76800000D02*
X161150000Y-74900000D01*
X166975129Y-121622629D02*
X166607500Y-121255000D01*
X167574131Y-129731001D02*
X166975129Y-129131999D01*
X159110000Y-74900000D02*
X158650000Y-75360000D01*
X160644855Y-118300000D02*
X160572474Y-118227619D01*
X164250000Y-78050000D02*
X163050000Y-76850000D01*
X168875880Y-129705249D02*
X168850128Y-129731001D01*
X166975129Y-129131999D02*
X166975129Y-121622629D01*
X155087500Y-75787500D02*
X155515000Y-75360000D01*
X163659150Y-121255000D02*
X160704150Y-118300000D01*
X166607500Y-121255000D02*
X163659150Y-121255000D01*
X160704150Y-118300000D02*
X160644855Y-118300000D01*
X164250000Y-78855000D02*
X164250000Y-78050000D01*
X161150000Y-74900000D02*
X159110000Y-74900000D01*
X153901840Y-118300000D02*
X152470502Y-119731338D01*
X160704150Y-118300000D02*
X153901840Y-118300000D01*
%TO.N,/TXD*%
X162700000Y-81575000D02*
X163950000Y-82825000D01*
X158650000Y-77900000D02*
X160450000Y-77900000D01*
X163950000Y-82825000D02*
X164250000Y-83125000D01*
X167600000Y-88850000D02*
X165451000Y-86701000D01*
X165451000Y-84326000D02*
X163950000Y-82825000D01*
X160450000Y-77900000D02*
X162700000Y-80150000D01*
X165451000Y-86701000D02*
X165451000Y-84326000D01*
X169125000Y-88850000D02*
X167600000Y-88850000D01*
X164250000Y-83125000D02*
X164250000Y-83935000D01*
X162700000Y-80150000D02*
X162700000Y-81575000D01*
%TO.N,/RXD*%
X165960000Y-86453255D02*
X165960000Y-82450000D01*
X169125000Y-88350000D02*
X167856745Y-88350000D01*
X167856745Y-88350000D02*
X165960000Y-86453255D01*
X160160000Y-76650000D02*
X158670000Y-76650000D01*
X158670000Y-76650000D02*
X158650000Y-76630000D01*
X165960000Y-82450000D02*
X160160000Y-76650000D01*
%TO.N,Net-(D3-A)*%
X133132500Y-122330000D02*
X135882500Y-122330000D01*
X135882500Y-122330000D02*
X135907500Y-122305000D01*
%TO.N,/VBUS*%
X147078359Y-137318359D02*
X147050000Y-137346718D01*
D49*
X150880000Y-138405185D02*
X152833815Y-138405185D01*
D50*
X148586000Y-135209281D02*
X148586000Y-135810719D01*
D49*
X149900538Y-137909000D02*
X150396723Y-138405185D01*
X169600000Y-83475000D02*
X169625000Y-83450000D01*
X152833815Y-138405185D02*
X153330000Y-137909000D01*
D50*
X148586000Y-135810719D02*
X147078359Y-137318359D01*
D49*
X139225000Y-134975000D02*
X140512500Y-134975000D01*
D50*
X147050000Y-137346718D02*
X147050000Y-137909000D01*
D49*
X174700000Y-78175000D02*
X175722500Y-79197500D01*
X172125000Y-82925000D02*
X172125000Y-80725000D01*
X178275000Y-81475000D02*
X178275000Y-79197500D01*
X175722500Y-79197500D02*
X178275000Y-79197500D01*
X139225000Y-134975000D02*
X142159000Y-137909000D01*
D50*
X148300000Y-134923281D02*
X148300000Y-134065000D01*
D49*
X172774000Y-80076000D02*
X172774000Y-78577708D01*
X147050000Y-137909000D02*
X149900538Y-137909000D01*
X173176708Y-78175000D02*
X174700000Y-78175000D01*
X167800000Y-82225000D02*
X169050000Y-83475000D01*
X171600000Y-83450000D02*
X172125000Y-82925000D01*
X172774000Y-78577708D02*
X173176708Y-78175000D01*
X167800000Y-81400000D02*
X167800000Y-82225000D01*
X150396723Y-138405185D02*
X150880000Y-138405185D01*
D50*
X146487719Y-137909000D02*
X146070000Y-137909000D01*
D49*
X142159000Y-137909000D02*
X146070000Y-137909000D01*
X153330000Y-137909000D02*
X154400000Y-137909000D01*
D50*
X148300000Y-134923281D02*
X148586000Y-135209281D01*
D49*
X169625000Y-83450000D02*
X171600000Y-83450000D01*
D51*
X152039745Y-138405185D02*
X150880000Y-138405185D01*
D49*
X169050000Y-83475000D02*
X169600000Y-83475000D01*
X146070000Y-137909000D02*
X147050000Y-137909000D01*
D50*
X147078359Y-137318359D02*
X146487719Y-137909000D01*
D49*
X172125000Y-80725000D02*
X172774000Y-80076000D01*
X140512500Y-134975000D02*
X141537500Y-133950000D01*
D50*
%TO.N,Net-(J2-CC2)*%
X154063283Y-136390000D02*
X154071593Y-136381690D01*
X152500000Y-134065000D02*
X152500000Y-135630000D01*
X154071593Y-136381690D02*
X157518310Y-136381690D01*
X157518310Y-136381690D02*
X158075000Y-135825000D01*
X152500000Y-135630000D02*
X153260000Y-136390000D01*
X153260000Y-136390000D02*
X154063283Y-136390000D01*
%TO.N,Net-(J2-CC1)*%
X154347522Y-137025000D02*
X159600000Y-137025000D01*
X149250000Y-135225000D02*
X149500000Y-134975000D01*
X149250000Y-136408520D02*
X149250000Y-135225000D01*
X154341247Y-137031275D02*
X154347522Y-137025000D01*
X151788419Y-137750000D02*
X150591480Y-137750000D01*
X159600000Y-137025000D02*
X160800000Y-135825000D01*
X150591480Y-137750000D02*
X149250000Y-136408520D01*
X149500000Y-134975000D02*
X149500000Y-134065000D01*
X151884234Y-137654185D02*
X151788419Y-137750000D01*
X154341247Y-137032690D02*
X154341247Y-137031275D01*
D52*
%TO.N,/D+*%
X158607971Y-130732001D02*
X171184290Y-130732001D01*
X150862612Y-132589020D02*
X156750952Y-132589020D01*
X176439669Y-98050980D02*
X175651291Y-97262602D01*
X151500000Y-135412190D02*
X151500000Y-134065000D01*
X171522630Y-130393661D02*
X171522630Y-126734172D01*
X177732782Y-98050980D02*
X176439669Y-98050980D01*
X150549000Y-134016000D02*
X150549000Y-132902632D01*
X142987500Y-133408032D02*
X142987500Y-133219302D01*
X149383521Y-131650000D02*
X150549000Y-132815479D01*
X151751000Y-135676000D02*
X151751000Y-135663190D01*
X171522630Y-126734172D02*
X175175000Y-123081802D01*
X171600000Y-91425001D02*
X171575000Y-91400001D01*
X150500000Y-134065000D02*
X150500000Y-136030760D01*
X151775000Y-135700000D02*
X151751000Y-135676000D01*
X175651291Y-95901291D02*
X171600000Y-91850000D01*
X142987500Y-134491968D02*
X142836500Y-134340968D01*
X144556802Y-131650000D02*
X149383521Y-131650000D01*
X142836500Y-134340968D02*
X142836500Y-133559032D01*
X151751000Y-135663190D02*
X151500000Y-135412190D01*
X171184290Y-130732001D02*
X171522630Y-130393661D01*
X142987500Y-135500000D02*
X142987500Y-134491968D01*
X175175000Y-119981802D02*
X179350000Y-115806802D01*
X171575000Y-91400001D02*
X171575000Y-90800000D01*
X151775000Y-136694240D02*
X151775000Y-135700000D01*
X179350000Y-99668198D02*
X177732782Y-98050980D01*
X175651291Y-97262602D02*
X175651291Y-95901291D01*
X150549000Y-132815479D02*
X150549000Y-132902632D01*
X171600000Y-91850000D02*
X171600000Y-91425001D01*
X150500000Y-136030760D02*
X150550000Y-136080760D01*
X150500000Y-134065000D02*
X150549000Y-134016000D01*
X150549000Y-132902632D02*
X150862612Y-132589020D01*
X142836500Y-133559032D02*
X142987500Y-133408032D01*
X179350000Y-115806802D02*
X179350000Y-99668198D01*
X156750952Y-132589020D02*
X158607971Y-130732001D01*
X143437500Y-135950000D02*
X142987500Y-135500000D01*
X175175000Y-123081802D02*
X175175000Y-119981802D01*
X151534620Y-136934620D02*
X151775000Y-136694240D01*
X142987500Y-133219302D02*
X144556802Y-131650000D01*
%TO.N,/D-*%
X143437500Y-133405698D02*
X144618198Y-132225000D01*
X177919198Y-97601000D02*
X176626057Y-97601000D01*
X151049000Y-133039000D02*
X150951000Y-133137000D01*
X149250000Y-132225000D02*
X150000000Y-132975000D01*
X175625000Y-123268198D02*
X175625000Y-120168198D01*
X156937340Y-133039000D02*
X158794359Y-131181981D01*
X172050000Y-91425001D02*
X172075000Y-91400001D01*
X175625000Y-120168198D02*
X179800000Y-115993198D01*
X151049000Y-133039000D02*
X156937340Y-133039000D01*
X176118783Y-95800585D02*
X172050000Y-91731802D01*
D50*
X150800000Y-136750000D02*
X151300000Y-136250000D01*
D52*
X143437500Y-133950000D02*
X143437500Y-133405698D01*
X172075000Y-91400001D02*
X172075000Y-90800000D01*
D50*
X149900000Y-136350000D02*
X150300000Y-136750000D01*
D52*
X144618198Y-132225000D02*
X149250000Y-132225000D01*
X171972610Y-130580049D02*
X171972610Y-126920588D01*
X150951000Y-133137000D02*
X150951000Y-134000000D01*
X179800000Y-99481802D02*
X177919198Y-97601000D01*
D50*
X151300000Y-135850000D02*
X151000000Y-135550000D01*
X149900000Y-135275000D02*
X149900000Y-136350000D01*
X151300000Y-136250000D02*
X151300000Y-135850000D01*
D52*
X158794359Y-131181981D02*
X171370678Y-131181981D01*
X176101271Y-95818098D02*
X176118783Y-95800585D01*
X172050000Y-91731802D02*
X172050000Y-91425001D01*
D50*
X150000000Y-134065000D02*
X150000000Y-135175000D01*
X150300000Y-136750000D02*
X150800000Y-136750000D01*
D52*
X179800000Y-115993198D02*
X179800000Y-99481802D01*
X176626057Y-97601000D02*
X176101271Y-97076214D01*
X171972610Y-126920588D02*
X175625000Y-123268198D01*
X176101271Y-97076214D02*
X176101271Y-95818098D01*
D50*
X151000000Y-135550000D02*
X151000000Y-134065000D01*
D52*
X171370678Y-131181981D02*
X171972610Y-130580049D01*
X150000000Y-132975000D02*
X150000000Y-134065000D01*
D50*
X150000000Y-135175000D02*
X149900000Y-135275000D01*
%TD*%
M02*
