%TF.GenerationSoftware,KiCad,Pcbnew,9.0.2*%
%TF.CreationDate,2025-08-29T22:08:27+05:30*%
%TF.ProjectId,4 SRA,34205352-412e-46b6-9963-61645f706362,rev?*%
%TF.SameCoordinates,Original*%
%TF.FileFunction,Plated,1,2,PTH,Mixed*%
%TF.FilePolarity,Positive*%
%FSLAX46Y46*%
G04 Gerber Fmt 4.6, Leading zero omitted, Abs format (unit mm)*
G04 Created by KiCad (PCBNEW 9.0.2) date 2025-08-29 22:08:27*
%MOMM*%
%LPD*%
G01*
G04 APERTURE LIST*
%TA.AperFunction,ComponentDrill*%
%ADD10C,0.200000*%
%TD*%
%TA.AperFunction,ViaDrill*%
%ADD11C,0.300000*%
%TD*%
G04 aperture for slot hole*
%TA.AperFunction,ComponentDrill*%
%ADD12C,0.600000*%
%TD*%
%TA.AperFunction,ComponentDrill*%
%ADD13C,1.000000*%
%TD*%
G04 APERTURE END LIST*
D10*
%TO.C,U4*%
X147000000Y-79840000D03*
X147000000Y-81240000D03*
X147700000Y-79140000D03*
X147700000Y-80540000D03*
X147700000Y-81940000D03*
X148375000Y-79840000D03*
X148375000Y-81240000D03*
X149100000Y-79140000D03*
X149100000Y-80540000D03*
X149100000Y-81940000D03*
X149800000Y-79840000D03*
X149800000Y-81240000D03*
%TD*%
D11*
X128200000Y-94800000D03*
X128582669Y-99043331D03*
X128600000Y-81550000D03*
X128800000Y-84250000D03*
X129575000Y-129150000D03*
X130000000Y-130610000D03*
X130293067Y-129865611D03*
X130550000Y-128510000D03*
X130925000Y-126925000D03*
X130975000Y-127832229D03*
X130975000Y-131250000D03*
X132525000Y-102177000D03*
X133580000Y-94450000D03*
X134525000Y-125625000D03*
X134975000Y-131731000D03*
X137225000Y-98950000D03*
X137877821Y-99412415D03*
X138400000Y-119200000D03*
X138625000Y-99925000D03*
X139012207Y-119813446D03*
X139109900Y-86159900D03*
X139175000Y-87175000D03*
X139481987Y-120460987D03*
X139550280Y-84375000D03*
X139675000Y-88450000D03*
X141250000Y-100950000D03*
X142825000Y-89400000D03*
X142832500Y-122992500D03*
X142907500Y-121280000D03*
X143630529Y-100900000D03*
X144150000Y-119075000D03*
X144810000Y-110647744D03*
X145178847Y-109863653D03*
X145675000Y-103300000D03*
X145792169Y-109350000D03*
X145893040Y-119181960D03*
X146050000Y-108550000D03*
X146350000Y-117414182D03*
X147087500Y-102476838D03*
X147250000Y-122240000D03*
X147325000Y-123550000D03*
X147725000Y-117075000D03*
X149100000Y-121550000D03*
X149275000Y-122846000D03*
X149275000Y-125050000D03*
X149392500Y-119800000D03*
X149392500Y-120775000D03*
X149525000Y-116700000D03*
X149625000Y-126150000D03*
X149950000Y-126900000D03*
X150025000Y-129850000D03*
X150525000Y-126200000D03*
X150550000Y-136080760D03*
X150625000Y-104775000D03*
X150764106Y-129543853D03*
X151131647Y-125243353D03*
X151534620Y-136934620D03*
X151550000Y-124325000D03*
X151700000Y-98450000D03*
X151884234Y-137654185D03*
X152050000Y-122175000D03*
X152175000Y-129075000D03*
X152568076Y-124456924D03*
X153012861Y-122557765D03*
X153200000Y-134065000D03*
X153250000Y-110950000D03*
X153269669Y-109069669D03*
X153626000Y-117125000D03*
X153750000Y-128650000D03*
X153778574Y-122789463D03*
X153925000Y-102550000D03*
X154000000Y-134065000D03*
X154057500Y-98450000D03*
X154175000Y-104675000D03*
X154341247Y-137032690D03*
X154400000Y-137909000D03*
X154724951Y-127025049D03*
X154973758Y-115876517D03*
X155087500Y-75787500D03*
X155287500Y-85637500D03*
X155665380Y-116584620D03*
X156147076Y-125772076D03*
X156233292Y-128306049D03*
X156450000Y-88250000D03*
X158075000Y-120375000D03*
X158471912Y-121069597D03*
X159020000Y-100420000D03*
X159430000Y-134000000D03*
X159700000Y-125550000D03*
X159725000Y-123325000D03*
X160154130Y-119770870D03*
X160335254Y-118991641D03*
X160525000Y-86800000D03*
X160572474Y-118227619D03*
X160575880Y-85924120D03*
X160600000Y-88100000D03*
X160675000Y-89475000D03*
X161910000Y-100010000D03*
X162400000Y-118075000D03*
X162520000Y-130132001D03*
X162560000Y-99215171D03*
X163040000Y-118583924D03*
X163656167Y-119094162D03*
X163962500Y-98787500D03*
X164815140Y-120104000D03*
X165399130Y-123556000D03*
X166275000Y-75850000D03*
X166300000Y-96725000D03*
X166927880Y-89097120D03*
X167500000Y-73725000D03*
X167800000Y-81400000D03*
X168000493Y-87574508D03*
X168699130Y-123481000D03*
X169380000Y-91575000D03*
X169843419Y-75868419D03*
X170975000Y-81875000D03*
X171425000Y-94875000D03*
X174271785Y-97398231D03*
X174300000Y-98400000D03*
X174325000Y-96600000D03*
X174425000Y-95625000D03*
X174599750Y-92005571D03*
X174775000Y-91225000D03*
X175702708Y-94351000D03*
X176475000Y-95300000D03*
X176600000Y-98900000D03*
X176702271Y-96067041D03*
X176867500Y-87592500D03*
X176875000Y-97000000D03*
X177775000Y-98975000D03*
X178337471Y-97170827D03*
X178720000Y-108290000D03*
X179000000Y-97825000D03*
X179737511Y-74821025D03*
D12*
%TO.C,J2*%
X146430000Y-135530000D02*
X146430000Y-134430000D01*
X146430000Y-139460000D02*
X146430000Y-138860000D01*
X155070000Y-135530000D02*
X155070000Y-134430000D01*
X155070000Y-139460000D02*
X155070000Y-138860000D01*
D13*
%TO.C,J6*%
X118700000Y-78290000D03*
X118700000Y-80830000D03*
X118700000Y-83370000D03*
%TO.C,J4*%
X118700000Y-86985000D03*
X118700000Y-89525000D03*
X118700000Y-92065000D03*
X118700000Y-94605000D03*
X118700000Y-97145000D03*
X118700000Y-99685000D03*
X118700000Y-102225000D03*
X118700000Y-104765000D03*
X118700000Y-107305000D03*
X118700000Y-109845000D03*
X118700000Y-112385000D03*
X118700000Y-114925000D03*
X118700000Y-117465000D03*
X118700000Y-120005000D03*
X118700000Y-122545000D03*
%TO.C,J7*%
X135575000Y-100775000D03*
%TO.C,J9*%
X135875000Y-73650000D03*
X135875000Y-76190000D03*
X135875000Y-78730000D03*
X135875000Y-81270000D03*
X135875000Y-83810000D03*
X135875000Y-86350000D03*
X135875000Y-88890000D03*
X135875000Y-91430000D03*
X135875000Y-93970000D03*
%TO.C,J7*%
X137655646Y-102231884D03*
X139736292Y-103688768D03*
%TO.C,J3*%
X139902500Y-94075000D03*
%TO.C,J7*%
X141816939Y-105145653D03*
%TO.C,J3*%
X142442500Y-94075000D03*
%TO.C,J7*%
X143897585Y-106602537D03*
%TO.C,J3*%
X144982500Y-94075000D03*
X147522500Y-94075000D03*
%TO.C,J1*%
X147740000Y-114255000D03*
%TO.C,J3*%
X150062500Y-94075000D03*
%TO.C,J1*%
X150280000Y-114255000D03*
%TO.C,J3*%
X152602500Y-94075000D03*
%TO.C,J1*%
X152820000Y-114255000D03*
%TO.C,J3*%
X155142500Y-94075000D03*
%TO.C,J8*%
X156700000Y-106700000D03*
%TO.C,J3*%
X157682500Y-94075000D03*
%TO.C,J8*%
X158780646Y-105243116D03*
%TO.C,J3*%
X160222500Y-94075000D03*
%TO.C,J8*%
X160861293Y-103786231D03*
X162941939Y-102329347D03*
%TO.C,J10*%
X164250000Y-73775000D03*
X164250000Y-76315000D03*
X164250000Y-78855000D03*
X164250000Y-81395000D03*
X164250000Y-83935000D03*
X164250000Y-86475000D03*
X164250000Y-89015000D03*
X164250000Y-91555000D03*
X164250000Y-94095000D03*
%TO.C,J8*%
X165022585Y-100872463D03*
%TO.C,J11*%
X181970000Y-78270000D03*
X181970000Y-80810000D03*
X181970000Y-83350000D03*
%TO.C,J5*%
X181975000Y-86985000D03*
X181975000Y-89525000D03*
X181975000Y-92065000D03*
X181975000Y-94605000D03*
X181975000Y-97145000D03*
X181975000Y-99685000D03*
X181975000Y-102225000D03*
X181975000Y-104765000D03*
X181975000Y-107305000D03*
X181975000Y-109845000D03*
X181975000Y-112385000D03*
X181975000Y-114925000D03*
X181975000Y-117465000D03*
X181975000Y-120005000D03*
X181975000Y-122545000D03*
M02*
