%TF.GenerationSoftware,KiCad,Pcbnew,9.0.2*%
%TF.CreationDate,2025-08-29T22:08:23+05:30*%
%TF.ProjectId,4 SRA,34205352-412e-46b6-9963-61645f706362,rev?*%
%TF.SameCoordinates,Original*%
%TF.FileFunction,Soldermask,Bot*%
%TF.FilePolarity,Negative*%
%FSLAX46Y46*%
G04 Gerber Fmt 4.6, Leading zero omitted, Abs format (unit mm)*
G04 Created by KiCad (PCBNEW 9.0.2) date 2025-08-29 22:08:23*
%MOMM*%
%LPD*%
G01*
G04 APERTURE LIST*
G04 Aperture macros list*
%AMRotRect*
0 Rectangle, with rotation*
0 The origin of the aperture is its center*
0 $1 length*
0 $2 width*
0 $3 Rotation angle, in degrees counterclockwise*
0 Add horizontal line*
21,1,$1,$2,0,0,$3*%
G04 Aperture macros list end*
%ADD10R,1.700000X1.700000*%
%ADD11C,1.700000*%
%ADD12C,3.200000*%
%ADD13RotRect,1.700000X1.700000X55.000000*%
%ADD14RotRect,1.700000X1.700000X305.000000*%
%ADD15C,0.650000*%
%ADD16O,1.000000X2.100000*%
%ADD17O,1.000000X1.600000*%
G04 APERTURE END LIST*
D10*
%TO.C,J9*%
X135875000Y-73650000D03*
D11*
X135875000Y-76190000D03*
X135875000Y-78730000D03*
X135875000Y-81270000D03*
X135875000Y-83810000D03*
X135875000Y-86350000D03*
X135875000Y-88890000D03*
X135875000Y-91430000D03*
X135875000Y-93970000D03*
%TD*%
D10*
%TO.C,J1*%
X152820000Y-114255000D03*
D11*
X150280000Y-114255000D03*
X147740000Y-114255000D03*
%TD*%
D12*
%TO.C,H2*%
X125525000Y-134400000D03*
%TD*%
%TO.C,H2*%
X122100000Y-71675000D03*
%TD*%
D10*
%TO.C,J6*%
X118700000Y-78290000D03*
D11*
X118700000Y-80830000D03*
X118700000Y-83370000D03*
%TD*%
D10*
%TO.C,J4*%
X118700000Y-122545000D03*
D11*
X118700000Y-120005000D03*
X118700000Y-117465000D03*
X118700000Y-114925000D03*
X118700000Y-112385000D03*
X118700000Y-109845000D03*
X118700000Y-107305000D03*
X118700000Y-104765000D03*
X118700000Y-102225000D03*
X118700000Y-99685000D03*
X118700000Y-97145000D03*
X118700000Y-94605000D03*
X118700000Y-92065000D03*
X118700000Y-89525000D03*
X118700000Y-86985000D03*
%TD*%
D10*
%TO.C,J5*%
X181975000Y-86985000D03*
D11*
X181975000Y-89525000D03*
X181975000Y-92065000D03*
X181975000Y-94605000D03*
X181975000Y-97145000D03*
X181975000Y-99685000D03*
X181975000Y-102225000D03*
X181975000Y-104765000D03*
X181975000Y-107305000D03*
X181975000Y-109845000D03*
X181975000Y-112385000D03*
X181975000Y-114925000D03*
X181975000Y-117465000D03*
X181975000Y-120005000D03*
X181975000Y-122545000D03*
%TD*%
D13*
%TO.C,J7*%
X135575000Y-100775000D03*
D11*
X137655646Y-102231884D03*
X139736292Y-103688768D03*
X141816939Y-105145653D03*
X143897585Y-106602537D03*
%TD*%
D12*
%TO.C,H2*%
X178150000Y-71050000D03*
%TD*%
D14*
%TO.C,J8*%
X165022585Y-100872463D03*
D11*
X162941939Y-102329347D03*
X160861293Y-103786231D03*
X158780646Y-105243116D03*
X156700000Y-106700000D03*
%TD*%
D10*
%TO.C,J10*%
X164250000Y-73775000D03*
D11*
X164250000Y-76315000D03*
X164250000Y-78855000D03*
X164250000Y-81395000D03*
X164250000Y-83935000D03*
X164250000Y-86475000D03*
X164250000Y-89015000D03*
X164250000Y-91555000D03*
X164250000Y-94095000D03*
%TD*%
D15*
%TO.C,J2*%
X147860000Y-135510000D03*
X153640000Y-135510000D03*
D16*
X146430000Y-134980000D03*
D17*
X146430000Y-139160000D03*
D16*
X155070000Y-134980000D03*
D17*
X155070000Y-139160000D03*
%TD*%
D10*
%TO.C,J11*%
X181970000Y-78270000D03*
D11*
X181970000Y-80810000D03*
X181970000Y-83350000D03*
%TD*%
D10*
%TO.C,J3*%
X139902500Y-94075000D03*
D11*
X142442500Y-94075000D03*
X144982500Y-94075000D03*
X147522500Y-94075000D03*
X150062500Y-94075000D03*
X152602500Y-94075000D03*
X155142500Y-94075000D03*
X157682500Y-94075000D03*
X160222500Y-94075000D03*
%TD*%
D12*
%TO.C,H1*%
X175525000Y-134425000D03*
%TD*%
M02*
